G04*
G04 #@! TF.GenerationSoftware,Altium Limited,Altium NEXUS,2.0.14 (187)*
G04*
G04 Layer_Color=65535*
%FSLAX25Y25*%
%MOIN*%
G70*
G01*
G75*
%ADD10C,0.00984*%
%ADD11C,0.00591*%
%ADD12C,0.00394*%
%ADD13C,0.00787*%
%ADD14C,0.00000*%
G36*
X38583Y38878D02*
X42520Y42815D01*
Y38878D01*
X38583D01*
D02*
G37*
G36*
X77756Y31496D02*
X73819Y35433D01*
X77756D01*
Y31496D01*
D02*
G37*
D10*
X47028Y63189D02*
G03*
X47028Y63189I-492J0D01*
G01*
X77862Y37082D02*
G03*
X77862Y37082I-492J0D01*
G01*
X45571Y39469D02*
G03*
X45571Y39469I-492J0D01*
G01*
D11*
X76583Y81102D02*
G03*
X76583Y81102I-3256J0D01*
G01*
X47311Y37862D02*
X49311D01*
X47311D02*
Y39862D01*
X76311Y37862D02*
Y39862D01*
X74311Y37862D02*
X76311D01*
X74311Y66862D02*
X76311D01*
Y64862D02*
Y66862D01*
X47311Y64862D02*
Y66862D01*
X49311D01*
X37496Y72303D02*
X39996D01*
X27296Y73004D02*
Y76603D01*
Y73004D02*
X27997Y72303D01*
X37496D01*
X39996D02*
X40696Y73003D01*
Y76604D01*
X39996Y77304D02*
X40696Y76604D01*
X37797Y77304D02*
X39996D01*
X32995D02*
X37797D01*
X27997D02*
X32995D01*
X27296Y76603D02*
X27997Y77304D01*
X37496Y79193D02*
X39996D01*
X27296Y79894D02*
Y83493D01*
Y79894D02*
X27997Y79193D01*
X37496D01*
X39996D02*
X40696Y79893D01*
Y83494D01*
X39996Y84194D02*
X40696Y83494D01*
X37797Y84194D02*
X39996D01*
X32995D02*
X37797D01*
X27997D02*
X32995D01*
X27296Y83493D02*
X27997Y84194D01*
X44258Y75721D02*
X43799Y76180D01*
X42880D01*
X42421Y75721D01*
Y75262D01*
X42880Y74803D01*
X43799D01*
X44258Y74344D01*
Y73884D01*
X43799Y73425D01*
X42880D01*
X42421Y73884D01*
X47013Y75721D02*
X46554Y76180D01*
X45635D01*
X45176Y75721D01*
Y73884D01*
X45635Y73425D01*
X46554D01*
X47013Y73884D01*
X47931Y76180D02*
Y73425D01*
X49768D01*
X20636Y82512D02*
X20177Y82972D01*
X19258D01*
X18799Y82512D01*
Y80676D01*
X19258Y80216D01*
X20177D01*
X20636Y80676D01*
Y81594D01*
X19717D01*
X21554Y80216D02*
Y82972D01*
X23391Y80216D01*
Y82972D01*
X24309D02*
Y80216D01*
X25687D01*
X26146Y80676D01*
Y82512D01*
X25687Y82972D01*
X24309D01*
X18996Y73425D02*
X19914D01*
X19455D01*
Y76180D01*
X18996Y75721D01*
X21292Y76180D02*
Y74344D01*
X22210Y73425D01*
X23129Y74344D01*
Y76180D01*
X24047Y75721D02*
X24506Y76180D01*
X25424D01*
X25884Y75721D01*
Y75262D01*
X25424Y74803D01*
X25884Y74344D01*
Y73884D01*
X25424Y73425D01*
X24506D01*
X24047Y73884D01*
Y74344D01*
X24506Y74803D01*
X24047Y75262D01*
Y75721D01*
X24506Y74803D02*
X25424D01*
X79988Y19652D02*
X79528Y19193D01*
Y18274D01*
X79988Y17815D01*
X81824D01*
X82284Y18274D01*
Y19193D01*
X81824Y19652D01*
X80906D01*
Y18733D01*
X82284Y20570D02*
X79528D01*
X82284Y22407D01*
X79528D01*
Y23325D02*
X82284D01*
Y24702D01*
X81824Y25162D01*
X79988D01*
X79528Y24702D01*
Y23325D01*
X49173Y70865D02*
Y68569D01*
X49632Y68110D01*
X50551D01*
X51010Y68569D01*
Y70865D01*
X53765D02*
X51928D01*
Y69488D01*
X52847Y69947D01*
X53306D01*
X53765Y69488D01*
Y68569D01*
X53306Y68110D01*
X52387D01*
X51928Y68569D01*
X73160Y87841D02*
X72242D01*
X72701D01*
Y85545D01*
X72242Y85086D01*
X71782D01*
X71323Y85545D01*
X75915Y85086D02*
X74078D01*
X75915Y86923D01*
Y87382D01*
X75456Y87841D01*
X74537D01*
X74078Y87382D01*
X44390Y23622D02*
X41635D01*
X42553Y24540D01*
X41635Y25459D01*
X44390D01*
Y28214D02*
Y26377D01*
X42553Y28214D01*
X42094D01*
X41635Y27755D01*
Y26836D01*
X42094Y26377D01*
X23653Y27559D02*
Y30314D01*
X25030D01*
X25490Y29855D01*
Y28937D01*
X25030Y28477D01*
X23653D01*
X24571D02*
X25490Y27559D01*
X26408Y30314D02*
X28245D01*
Y29855D01*
X26408Y28018D01*
Y27559D01*
X76583Y-4528D02*
X73828D01*
Y-3150D01*
X74287Y-2691D01*
X75205D01*
X75664Y-3150D01*
Y-4528D01*
Y-3609D02*
X76583Y-2691D01*
X73828Y64D02*
Y-1773D01*
X75205D01*
X74746Y-854D01*
Y-395D01*
X75205Y64D01*
X76123D01*
X76583Y-395D01*
Y-1313D01*
X76123Y-1773D01*
X83858Y57499D02*
Y54744D01*
X85695D01*
X86613D02*
X87532D01*
X87072D01*
Y57499D01*
X86613Y57040D01*
X86254Y25728D02*
X85336D01*
X85795D01*
Y23432D01*
X85336Y22973D01*
X84877D01*
X84418Y23432D01*
X87173Y22973D02*
X88091D01*
X87632D01*
Y25728D01*
X87173Y25269D01*
X88679Y79789D02*
X88219Y79330D01*
Y78412D01*
X88679Y77953D01*
X90515D01*
X90974Y78412D01*
Y79330D01*
X90515Y79789D01*
X90974Y82544D02*
Y80708D01*
X89138Y82544D01*
X88679D01*
X88219Y82085D01*
Y81167D01*
X88679Y80708D01*
X90974Y84840D02*
X88219D01*
X89597Y83463D01*
Y85299D01*
X81169Y86482D02*
X80710Y86023D01*
Y85105D01*
X81169Y84646D01*
X83005D01*
X83465Y85105D01*
Y86023D01*
X83005Y86482D01*
X83465Y89237D02*
Y87401D01*
X81628Y89237D01*
X81169D01*
X80710Y88778D01*
Y87860D01*
X81169Y87401D01*
Y90156D02*
X80710Y90615D01*
Y91533D01*
X81169Y91992D01*
X81628D01*
X82087Y91533D01*
Y91074D01*
Y91533D01*
X82546Y91992D01*
X83005D01*
X83465Y91533D01*
Y90615D01*
X83005Y90156D01*
X77232Y79396D02*
X76772Y78937D01*
Y78018D01*
X77232Y77559D01*
X79068D01*
X79528Y78018D01*
Y78937D01*
X79068Y79396D01*
X79528Y82151D02*
Y80314D01*
X77691Y82151D01*
X77232D01*
X76772Y81692D01*
Y80773D01*
X77232Y80314D01*
Y83069D02*
X76772Y83528D01*
Y84447D01*
X77232Y84906D01*
X79068D01*
X79528Y84447D01*
Y83528D01*
X79068Y83069D01*
X77232D01*
X66799Y72604D02*
X66339Y72145D01*
Y71227D01*
X66799Y70768D01*
X68635D01*
X69095Y71227D01*
Y72145D01*
X68635Y72604D01*
X69095Y73523D02*
Y74441D01*
Y73982D01*
X66339D01*
X66799Y73523D01*
X68635Y75819D02*
X69095Y76278D01*
Y77196D01*
X68635Y77655D01*
X66799D01*
X66339Y77196D01*
Y76278D01*
X66799Y75819D01*
X67258D01*
X67717Y76278D01*
Y77655D01*
X57350Y71522D02*
X56891Y71062D01*
Y70144D01*
X57350Y69685D01*
X59187D01*
X59646Y70144D01*
Y71062D01*
X59187Y71522D01*
X59646Y72440D02*
Y73358D01*
Y72899D01*
X56891D01*
X57350Y72440D01*
X56891Y76573D02*
Y74736D01*
X58268D01*
X57809Y75654D01*
Y76113D01*
X58268Y76573D01*
X59187D01*
X59646Y76113D01*
Y75195D01*
X59187Y74736D01*
X42389Y86482D02*
X41930Y86023D01*
Y85105D01*
X42389Y84646D01*
X44226D01*
X44685Y85105D01*
Y86023D01*
X44226Y86482D01*
X41930Y89237D02*
Y87401D01*
X43308D01*
X42848Y88319D01*
Y88778D01*
X43308Y89237D01*
X44226D01*
X44685Y88778D01*
Y87860D01*
X44226Y87401D01*
X64238Y101804D02*
X63779Y102263D01*
X62861D01*
X62402Y101804D01*
Y99967D01*
X62861Y99508D01*
X63779D01*
X64238Y99967D01*
X66534Y99508D02*
Y102263D01*
X65157Y100885D01*
X66993D01*
X64337Y89501D02*
X63877Y89960D01*
X62959D01*
X62500Y89501D01*
Y87664D01*
X62959Y87205D01*
X63877D01*
X64337Y87664D01*
X65255Y89501D02*
X65714Y89960D01*
X66632D01*
X67092Y89501D01*
Y89041D01*
X66632Y88582D01*
X66173D01*
X66632D01*
X67092Y88123D01*
Y87664D01*
X66632Y87205D01*
X65714D01*
X65255Y87664D01*
X55577Y92060D02*
X55118Y92519D01*
X54199D01*
X53740Y92060D01*
Y90223D01*
X54199Y89764D01*
X55118D01*
X55577Y90223D01*
X58332Y89764D02*
X56495D01*
X58332Y91601D01*
Y92060D01*
X57873Y92519D01*
X56954D01*
X56495Y92060D01*
X55774Y96390D02*
X55314Y96850D01*
X54396D01*
X53937Y96390D01*
Y94554D01*
X54396Y94095D01*
X55314D01*
X55774Y94554D01*
X56692Y94095D02*
X57610D01*
X57151D01*
Y96850D01*
X56692Y96390D01*
X53641Y-2199D02*
X53182Y-2658D01*
Y-3576D01*
X53641Y-4035D01*
X55478D01*
X55937Y-3576D01*
Y-2658D01*
X55478Y-2199D01*
X55937Y556D02*
Y-1280D01*
X54100Y556D01*
X53641D01*
X53182Y97D01*
Y-821D01*
X53641Y-1280D01*
X53182Y3311D02*
Y1475D01*
X54559D01*
X54100Y2393D01*
Y2852D01*
X54559Y3311D01*
X55478D01*
X55937Y2852D01*
Y1934D01*
X55478Y1475D01*
X55937Y4230D02*
X55478D01*
Y4689D01*
X55937D01*
Y4230D01*
Y6526D02*
Y7444D01*
Y6985D01*
X53182D01*
X53641Y6526D01*
X53920Y-6956D02*
X53460Y-6497D01*
X52542D01*
X52083Y-6956D01*
Y-8793D01*
X52542Y-9252D01*
X53460D01*
X53920Y-8793D01*
X56675Y-9252D02*
X54838D01*
X56675Y-7415D01*
Y-6956D01*
X56215Y-6497D01*
X55297D01*
X54838Y-6956D01*
X59430Y-6497D02*
X58511Y-6956D01*
X57593Y-7875D01*
Y-8793D01*
X58052Y-9252D01*
X58970D01*
X59430Y-8793D01*
Y-8334D01*
X58970Y-7875D01*
X57593D01*
X60348Y-9252D02*
Y-8793D01*
X60807D01*
Y-9252D01*
X60348D01*
X62644D02*
X63562D01*
X63103D01*
Y-6497D01*
X62644Y-6956D01*
X20361Y2919D02*
X19902Y2460D01*
Y1542D01*
X20361Y1083D01*
X22197D01*
X22657Y1542D01*
Y2460D01*
X22197Y2919D01*
X22657Y5674D02*
Y3838D01*
X20820Y5674D01*
X20361D01*
X19902Y5215D01*
Y4297D01*
X20361Y3838D01*
X19902Y8429D02*
Y6593D01*
X21279D01*
X20820Y7511D01*
Y7970D01*
X21279Y8429D01*
X22197D01*
X22657Y7970D01*
Y7052D01*
X22197Y6593D01*
X22657Y9348D02*
X22197D01*
Y9807D01*
X22657D01*
Y9348D01*
Y13480D02*
Y11644D01*
X20820Y13480D01*
X20361D01*
X19902Y13021D01*
Y12103D01*
X20361Y11644D01*
X23156Y20386D02*
X22696Y20846D01*
X21778D01*
X21319Y20386D01*
Y18550D01*
X21778Y18091D01*
X22696D01*
X23156Y18550D01*
X25911Y18091D02*
X24074D01*
X25911Y19927D01*
Y20386D01*
X25451Y20846D01*
X24533D01*
X24074Y20386D01*
X28666Y20846D02*
X27747Y20386D01*
X26829Y19468D01*
Y18550D01*
X27288Y18091D01*
X28207D01*
X28666Y18550D01*
Y19009D01*
X28207Y19468D01*
X26829D01*
X29584Y18091D02*
Y18550D01*
X30043D01*
Y18091D01*
X29584D01*
X33716D02*
X31880D01*
X33716Y19927D01*
Y20386D01*
X33257Y20846D01*
X32339D01*
X31880Y20386D01*
X38729Y-7552D02*
X41484D01*
Y-5715D01*
Y-2960D02*
Y-4797D01*
X39648Y-2960D01*
X39188D01*
X38729Y-3420D01*
Y-4338D01*
X39188Y-4797D01*
X41484Y-2042D02*
X41025D01*
Y-1583D01*
X41484D01*
Y-2042D01*
Y254D02*
Y1172D01*
Y713D01*
X38729D01*
X39188Y254D01*
X37009Y19291D02*
X39764D01*
Y21128D01*
Y23883D02*
Y22046D01*
X37927Y23883D01*
X37468D01*
X37009Y23424D01*
Y22505D01*
X37468Y22046D01*
X39764Y24801D02*
X39305D01*
Y25261D01*
X39764D01*
Y24801D01*
Y28934D02*
Y27097D01*
X37927Y28934D01*
X37468D01*
X37009Y28475D01*
Y27556D01*
X37468Y27097D01*
X42340Y4134D02*
X44636D01*
X45095Y4593D01*
Y5511D01*
X44636Y5971D01*
X42340D01*
X45095Y8266D02*
X42340D01*
X43717Y6889D01*
Y8726D01*
X45095Y9644D02*
X44636D01*
Y10103D01*
X45095D01*
Y9644D01*
Y11940D02*
Y12858D01*
Y12399D01*
X42340D01*
X42799Y11940D01*
X29528Y-5315D02*
X31824D01*
X32283Y-4856D01*
Y-3937D01*
X31824Y-3478D01*
X29528D01*
X32283Y-1182D02*
X29528D01*
X30906Y-2560D01*
Y-723D01*
X32283Y195D02*
X31824D01*
Y654D01*
X32283D01*
Y195D01*
Y4328D02*
Y2491D01*
X30447Y4328D01*
X29988D01*
X29528Y3868D01*
Y2950D01*
X29988Y2491D01*
X28051Y33858D02*
Y36613D01*
X28969Y35695D01*
X29888Y36613D01*
Y33858D01*
X30806D02*
X31725D01*
X31265D01*
Y36613D01*
X30806Y36154D01*
X42048Y83168D02*
X42967D01*
X42508D01*
Y80413D01*
X42048D01*
X42967D01*
X46181D02*
X44344D01*
X46181Y82250D01*
Y82709D01*
X45722Y83168D01*
X44804D01*
X44344Y82709D01*
X48936D02*
X48477Y83168D01*
X47559D01*
X47099Y82709D01*
Y80873D01*
X47559Y80413D01*
X48477D01*
X48936Y80873D01*
X49854Y80413D02*
Y80873D01*
X50314D01*
Y80413D01*
X49854D01*
X25013Y88385D02*
X25931D01*
X25472D01*
Y85630D01*
X25013D01*
X25931D01*
X29146D02*
X27309D01*
X29146Y87467D01*
Y87926D01*
X28686Y88385D01*
X27768D01*
X27309Y87926D01*
X31901D02*
X31441Y88385D01*
X30523D01*
X30064Y87926D01*
Y86089D01*
X30523Y85630D01*
X31441D01*
X31901Y86089D01*
D12*
X32441Y5394D02*
Y11693D01*
X29291Y5394D02*
Y11693D01*
X32441D01*
X29291Y5394D02*
X32441D01*
X42733Y-2953D02*
Y3347D01*
X45882Y-2953D02*
Y3347D01*
X42733Y-2953D02*
X45882D01*
X42733Y3347D02*
X45882D01*
X78997Y26967D02*
X80189D01*
X91191D02*
X92383D01*
X91191Y51967D02*
X92383D01*
X78997Y26967D02*
Y51967D01*
X92383Y26967D02*
Y51967D01*
X78997D02*
X80189D01*
D13*
X78533Y65354D02*
Y69291D01*
X93895Y65354D02*
Y69291D01*
X46260Y11811D02*
Y35433D01*
X77756Y11811D02*
Y35433D01*
X46260Y11811D02*
X77756D01*
X46260Y35433D02*
X77756D01*
X73819D02*
X77756Y31496D01*
X18898Y70374D02*
X42520D01*
X18898Y38878D02*
X42520D01*
X18898D02*
Y70374D01*
X42520Y38878D02*
Y70374D01*
X38583Y38878D02*
X42520Y42815D01*
X86713Y-2757D02*
X89336D01*
X88024D01*
Y-6693D01*
X91304D02*
X92616D01*
X93272Y-6037D01*
Y-4725D01*
X92616Y-4069D01*
X91304D01*
X90648Y-4725D01*
Y-6037D01*
X91304Y-6693D01*
X94584Y-8005D02*
Y-4069D01*
X96552D01*
X97208Y-4725D01*
Y-6037D01*
X96552Y-6693D01*
X94584D01*
D14*
X34589Y106299D02*
X75500D01*
X89854Y86614D01*
X98425Y86614D01*
X110236Y74803D01*
Y0D02*
Y74803D01*
X98425Y-11811D02*
X110236Y0D01*
X11811Y-11811D02*
X98425Y-11811D01*
X0Y0D02*
X11811Y-11811D01*
X0Y0D02*
Y74803D01*
X11811Y86614D01*
X20529D01*
X34589Y106299D01*
M02*
