G04 Layer_Color=65535*
%FSLAX25Y25*%
%MOIN*%
G70*
G01*
G75*
%ADD11C,0.00787*%
%ADD13C,0.00591*%
%ADD22C,0.00394*%
%ADD23C,0.01000*%
D11*
X188031Y121000D02*
G03*
X188031Y121000I-5000J0D01*
G01*
X177032D02*
G03*
X177032Y121000I-5000J0D01*
G01*
X166032D02*
G03*
X166032Y121000I-5000J0D01*
G01*
X155032D02*
G03*
X155032Y121000I-5000J0D01*
G01*
X144032D02*
G03*
X144032Y121000I-5000J0D01*
G01*
X133031D02*
G03*
X133031Y121000I-5000J0D01*
G01*
X199421Y131181D02*
G03*
X199421Y131181I-5000J0D01*
G01*
Y111181D02*
G03*
X199421Y111181I-5000J0D01*
G01*
X178367Y139999D02*
Y219999D01*
X142541Y139999D02*
X178367D01*
X142541D02*
Y219999D01*
X178367D01*
X142541Y188000D02*
X145453D01*
Y172000D02*
Y188000D01*
X142541Y172000D02*
X145453D01*
X174197Y108472D02*
Y110047D01*
X169866Y108472D02*
Y110047D01*
X185197Y108213D02*
Y109787D01*
X180866Y108213D02*
Y109787D01*
X152197Y108213D02*
Y109787D01*
X147866Y108213D02*
Y109787D01*
X163197Y108213D02*
Y109787D01*
X158866Y108213D02*
Y109787D01*
X130197Y108213D02*
Y109787D01*
X125866Y108213D02*
Y109787D01*
X141197Y108213D02*
Y109787D01*
X136866Y108213D02*
Y109787D01*
X196587Y120394D02*
Y121968D01*
X192256Y120394D02*
Y121968D01*
X179600Y175392D02*
X182341D01*
Y184648D01*
X179593D02*
X182341D01*
X179598Y155118D02*
X199665D01*
X179591Y155120D02*
Y204921D01*
X179587Y204921D02*
X199665D01*
Y155118D02*
Y204921D01*
D13*
X125948Y145680D02*
Y144368D01*
Y145024D01*
X129227D01*
X129883Y144368D01*
Y143712D01*
X129227Y143056D01*
X125948Y146992D02*
Y149616D01*
Y148304D01*
X129883D01*
Y150928D02*
X127260D01*
X125948Y152240D01*
X127260Y153551D01*
X129883D01*
X127916D01*
Y150928D01*
X126604Y157487D02*
X125948Y156831D01*
Y155519D01*
X126604Y154864D01*
X129227D01*
X129883Y155519D01*
Y156831D01*
X129227Y157487D01*
X127916D01*
Y156175D01*
X129883Y162735D02*
X127260D01*
X125948Y164047D01*
X127260Y165359D01*
X129883D01*
X127916D01*
Y162735D01*
X129883Y166671D02*
X125948D01*
Y168639D01*
X126604Y169295D01*
X127916D01*
X128571Y168639D01*
Y166671D01*
Y167983D02*
X129883Y169295D01*
Y170606D02*
X125948D01*
X127260Y171918D01*
X125948Y173230D01*
X129883D01*
Y174542D02*
X127260Y177166D01*
X125948Y178478D02*
Y181102D01*
Y179790D01*
X129883D01*
X125948Y182414D02*
Y183726D01*
Y183070D01*
X129883D01*
Y182414D01*
Y183726D01*
X126604Y190285D02*
X127260D01*
Y189629D01*
Y190941D01*
Y190285D01*
X129227D01*
X129883Y190941D01*
Y193565D02*
Y194877D01*
X129227Y195533D01*
X127916D01*
X127260Y194877D01*
Y193565D01*
X127916Y192909D01*
X129227D01*
X129883Y193565D01*
Y200780D02*
X125948D01*
Y202748D01*
X126604Y203404D01*
X127916D01*
X128571Y202748D01*
Y200780D01*
X125948Y204716D02*
X129227D01*
X129883Y205372D01*
Y206684D01*
X129227Y207340D01*
X125948D01*
Y208652D02*
X129883D01*
Y211276D01*
Y212588D02*
X125948D01*
Y214556D01*
X126604Y215212D01*
X127916D01*
X128571Y214556D01*
Y212588D01*
X132744Y146664D02*
X132088Y146008D01*
Y144696D01*
X132744Y144040D01*
X135368D01*
X136024Y144696D01*
Y146008D01*
X135368Y146664D01*
X136024Y148632D02*
Y149944D01*
X135368Y150600D01*
X134056D01*
X133400Y149944D01*
Y148632D01*
X134056Y147976D01*
X135368D01*
X136024Y148632D01*
Y151912D02*
X133400D01*
Y153879D01*
X134056Y154535D01*
X136024D01*
X133400Y155847D02*
X136024Y157159D01*
X133400Y158471D01*
X136024Y161751D02*
Y160439D01*
X135368Y159783D01*
X134056D01*
X133400Y160439D01*
Y161751D01*
X134056Y162407D01*
X134712D01*
Y159783D01*
X133400Y163719D02*
X136024D01*
X134712D01*
X134056Y164375D01*
X133400Y165031D01*
Y165687D01*
X132744Y168311D02*
X133400D01*
Y167655D01*
Y168966D01*
Y168311D01*
X135368D01*
X136024Y168966D01*
Y172902D02*
Y171590D01*
X135368Y170934D01*
X134056D01*
X133400Y171590D01*
Y172902D01*
X134056Y173558D01*
X134712D01*
Y170934D01*
X133400Y174870D02*
X136024D01*
X134712D01*
X134056Y175526D01*
X133400Y176182D01*
Y176838D01*
X132088Y182742D02*
X136024D01*
Y184710D01*
X135368Y185365D01*
X134712D01*
X134056Y184710D01*
Y182742D01*
Y184710D01*
X133400Y185365D01*
X132744D01*
X132088Y184710D01*
Y182742D01*
X136024Y187333D02*
Y188645D01*
X135368Y189301D01*
X134056D01*
X133400Y188645D01*
Y187333D01*
X134056Y186677D01*
X135368D01*
X136024Y187333D01*
X133400Y191269D02*
Y192581D01*
X134056Y193237D01*
X136024D01*
Y191269D01*
X135368Y190613D01*
X134712Y191269D01*
Y193237D01*
X133400Y194549D02*
X136024D01*
X134712D01*
X134056Y195205D01*
X133400Y195861D01*
Y196517D01*
X132088Y201108D02*
X136024D01*
Y199141D01*
X135368Y198485D01*
X134056D01*
X133400Y199141D01*
Y201108D01*
X136024Y206356D02*
Y207668D01*
Y207012D01*
X132088D01*
X132744Y206356D01*
X136024Y209636D02*
X135368D01*
Y210292D01*
X136024D01*
Y209636D01*
Y212916D02*
Y214228D01*
Y213572D01*
X132088D01*
X132744Y212916D01*
D22*
X168834Y103307D02*
G03*
X168834Y103307I-197J0D01*
G01*
X179834Y103047D02*
G03*
X179834Y103047I-197J0D01*
G01*
X146834D02*
G03*
X146834Y103047I-197J0D01*
G01*
X157834D02*
G03*
X157834Y103047I-197J0D01*
G01*
X124834D02*
G03*
X124834Y103047I-197J0D01*
G01*
X135834D02*
G03*
X135834Y103047I-197J0D01*
G01*
X191224Y115228D02*
G03*
X191224Y115228I-197J0D01*
G01*
X194429Y104405D02*
Y105905D01*
X191929Y104405D02*
X196929D01*
X192929Y103405D02*
X195929D01*
X193929Y102406D02*
X194929D01*
D23*
X186031Y128000D02*
X180033D01*
Y130999D01*
X181033Y131999D01*
X183033D01*
X184032Y130999D01*
Y128000D01*
X186031Y133998D02*
X180033D01*
Y136997D01*
X181033Y137997D01*
X183033D01*
X184032Y136997D01*
Y133998D01*
Y135997D02*
X186031Y137997D01*
X175031Y128000D02*
X169033D01*
Y130999D01*
X170033Y131999D01*
X172032D01*
X173032Y130999D01*
Y128000D01*
Y129999D02*
X175031Y131999D01*
X170033Y137997D02*
X169033Y136997D01*
Y134998D01*
X170033Y133998D01*
X171033D01*
X172032Y134998D01*
Y136997D01*
X173032Y137997D01*
X174032D01*
X175031Y136997D01*
Y134998D01*
X174032Y133998D01*
X164032Y128000D02*
X158033D01*
X160033Y129999D01*
X158033Y131999D01*
X164032D01*
X159033Y137997D02*
X158033Y136997D01*
Y134998D01*
X159033Y133998D01*
X160033D01*
X161032Y134998D01*
Y136997D01*
X162032Y137997D01*
X163032D01*
X164032Y136997D01*
Y134998D01*
X163032Y133998D01*
X147033Y128000D02*
X153032D01*
Y130999D01*
X152032Y131999D01*
X148033D01*
X147033Y130999D01*
Y128000D01*
Y136997D02*
Y134998D01*
X148033Y133998D01*
X152032D01*
X153032Y134998D01*
Y136997D01*
X152032Y137997D01*
X148033D01*
X147033Y136997D01*
X136033Y128000D02*
X142032D01*
Y130999D01*
X141032Y131999D01*
X137033D01*
X136033Y130999D01*
Y128000D01*
Y133998D02*
Y135997D01*
Y134998D01*
X142032D01*
Y133998D01*
Y135997D01*
X126033Y131999D02*
X125033Y130999D01*
Y129000D01*
X126033Y128000D01*
X130032D01*
X131032Y129000D01*
Y130999D01*
X130032Y131999D01*
X125033Y133998D02*
X131032D01*
X129032D01*
X125033Y137997D01*
X128033Y134998D01*
X131032Y137997D01*
M02*
