G04 Layer_Color=16711935*
%FSLAX25Y25*%
%MOIN*%
G70*
G01*
G75*
%ADD25R,0.06496X0.06496*%
%ADD26C,0.06496*%
%ADD27R,0.06496X0.06496*%
%ADD28C,0.06890*%
%ADD29C,0.04528*%
%ADD30R,0.01968X0.02362*%
%ADD31R,0.04134X0.02559*%
D25*
X116181Y205000D02*
D03*
D26*
Y195000D02*
D03*
Y185000D02*
D03*
Y175000D02*
D03*
Y165000D02*
D03*
Y155000D02*
D03*
Y145000D02*
D03*
Y135000D02*
D03*
Y125000D02*
D03*
Y115000D02*
D03*
X106181Y205000D02*
D03*
Y195000D02*
D03*
Y185000D02*
D03*
Y175000D02*
D03*
Y165000D02*
D03*
Y155000D02*
D03*
Y145000D02*
D03*
Y135000D02*
D03*
Y125000D02*
D03*
Y115000D02*
D03*
X165453Y200000D02*
D03*
X155453Y190000D02*
D03*
Y180000D02*
D03*
Y170000D02*
D03*
Y160000D02*
D03*
X165453Y190000D02*
D03*
Y180000D02*
D03*
Y170000D02*
D03*
Y160000D02*
D03*
D27*
X155453Y200000D02*
D03*
D28*
X183031Y121000D02*
D03*
X172031D02*
D03*
X161031D02*
D03*
X150031D02*
D03*
X139032D02*
D03*
X128032D02*
D03*
X194421Y131181D02*
D03*
Y111181D02*
D03*
D29*
X187126Y190020D02*
D03*
Y185020D02*
D03*
Y180020D02*
D03*
Y175020D02*
D03*
Y170020D02*
D03*
X192126Y190020D02*
D03*
Y185020D02*
D03*
Y180020D02*
D03*
Y175020D02*
D03*
Y170020D02*
D03*
D30*
X156890Y135925D02*
D03*
X159449D02*
D03*
X162008D02*
D03*
Y143602D02*
D03*
X159449D02*
D03*
X156890D02*
D03*
X149213Y149508D02*
D03*
X146653D02*
D03*
X144095D02*
D03*
Y141831D02*
D03*
X146653D02*
D03*
X149213D02*
D03*
X149606Y164272D02*
D03*
X147047D02*
D03*
X144488D02*
D03*
Y156595D02*
D03*
X147047D02*
D03*
X149606D02*
D03*
D31*
X132677Y137795D02*
D03*
Y140945D02*
D03*
Y144095D02*
D03*
Y147244D02*
D03*
Y150394D02*
D03*
Y153543D02*
D03*
Y156693D02*
D03*
Y159843D02*
D03*
X138976Y137795D02*
D03*
Y140945D02*
D03*
Y144095D02*
D03*
Y147244D02*
D03*
Y150394D02*
D03*
Y153543D02*
D03*
Y156693D02*
D03*
Y159843D02*
D03*
M02*
