G04 Layer_Physical_Order=2*
G04 Layer_Color=16711680*
%FSLAX25Y25*%
%MOIN*%
G70*
G01*
G75*
%ADD11C,0.00787*%
%ADD12C,0.01575*%
%ADD14R,0.05905X0.05905*%
%ADD15C,0.05905*%
%ADD16R,0.05905X0.05905*%
%ADD17C,0.06299*%
%ADD18C,0.03937*%
%ADD19C,0.01772*%
%ADD20R,0.01378X0.01772*%
%ADD21R,0.03543X0.01968*%
G36*
X159845Y145114D02*
X159868Y144862D01*
X159888Y144760D01*
X159913Y144673D01*
X159926Y144643D01*
X160069D01*
X160026Y144596D01*
X159987Y144544D01*
X159986Y144542D01*
X160024Y144508D01*
X160072Y144484D01*
X160126Y144476D01*
X159948D01*
X159924Y144426D01*
X159899Y144359D01*
X159879Y144287D01*
X159863Y144211D01*
X159852Y144129D01*
X159845Y144042D01*
X159843Y143951D01*
X159055D01*
X159053Y144042D01*
X159046Y144129D01*
X159035Y144211D01*
X159019Y144287D01*
X158999Y144359D01*
X158974Y144426D01*
X158950Y144476D01*
X158772D01*
X158826Y144484D01*
X158874Y144508D01*
X158911Y144542D01*
X158910Y144544D01*
X158872Y144596D01*
X158829Y144643D01*
X158971D01*
X158984Y144673D01*
X159010Y144760D01*
X159030Y144862D01*
X159044Y144980D01*
X159052Y145114D01*
X159055Y145264D01*
X159843D01*
X159845Y145114D01*
D02*
G37*
G36*
X131637Y143134D02*
X131595Y143195D01*
X131537Y143230D01*
X131464Y143238D01*
X131375Y143221D01*
X131272Y143177D01*
X131152Y143107D01*
X131018Y143011D01*
X130869Y142888D01*
X130524Y142566D01*
X130361Y143516D01*
X130500Y143661D01*
X130724Y143929D01*
X130809Y144051D01*
X130875Y144166D01*
X130922Y144274D01*
X130952Y144374D01*
X130963Y144467D01*
X130955Y144552D01*
X130930Y144630D01*
X131637Y143134D01*
D02*
G37*
G36*
X131637Y146284D02*
X131595Y146345D01*
X131537Y146379D01*
X131464Y146388D01*
X131375Y146370D01*
X131272Y146326D01*
X131152Y146257D01*
X131018Y146160D01*
X130869Y146038D01*
X130524Y145715D01*
X130361Y146666D01*
X130500Y146811D01*
X130724Y147078D01*
X130809Y147201D01*
X130875Y147316D01*
X130922Y147424D01*
X130952Y147524D01*
X130963Y147616D01*
X130955Y147701D01*
X130930Y147779D01*
X131637Y146284D01*
D02*
G37*
G36*
X170070Y145177D02*
X170006Y145174D01*
X169942Y145165D01*
X169878Y145149D01*
X169814Y145126D01*
X169749Y145096D01*
X169684Y145060D01*
X169618Y145017D01*
X169552Y144967D01*
X169486Y144911D01*
X169420Y144847D01*
X168863Y145404D01*
X168926Y145470D01*
X168983Y145537D01*
X169033Y145602D01*
X169076Y145668D01*
X169112Y145733D01*
X169141Y145798D01*
X169164Y145862D01*
X169181Y145926D01*
X169190Y145990D01*
X169193Y146054D01*
X170070Y145177D01*
D02*
G37*
G36*
X147216Y140951D02*
X147181Y140933D01*
X147150Y140903D01*
X147122Y140860D01*
X147099Y140806D01*
X147081Y140740D01*
X147066Y140662D01*
X147056Y140571D01*
X147049Y140469D01*
X147047Y140354D01*
X146260D01*
X146258Y140469D01*
X146241Y140662D01*
X146226Y140740D01*
X146208Y140806D01*
X146185Y140860D01*
X146158Y140903D01*
X146126Y140933D01*
X146091Y140951D01*
X146051Y140957D01*
X147256D01*
X147216Y140951D01*
D02*
G37*
G36*
X131637Y139985D02*
X131595Y140045D01*
X131537Y140080D01*
X131464Y140089D01*
X131375Y140071D01*
X131272Y140027D01*
X131152Y139957D01*
X131018Y139861D01*
X130869Y139739D01*
X130524Y139416D01*
X130361Y140366D01*
X130500Y140511D01*
X130724Y140779D01*
X130809Y140902D01*
X130875Y141017D01*
X130922Y141124D01*
X130952Y141224D01*
X130963Y141317D01*
X130955Y141402D01*
X130930Y141480D01*
X131637Y139985D01*
D02*
G37*
G36*
X162695Y144460D02*
X162725Y144445D01*
X162775Y144432D01*
X162844Y144421D01*
X162934Y144411D01*
X163322Y144393D01*
X163681Y144390D01*
Y142815D01*
X163492Y142814D01*
X162775Y142773D01*
X162725Y142760D01*
X162695Y142745D01*
X162685Y142728D01*
Y144476D01*
X162695Y144460D01*
D02*
G37*
G36*
X157508Y143713D02*
X157485Y143644D01*
X157484Y143563D01*
X157507Y143470D01*
X157552Y143365D01*
X157620Y143247D01*
X157712Y143118D01*
X157826Y142976D01*
X158124Y142657D01*
X157495Y142172D01*
X157336Y142326D01*
X157049Y142569D01*
X156922Y142658D01*
X156805Y142726D01*
X156699Y142772D01*
X156604Y142796D01*
X156519Y142799D01*
X156445Y142781D01*
X156381Y142740D01*
X157555Y143770D01*
X157508Y143713D01*
D02*
G37*
G36*
X148767Y150785D02*
X149053Y150541D01*
X149181Y150452D01*
X149297Y150385D01*
X149403Y150338D01*
X149499Y150314D01*
X149583Y150311D01*
X149657Y150330D01*
X149721Y150370D01*
X148548Y149340D01*
X148594Y149397D01*
X148618Y149466D01*
X148618Y149547D01*
X148596Y149640D01*
X148550Y149746D01*
X148482Y149863D01*
X148391Y149992D01*
X148276Y150134D01*
X147979Y150453D01*
X148607Y150938D01*
X148767Y150785D01*
D02*
G37*
G36*
X140709Y150850D02*
X140701Y150764D01*
X140711Y150670D01*
X140739Y150570D01*
X140785Y150462D01*
X140850Y150347D01*
X140933Y150225D01*
X141035Y150095D01*
X141155Y149959D01*
X141293Y149815D01*
X141130Y148865D01*
X140951Y149038D01*
X140637Y149307D01*
X140503Y149402D01*
X140384Y149471D01*
X140281Y149513D01*
X140192Y149530D01*
X140118Y149520D01*
X140060Y149484D01*
X140016Y149422D01*
X140736Y150929D01*
X140709Y150850D01*
D02*
G37*
G36*
X131637Y152583D02*
X131595Y152644D01*
X131537Y152679D01*
X131464Y152687D01*
X131375Y152670D01*
X131272Y152626D01*
X131152Y152556D01*
X131018Y152460D01*
X130869Y152337D01*
X130524Y152014D01*
X130361Y152965D01*
X130500Y153110D01*
X130724Y153377D01*
X130809Y153500D01*
X130875Y153615D01*
X130922Y153723D01*
X130952Y153823D01*
X130963Y153916D01*
X130955Y154001D01*
X130930Y154078D01*
X131637Y152583D01*
D02*
G37*
G36*
X131637Y149433D02*
X131595Y149494D01*
X131537Y149529D01*
X131464Y149538D01*
X131375Y149520D01*
X131272Y149476D01*
X131152Y149406D01*
X131018Y149310D01*
X130869Y149188D01*
X130524Y148865D01*
X130361Y149815D01*
X130500Y149960D01*
X130724Y150228D01*
X130809Y150350D01*
X130875Y150466D01*
X130922Y150573D01*
X130952Y150673D01*
X130963Y150766D01*
X130955Y150851D01*
X130930Y150929D01*
X131637Y149433D01*
D02*
G37*
G36*
X145475Y147760D02*
X145483Y147674D01*
X145496Y147594D01*
X145515Y147521D01*
X145539Y147453D01*
X145569Y147393D01*
X145603Y147338D01*
X145643Y147290D01*
X145689Y147247D01*
X145740Y147211D01*
X144530Y146936D01*
X144560Y146986D01*
X144586Y147041D01*
X144609Y147101D01*
X144629Y147165D01*
X144646Y147234D01*
X144660Y147308D01*
X144679Y147469D01*
X144684Y147556D01*
X144685Y147648D01*
X145472Y147852D01*
X145475Y147760D01*
D02*
G37*
G36*
X147439Y148003D02*
X147505Y147946D01*
X147571Y147896D01*
X147637Y147853D01*
X147702Y147817D01*
X147766Y147787D01*
X147831Y147765D01*
X147895Y147748D01*
X147959Y147739D01*
X148023Y147736D01*
X147146Y146859D01*
X147143Y146923D01*
X147134Y146987D01*
X147117Y147051D01*
X147095Y147115D01*
X147065Y147180D01*
X147029Y147245D01*
X146986Y147311D01*
X146936Y147377D01*
X146879Y147443D01*
X146816Y147509D01*
X147373Y148066D01*
X147439Y148003D01*
D02*
G37*
G36*
X144762Y149434D02*
X144777Y149411D01*
X144804Y149377D01*
X144894Y149277D01*
X145328Y148831D01*
X144800Y148245D01*
X144354Y148646D01*
X144760Y149445D01*
X144762Y149434D01*
D02*
G37*
G36*
X147057Y148630D02*
X147055Y148618D01*
X147053Y148598D01*
X147049Y148488D01*
X147047Y148228D01*
X146260D01*
X146248Y148634D01*
X147059D01*
X147057Y148630D01*
D02*
G37*
G36*
X160432Y103514D02*
X160497Y103458D01*
X160563Y103408D01*
X160629Y103365D01*
X160694Y103329D01*
X160759Y103299D01*
X160823Y103276D01*
X160887Y103260D01*
X160951Y103251D01*
X161015Y103248D01*
X160138Y102371D01*
X160135Y102435D01*
X160126Y102498D01*
X160109Y102563D01*
X160087Y102627D01*
X160057Y102692D01*
X160021Y102757D01*
X159978Y102822D01*
X159928Y102888D01*
X159871Y102954D01*
X159808Y103021D01*
X160365Y103577D01*
X160432Y103514D01*
D02*
G37*
G36*
X138384D02*
X138450Y103458D01*
X138516Y103408D01*
X138582Y103365D01*
X138647Y103329D01*
X138711Y103299D01*
X138776Y103276D01*
X138840Y103260D01*
X138904Y103251D01*
X138968Y103248D01*
X138091Y102371D01*
X138088Y102435D01*
X138078Y102498D01*
X138062Y102563D01*
X138039Y102627D01*
X138010Y102692D01*
X137973Y102757D01*
X137931Y102822D01*
X137881Y102888D01*
X137824Y102954D01*
X137761Y103021D01*
X138318Y103577D01*
X138384Y103514D01*
D02*
G37*
G36*
X182479D02*
X182545Y103458D01*
X182610Y103408D01*
X182676Y103365D01*
X182741Y103329D01*
X182806Y103299D01*
X182870Y103276D01*
X182935Y103260D01*
X182999Y103251D01*
X183062Y103248D01*
X182185Y102371D01*
X182182Y102435D01*
X182173Y102498D01*
X182157Y102563D01*
X182134Y102627D01*
X182104Y102692D01*
X182068Y102757D01*
X182025Y102822D01*
X181975Y102888D01*
X181919Y102954D01*
X181855Y103021D01*
X182412Y103577D01*
X182479Y103514D01*
D02*
G37*
G36*
X171455D02*
X171521Y103458D01*
X171587Y103408D01*
X171652Y103365D01*
X171718Y103329D01*
X171782Y103299D01*
X171847Y103276D01*
X171911Y103260D01*
X171975Y103251D01*
X172038Y103248D01*
X171161Y102371D01*
X171159Y102435D01*
X171149Y102498D01*
X171133Y102563D01*
X171110Y102627D01*
X171081Y102692D01*
X171044Y102757D01*
X171001Y102822D01*
X170952Y102888D01*
X170895Y102954D01*
X170832Y103021D01*
X171389Y103577D01*
X171455Y103514D01*
D02*
G37*
G36*
X143979Y122067D02*
Y107543D01*
X144047Y107198D01*
X144243Y106905D01*
X148410Y102738D01*
X148430Y102685D01*
X148484Y102629D01*
X148521Y102586D01*
X148550Y102547D01*
X148573Y102512D01*
X148589Y102483D01*
X148600Y102459D01*
X148607Y102440D01*
X148610Y102426D01*
X148612Y102416D01*
X148614Y102380D01*
X148641Y102320D01*
X148733Y101856D01*
X149038Y101400D01*
X149184Y101303D01*
X149032Y100803D01*
X140023D01*
X139871Y101303D01*
X139970Y101369D01*
X140274Y101824D01*
X140381Y102362D01*
X140274Y102900D01*
X139970Y103356D01*
X139514Y103660D01*
X139050Y103753D01*
X138990Y103780D01*
X138954Y103782D01*
X138944Y103783D01*
X138930Y103787D01*
X138911Y103793D01*
X138887Y103805D01*
X138858Y103821D01*
X138823Y103843D01*
X138784Y103873D01*
X138741Y103910D01*
X138685Y103963D01*
X138632Y103984D01*
X134761Y107854D01*
Y122835D01*
X134693Y123180D01*
X134497Y123473D01*
X132208Y125762D01*
X132415Y126262D01*
X139783D01*
X143979Y122067D01*
D02*
G37*
G36*
X126133Y124952D02*
X126369Y124794D01*
X126404Y124538D01*
X126376Y124256D01*
X126195Y124181D01*
X125434Y123597D01*
X124850Y122837D01*
X124484Y121951D01*
X124358Y121000D01*
X124484Y120049D01*
X124850Y119163D01*
X125434Y118403D01*
X126195Y117819D01*
X127081Y117452D01*
X128032Y117327D01*
X128982Y117452D01*
X129868Y117819D01*
X130629Y118403D01*
X131212Y119163D01*
X131579Y120049D01*
X131705Y121000D01*
X131579Y121951D01*
X131212Y122837D01*
X130629Y123597D01*
X129868Y124181D01*
X129853Y124187D01*
X129952Y124687D01*
X130728D01*
X132955Y122460D01*
Y107480D01*
X133024Y107135D01*
X133220Y106842D01*
X137355Y102707D01*
X137375Y102654D01*
X137429Y102597D01*
X137466Y102554D01*
X137495Y102515D01*
X137518Y102481D01*
X137534Y102451D01*
X137545Y102427D01*
X137552Y102408D01*
X137555Y102394D01*
X137557Y102384D01*
X137558Y102348D01*
X137586Y102289D01*
X137678Y101824D01*
X137983Y101369D01*
X138082Y101303D01*
X137930Y100803D01*
X128999D01*
X128848Y101303D01*
X128946Y101369D01*
X129251Y101824D01*
X129358Y102362D01*
X129251Y102900D01*
X128946Y103356D01*
X128490Y103660D01*
X127953Y103767D01*
X127846Y103746D01*
X121376Y110217D01*
Y129002D01*
X121876Y129209D01*
X126133Y124952D01*
D02*
G37*
G36*
X165632Y124429D02*
Y107874D01*
X165701Y107528D01*
X165897Y107235D01*
X170426Y102707D01*
X170446Y102654D01*
X170499Y102597D01*
X170536Y102554D01*
X170566Y102515D01*
X170589Y102481D01*
X170605Y102451D01*
X170616Y102427D01*
X170623Y102408D01*
X170626Y102394D01*
X170628Y102384D01*
X170629Y102348D01*
X170657Y102289D01*
X170749Y101824D01*
X171054Y101369D01*
X171152Y101303D01*
X171001Y100803D01*
X162070D01*
X161918Y101303D01*
X162017Y101369D01*
X162322Y101824D01*
X162429Y102362D01*
X162322Y102900D01*
X162017Y103356D01*
X161561Y103660D01*
X161097Y103753D01*
X161038Y103780D01*
X161002Y103782D01*
X160992Y103783D01*
X160978Y103787D01*
X160959Y103793D01*
X160934Y103805D01*
X160905Y103821D01*
X160871Y103843D01*
X160831Y103873D01*
X160789Y103910D01*
X160732Y103963D01*
X160679Y103984D01*
X156415Y108248D01*
Y123228D01*
X156346Y123574D01*
X156150Y123867D01*
X151106Y128912D01*
X151313Y129412D01*
X160650D01*
X165632Y124429D01*
D02*
G37*
G36*
X154609Y122854D02*
Y107874D01*
X154677Y107528D01*
X154873Y107235D01*
X159402Y102707D01*
X159423Y102654D01*
X159476Y102597D01*
X159513Y102554D01*
X159542Y102515D01*
X159565Y102481D01*
X159581Y102451D01*
X159592Y102427D01*
X159599Y102408D01*
X159603Y102394D01*
X159604Y102384D01*
X159606Y102348D01*
X159633Y102289D01*
X159726Y101824D01*
X160030Y101369D01*
X160129Y101303D01*
X159977Y100803D01*
X151031D01*
X150879Y101303D01*
X151025Y101400D01*
X151330Y101856D01*
X151436Y102394D01*
X151330Y102931D01*
X151025Y103387D01*
X150569Y103692D01*
X150105Y103784D01*
X150046Y103812D01*
X150010Y103813D01*
X149999Y103815D01*
X149985Y103818D01*
X149967Y103825D01*
X149942Y103836D01*
X149913Y103852D01*
X149879Y103875D01*
X149839Y103905D01*
X149796Y103941D01*
X149740Y103995D01*
X149687Y104015D01*
X145785Y107917D01*
Y122441D01*
X145716Y122787D01*
X145520Y123080D01*
X141263Y127337D01*
X141470Y127837D01*
X149626D01*
X154609Y122854D01*
D02*
G37*
G36*
X153042Y136502D02*
X153094Y136464D01*
X153150Y136430D01*
X153212Y136400D01*
X153279Y136375D01*
X153351Y136355D01*
X153427Y136339D01*
X153509Y136328D01*
X153596Y136321D01*
X153687Y136319D01*
Y135531D01*
X153596Y135529D01*
X153509Y135522D01*
X153427Y135511D01*
X153351Y135495D01*
X153279Y135475D01*
X153212Y135450D01*
X153150Y135421D01*
X153094Y135387D01*
X153042Y135348D01*
X152995Y135305D01*
Y136545D01*
X153042Y136502D01*
D02*
G37*
G36*
X156225Y135138D02*
X156217Y135213D01*
X156193Y135280D01*
X156153Y135339D01*
X156097Y135390D01*
X156025Y135433D01*
X155937Y135468D01*
X155833Y135496D01*
X155713Y135516D01*
X155577Y135528D01*
X155425Y135531D01*
Y136319D01*
X155577Y136323D01*
X155713Y136335D01*
X155833Y136354D01*
X155937Y136382D01*
X156025Y136417D01*
X156097Y136461D01*
X156153Y136512D01*
X156193Y136571D01*
X156217Y136638D01*
X156225Y136713D01*
Y135138D01*
D02*
G37*
G36*
X163242Y136602D02*
X163093Y136448D01*
X162858Y136169D01*
X162770Y136044D01*
X162703Y135927D01*
X162656Y135821D01*
X162630Y135724D01*
X162624Y135636D01*
X162638Y135557D01*
X162673Y135489D01*
X161768Y136787D01*
X161820Y136735D01*
X161884Y136707D01*
X161962Y136703D01*
X162054Y136724D01*
X162158Y136769D01*
X162276Y136838D01*
X162408Y136931D01*
X162552Y137048D01*
X162882Y137356D01*
X163242Y136602D01*
D02*
G37*
G36*
X159845Y137437D02*
X159868Y137185D01*
X159872Y137163D01*
X160069D01*
X160026Y137116D01*
X159987Y137064D01*
X159953Y137007D01*
X159930Y136958D01*
X159944Y136925D01*
X159981Y136870D01*
X160024Y136830D01*
X160072Y136807D01*
X160126Y136799D01*
X159877D01*
X159863Y136730D01*
X159852Y136648D01*
X159845Y136562D01*
X159843Y136470D01*
X159055D01*
X159053Y136562D01*
X159046Y136648D01*
X159035Y136730D01*
X159020Y136799D01*
X158772D01*
X158826Y136807D01*
X158874Y136830D01*
X158916Y136870D01*
X158953Y136925D01*
X158968Y136958D01*
X158944Y137007D01*
X158910Y137064D01*
X158872Y137116D01*
X158829Y137163D01*
X159025D01*
X159030Y137185D01*
X159044Y137303D01*
X159052Y137437D01*
X159055Y137586D01*
X159843D01*
X159845Y137437D01*
D02*
G37*
G36*
X191341Y118556D02*
X191348Y118470D01*
X191359Y118388D01*
X191375Y118311D01*
X191395Y118239D01*
X191420Y118173D01*
X191449Y118111D01*
X191483Y118054D01*
X191522Y118002D01*
X191565Y117955D01*
X190325D01*
X190368Y118002D01*
X190406Y118054D01*
X190440Y118111D01*
X190470Y118173D01*
X190495Y118239D01*
X190515Y118311D01*
X190531Y118388D01*
X190542Y118470D01*
X190549Y118556D01*
X190551Y118648D01*
X191339D01*
X191341Y118556D01*
D02*
G37*
G36*
X149439Y103546D02*
X149505Y103489D01*
X149571Y103440D01*
X149637Y103397D01*
X149702Y103360D01*
X149767Y103331D01*
X149831Y103308D01*
X149895Y103292D01*
X149959Y103282D01*
X150023Y103279D01*
X149146Y102403D01*
X149143Y102466D01*
X149134Y102530D01*
X149117Y102594D01*
X149094Y102659D01*
X149065Y102724D01*
X149029Y102789D01*
X148986Y102854D01*
X148936Y102920D01*
X148879Y102986D01*
X148816Y103052D01*
X149373Y103609D01*
X149439Y103546D01*
D02*
G37*
G36*
X178893Y135104D02*
X178263Y134088D01*
X178249Y134138D01*
X178226Y134182D01*
X178194Y134222D01*
X178153Y134256D01*
X178103Y134285D01*
X178045Y134308D01*
X177977Y134327D01*
X177901Y134340D01*
X177816Y134348D01*
X177722Y134350D01*
X177866Y135138D01*
X178893Y135104D01*
D02*
G37*
G36*
X173422Y124907D02*
X173139Y124483D01*
X172982Y124548D01*
X172031Y124673D01*
X171081Y124548D01*
X170195Y124181D01*
X169434Y123597D01*
X168851Y122837D01*
X168483Y121951D01*
X168358Y121000D01*
X168483Y120049D01*
X168851Y119163D01*
X169434Y118403D01*
X170195Y117819D01*
X171081Y117452D01*
X172031Y117327D01*
X172982Y117452D01*
X173868Y117819D01*
X174629Y118403D01*
X175213Y119163D01*
X175580Y120049D01*
X175705Y121000D01*
X175580Y121951D01*
X175515Y122107D01*
X175938Y122390D01*
X176656Y121673D01*
Y107874D01*
X176725Y107528D01*
X176920Y107235D01*
X181449Y102707D01*
X181470Y102654D01*
X181523Y102597D01*
X181560Y102554D01*
X181590Y102515D01*
X181612Y102481D01*
X181629Y102451D01*
X181640Y102427D01*
X181646Y102408D01*
X181650Y102394D01*
X181651Y102384D01*
X181653Y102348D01*
X181681Y102289D01*
X181773Y101824D01*
X182077Y101369D01*
X182176Y101303D01*
X182025Y100803D01*
X173094D01*
X172942Y101303D01*
X173041Y101369D01*
X173345Y101824D01*
X173452Y102362D01*
X173345Y102900D01*
X173041Y103356D01*
X172585Y103660D01*
X172120Y103753D01*
X172061Y103780D01*
X172025Y103782D01*
X172015Y103783D01*
X172001Y103787D01*
X171982Y103793D01*
X171958Y103805D01*
X171929Y103821D01*
X171894Y103843D01*
X171855Y103873D01*
X171812Y103910D01*
X171756Y103963D01*
X171703Y103984D01*
X167439Y108248D01*
Y124803D01*
X167370Y125149D01*
X167174Y125442D01*
X162129Y130487D01*
X162336Y130987D01*
X167342D01*
X173422Y124907D01*
D02*
G37*
G36*
X150220Y156299D02*
X150183Y156242D01*
X150173Y156168D01*
X150189Y156080D01*
X150232Y155976D01*
X150301Y155857D01*
X150393Y155727D01*
X150458Y155691D01*
X150522Y155661D01*
X150587Y155639D01*
X150651Y155622D01*
X150715Y155613D01*
X150778Y155610D01*
X150626Y155457D01*
X150840Y155228D01*
X150069Y154885D01*
X150062Y154893D01*
X149902Y154733D01*
X149899Y154797D01*
X149890Y154861D01*
X149873Y154925D01*
X149850Y154989D01*
X149821Y155054D01*
X149785Y155119D01*
X149741Y155185D01*
X149734Y155194D01*
X149367Y155512D01*
X149258Y155587D01*
X149160Y155646D01*
X149073Y155687D01*
X148996Y155712D01*
X148929Y155721D01*
X150283Y156342D01*
X150220Y156299D01*
D02*
G37*
G36*
X131637Y155733D02*
X131595Y155793D01*
X131537Y155828D01*
X131464Y155837D01*
X131375Y155819D01*
X131272Y155775D01*
X131152Y155705D01*
X131018Y155609D01*
X130869Y155487D01*
X130524Y155164D01*
X130361Y156114D01*
X130500Y156259D01*
X130724Y156527D01*
X130809Y156650D01*
X130875Y156765D01*
X130922Y156872D01*
X130952Y156972D01*
X130963Y157065D01*
X130955Y157150D01*
X130930Y157228D01*
X131637Y155733D01*
D02*
G37*
G36*
X199197Y100803D02*
X184117D01*
X183966Y101303D01*
X184064Y101369D01*
X184369Y101824D01*
X184476Y102362D01*
X184369Y102900D01*
X184064Y103356D01*
X183608Y103660D01*
X183144Y103753D01*
X183085Y103780D01*
X183049Y103782D01*
X183039Y103783D01*
X183025Y103787D01*
X183006Y103793D01*
X182982Y103805D01*
X182952Y103821D01*
X182918Y103843D01*
X182879Y103873D01*
X182836Y103910D01*
X182780Y103963D01*
X182727Y103984D01*
X178462Y108248D01*
Y122047D01*
X178393Y122393D01*
X178198Y122686D01*
X175110Y125774D01*
X175139Y125937D01*
X175329Y126262D01*
X184665D01*
X190042Y120886D01*
Y118713D01*
X190019Y118661D01*
X190017Y118584D01*
X190012Y118527D01*
X190006Y118479D01*
X189997Y118438D01*
X189988Y118406D01*
X189979Y118381D01*
X189970Y118363D01*
X189963Y118350D01*
X189957Y118342D01*
X189932Y118316D01*
X189910Y118254D01*
X189647Y117860D01*
X189540Y117323D01*
X189647Y116785D01*
X189951Y116329D01*
X190407Y116025D01*
X190945Y115918D01*
X191482Y116025D01*
X191938Y116329D01*
X192243Y116785D01*
X192350Y117323D01*
X192243Y117860D01*
X191980Y118254D01*
X191957Y118316D01*
X191933Y118342D01*
X191927Y118350D01*
X191920Y118363D01*
X191911Y118381D01*
X191902Y118406D01*
X191893Y118438D01*
X191884Y118479D01*
X191877Y118527D01*
X191873Y118584D01*
X191871Y118661D01*
X191848Y118713D01*
Y121260D01*
X191779Y121606D01*
X191584Y121898D01*
X185678Y127804D01*
X185385Y128000D01*
X185039Y128068D01*
X175571D01*
X170261Y133379D01*
X170452Y133841D01*
X177604D01*
X177626Y133826D01*
X177836Y133714D01*
X178140Y133258D01*
X178596Y132954D01*
X179134Y132847D01*
X179672Y132954D01*
X180127Y133258D01*
X180432Y133714D01*
X180539Y134252D01*
X180432Y134790D01*
X180127Y135245D01*
X179672Y135550D01*
X179134Y135657D01*
X178947Y135620D01*
X178910Y135637D01*
X178653Y135645D01*
X178642Y135647D01*
X178586D01*
X177883Y135670D01*
X177822Y135647D01*
X169961D01*
X167568Y138040D01*
X167275Y138236D01*
X166929Y138305D01*
X163484D01*
X163139Y138236D01*
X162846Y138040D01*
X162570Y137765D01*
X162518Y137745D01*
X162202Y137450D01*
X162085Y137355D01*
X162012Y137303D01*
X161875D01*
X161862Y137311D01*
X161824Y137303D01*
X161811D01*
X161772Y137320D01*
X161731Y137303D01*
X161266D01*
X160854Y137795D01*
X160747Y138333D01*
X160442Y138789D01*
X159986Y139093D01*
X159711Y139148D01*
X159761Y139648D01*
X164567D01*
X164912Y139717D01*
X165206Y139912D01*
X169734Y144441D01*
X169787Y144462D01*
X169843Y144515D01*
X169886Y144552D01*
X169925Y144581D01*
X169960Y144604D01*
X169989Y144620D01*
X170014Y144632D01*
X170032Y144638D01*
X170046Y144642D01*
X170056Y144643D01*
X170092Y144645D01*
X170152Y144672D01*
X170616Y144765D01*
X171072Y145069D01*
X171376Y145525D01*
X171483Y146063D01*
X171376Y146600D01*
X171072Y147056D01*
X170616Y147361D01*
X170078Y147468D01*
X169541Y147361D01*
X169085Y147056D01*
X168780Y146600D01*
X168688Y146136D01*
X168660Y146077D01*
X168659Y146041D01*
X168657Y146031D01*
X168654Y146017D01*
X168647Y145998D01*
X168636Y145974D01*
X168620Y145944D01*
X168597Y145910D01*
X168568Y145871D01*
X168531Y145827D01*
X168477Y145771D01*
X168457Y145718D01*
X165132Y142394D01*
X164744Y142712D01*
X164979Y143065D01*
X165086Y143602D01*
X164979Y144140D01*
X164674Y144596D01*
X164219Y144900D01*
X163681Y145007D01*
X163678Y145007D01*
X163189Y144980D01*
X162812Y144994D01*
X162746Y144983D01*
X162685Y145009D01*
X162616Y144980D01*
X161305D01*
X160854Y145276D01*
X160814Y145475D01*
X160747Y145813D01*
X160442Y146269D01*
X159986Y146574D01*
X159449Y146680D01*
X158911Y146574D01*
X158455Y146269D01*
X158151Y145813D01*
X158083Y145475D01*
X158044Y145276D01*
X157593Y144980D01*
X155709D01*
X155628Y145447D01*
Y146870D01*
X160481Y151724D01*
X160677Y152017D01*
X160746Y152362D01*
Y165610D01*
X160677Y165956D01*
X160481Y166249D01*
X158464Y168267D01*
X158809Y169101D01*
X158927Y170000D01*
X158865Y170473D01*
X159339Y170706D01*
X160967Y169078D01*
X161390Y168795D01*
X161890Y168695D01*
X162265D01*
X162444Y168263D01*
X162996Y167543D01*
X163716Y166991D01*
X164553Y166644D01*
X165453Y166525D01*
X166352Y166644D01*
X167190Y166991D01*
X167910Y167543D01*
X168462Y168263D01*
X168809Y169101D01*
X168927Y170000D01*
X168809Y170899D01*
X168462Y171737D01*
X167910Y172457D01*
X167190Y173009D01*
X166352Y173356D01*
X166078Y173392D01*
X166111Y173892D01*
X168357D01*
X171136Y171113D01*
Y167528D01*
X166785Y163177D01*
X166352Y163356D01*
X165453Y163475D01*
X164553Y163356D01*
X163716Y163009D01*
X162996Y162457D01*
X162444Y161737D01*
X162097Y160899D01*
X161978Y160000D01*
X162097Y159101D01*
X162444Y158263D01*
X162996Y157543D01*
X163716Y156991D01*
X164553Y156644D01*
X165453Y156525D01*
X166352Y156644D01*
X167190Y156991D01*
X167910Y157543D01*
X168462Y158263D01*
X168641Y158695D01*
X182106D01*
X182606Y158795D01*
X183029Y159078D01*
X191572Y167621D01*
X192126Y167511D01*
X193086Y167702D01*
X193900Y168246D01*
X194444Y169060D01*
X194635Y170020D01*
X194444Y170980D01*
X193900Y171794D01*
X193229Y172242D01*
X193209Y172306D01*
Y172733D01*
X193229Y172798D01*
X193900Y173246D01*
X194444Y174060D01*
X194635Y175020D01*
X194444Y175980D01*
X193900Y176794D01*
X193229Y177242D01*
X193209Y177306D01*
Y177733D01*
X193229Y177797D01*
X193900Y178246D01*
X194444Y179060D01*
X194635Y180020D01*
X194444Y180980D01*
X193900Y181794D01*
X193229Y182242D01*
X193209Y182306D01*
Y182733D01*
X193229Y182798D01*
X193900Y183246D01*
X194444Y184060D01*
X194635Y185020D01*
X194444Y185980D01*
X193900Y186794D01*
X193229Y187242D01*
X193209Y187306D01*
Y187733D01*
X193229Y187797D01*
X193900Y188246D01*
X194444Y189060D01*
X194635Y190020D01*
X194444Y190980D01*
X193900Y191794D01*
X193086Y192338D01*
X192126Y192528D01*
X191166Y192338D01*
X190352Y191794D01*
X189904Y191123D01*
X189839Y191103D01*
X189413D01*
X189348Y191123D01*
X188900Y191794D01*
X188086Y192338D01*
X187126Y192528D01*
X186166Y192338D01*
X185352Y191794D01*
X184808Y190980D01*
X184617Y190020D01*
X184808Y189060D01*
X185352Y188246D01*
X185614Y188071D01*
X185536Y187521D01*
X185020Y187126D01*
X184547Y186509D01*
X184249Y185791D01*
X184225Y185610D01*
X187126D01*
Y184429D01*
X184225D01*
X184249Y184249D01*
X184547Y183531D01*
X185020Y182914D01*
X185208Y182770D01*
Y182270D01*
X185020Y182126D01*
X184547Y181509D01*
X184249Y180790D01*
X184225Y180610D01*
X187126D01*
Y179429D01*
X184225D01*
X184249Y179249D01*
X184547Y178531D01*
X185020Y177914D01*
X185536Y177518D01*
X185614Y176969D01*
X185352Y176794D01*
X184808Y175980D01*
X184617Y175020D01*
X184808Y174060D01*
X185352Y173246D01*
X185614Y173071D01*
X185536Y172521D01*
X185020Y172126D01*
X184547Y171509D01*
X184249Y170791D01*
X184225Y170610D01*
X187126D01*
Y169429D01*
X184225D01*
X184249Y169249D01*
X184547Y168531D01*
X185020Y167914D01*
X185637Y167440D01*
X186355Y167143D01*
X186657Y167103D01*
X186837Y166575D01*
X181566Y161305D01*
X169309D01*
X169102Y161805D01*
X173363Y166066D01*
X173646Y166489D01*
X173746Y166988D01*
Y171653D01*
X173646Y172153D01*
X173363Y172576D01*
X169820Y176119D01*
X169397Y176402D01*
X168898Y176501D01*
X167315D01*
X167199Y176957D01*
X167204Y177001D01*
X167910Y177543D01*
X168462Y178263D01*
X168809Y179101D01*
X168927Y180000D01*
X168809Y180899D01*
X168630Y181332D01*
X183434Y196136D01*
X191142D01*
X191641Y196236D01*
X192064Y196519D01*
X194267Y198721D01*
X194694Y199006D01*
X194999Y199462D01*
X195106Y200000D01*
X194999Y200538D01*
X194694Y200993D01*
X194238Y201298D01*
X193701Y201405D01*
X193163Y201298D01*
X192707Y200993D01*
X192422Y200566D01*
X192232Y200377D01*
X191829Y200499D01*
X191725Y200576D01*
X191446Y200993D01*
X190990Y201298D01*
X190453Y201405D01*
X189948Y201305D01*
X175453D01*
X174953Y201205D01*
X174530Y200922D01*
X166785Y193177D01*
X166352Y193356D01*
X165453Y193475D01*
X164553Y193356D01*
X163716Y193009D01*
X162996Y192457D01*
X162444Y191737D01*
X162097Y190899D01*
X161978Y190000D01*
X162097Y189101D01*
X162444Y188263D01*
X162996Y187543D01*
X163716Y186991D01*
X164553Y186644D01*
X165453Y186525D01*
X166352Y186644D01*
X167190Y186991D01*
X167910Y187543D01*
X168462Y188263D01*
X168809Y189101D01*
X168927Y190000D01*
X168809Y190899D01*
X168630Y191332D01*
X175993Y198695D01*
X181596D01*
X181803Y198195D01*
X166785Y183177D01*
X166352Y183356D01*
X165453Y183475D01*
X164553Y183356D01*
X163716Y183009D01*
X162996Y182457D01*
X162444Y181737D01*
X162097Y180899D01*
X162041Y180476D01*
X161541Y180508D01*
Y183071D01*
X161442Y183570D01*
X161159Y183993D01*
X159190Y185962D01*
X158767Y186245D01*
X158268Y186344D01*
X157977D01*
X157807Y186844D01*
X158261Y187192D01*
X158892Y188014D01*
X159289Y188972D01*
X159346Y189409D01*
X151560D01*
X151617Y188972D01*
X152014Y188014D01*
X152645Y187192D01*
X153099Y186844D01*
X152929Y186344D01*
X148572D01*
X138993Y195923D01*
X138570Y196205D01*
X138071Y196305D01*
X119369D01*
X119190Y196737D01*
X118638Y197457D01*
X117918Y198009D01*
X117080Y198356D01*
X116181Y198475D01*
X115282Y198356D01*
X114444Y198009D01*
X113724Y197457D01*
X113172Y196737D01*
X112825Y195899D01*
X112706Y195000D01*
X112825Y194101D01*
X113172Y193263D01*
X113724Y192543D01*
X114444Y191991D01*
X115282Y191644D01*
X116181Y191525D01*
X117080Y191644D01*
X117918Y191991D01*
X118638Y192543D01*
X119190Y193263D01*
X119369Y193695D01*
X137531D01*
X147109Y184117D01*
X147532Y183834D01*
X148031Y183735D01*
X153032D01*
X153201Y183235D01*
X152645Y182808D01*
X152014Y181985D01*
X151617Y181028D01*
X151560Y180591D01*
X155453D01*
Y179409D01*
X151560D01*
X151617Y178972D01*
X152014Y178015D01*
X152645Y177192D01*
X153406Y176608D01*
X153393Y176391D01*
X153267Y176108D01*
X150540D01*
X140726Y185923D01*
X140302Y186205D01*
X139803Y186305D01*
X119369D01*
X119190Y186737D01*
X118638Y187457D01*
X117918Y188009D01*
X117080Y188356D01*
X116181Y188475D01*
X115282Y188356D01*
X114444Y188009D01*
X113724Y187457D01*
X113172Y186737D01*
X112825Y185899D01*
X112706Y185000D01*
X112825Y184101D01*
X113172Y183263D01*
X113724Y182543D01*
X114444Y181991D01*
X115282Y181644D01*
X116181Y181525D01*
X117080Y181644D01*
X117918Y181991D01*
X118638Y182543D01*
X119190Y183263D01*
X119369Y183695D01*
X139263D01*
X149077Y173881D01*
X149501Y173598D01*
X150000Y173499D01*
X153591D01*
X153707Y173043D01*
X153702Y172999D01*
X152996Y172457D01*
X152444Y171737D01*
X152097Y170899D01*
X151978Y170000D01*
X151986Y169941D01*
X151538Y169720D01*
X145619Y175639D01*
X145326Y175834D01*
X144980Y175903D01*
X119536D01*
X119190Y176737D01*
X118638Y177457D01*
X117918Y178009D01*
X117080Y178356D01*
X116181Y178475D01*
X115282Y178356D01*
X114444Y178009D01*
X113724Y177457D01*
X113172Y176737D01*
X112825Y175899D01*
X112706Y175000D01*
X112825Y174101D01*
X113172Y173263D01*
X113724Y172543D01*
X114444Y171991D01*
X115282Y171644D01*
X116181Y171525D01*
X117080Y171644D01*
X117918Y171991D01*
X118638Y172543D01*
X119190Y173263D01*
X119536Y174097D01*
X144606D01*
X150672Y168031D01*
Y165650D01*
X148728D01*
X148425Y165650D01*
X147925Y165650D01*
X146161D01*
Y166142D01*
X144980D01*
Y164272D01*
X143996D01*
Y166142D01*
X142815D01*
Y164745D01*
X142315Y164359D01*
X142126Y164397D01*
X141588Y164290D01*
X141132Y163986D01*
X140828Y163530D01*
X140721Y162992D01*
X140828Y162454D01*
X141132Y161999D01*
X141588Y161694D01*
X142126Y161587D01*
X142233Y161608D01*
X142275Y161566D01*
X142568Y161370D01*
X142913Y161302D01*
X145276D01*
X145621Y161370D01*
X145914Y161566D01*
X147242Y162894D01*
X148087Y162894D01*
X148336Y162449D01*
X148333Y162432D01*
X146646Y160746D01*
X141240D01*
Y161319D01*
X136713D01*
Y158669D01*
X136713Y158366D01*
X136713Y157866D01*
Y155520D01*
X136713Y155217D01*
X136713Y154717D01*
Y152067D01*
X136713D01*
Y151870D01*
X136713D01*
Y149213D01*
X136221D01*
Y147736D01*
X138976D01*
Y146752D01*
X136221D01*
Y145276D01*
Y144587D01*
X138976D01*
X141732D01*
Y146888D01*
X142194Y147080D01*
X142601Y146673D01*
Y142421D01*
X142669Y142076D01*
X142865Y141783D01*
X142913Y141735D01*
Y140453D01*
X145234Y140453D01*
X145267Y140452D01*
X145472Y140404D01*
X145729Y140340D01*
X145773Y140239D01*
X145819Y140009D01*
X146015Y139716D01*
X147829Y137902D01*
X147808Y137795D01*
X147915Y137258D01*
X148219Y136802D01*
X148675Y136497D01*
X149213Y136390D01*
X149750Y136497D01*
X150206Y136802D01*
X150511Y137258D01*
X150618Y137795D01*
X150511Y138333D01*
X150206Y138789D01*
X149750Y139093D01*
X149213Y139200D01*
X149124Y139182D01*
X148799Y139530D01*
X148978Y139961D01*
X150886D01*
Y141339D01*
X149213D01*
Y141831D01*
X148721D01*
Y143701D01*
X147539D01*
Y143209D01*
X145776D01*
X145473Y143209D01*
X144972Y143209D01*
X144407D01*
Y145370D01*
X144907Y145638D01*
X144930Y145622D01*
X145276Y145554D01*
X145621Y145622D01*
X145914Y145818D01*
X146110Y146111D01*
X146163Y146376D01*
X146201Y146429D01*
X146494Y146418D01*
X146676Y146338D01*
X146765Y146265D01*
X147038Y145857D01*
X147494Y145552D01*
X148031Y145445D01*
X148569Y145552D01*
X149025Y145857D01*
X149085Y145947D01*
X150787D01*
X151133Y146016D01*
X151426Y146212D01*
X153395Y148180D01*
X153590Y148473D01*
X153659Y148819D01*
Y155940D01*
X154159Y156274D01*
X154425Y156164D01*
X154862Y156107D01*
Y160000D01*
X156043D01*
Y156107D01*
X156481Y156164D01*
X157438Y156561D01*
X158261Y157192D01*
X158439Y157425D01*
X158939Y157255D01*
Y152736D01*
X154086Y147883D01*
X153890Y147590D01*
X153821Y147244D01*
Y142520D01*
X153890Y142174D01*
X154086Y141881D01*
X158065Y137902D01*
X158044Y137795D01*
X157632Y137303D01*
X155709D01*
Y136874D01*
X155647Y136864D01*
X155547Y136855D01*
X155412Y136851D01*
X155360Y136828D01*
X153752D01*
X153700Y136851D01*
X153623Y136853D01*
X153566Y136858D01*
X153518Y136864D01*
X153477Y136873D01*
X153445Y136882D01*
X153420Y136891D01*
X153402Y136900D01*
X153390Y136907D01*
X153382Y136913D01*
X153355Y136938D01*
X153294Y136960D01*
X152900Y137223D01*
X152362Y137330D01*
X151824Y137223D01*
X151369Y136919D01*
X151064Y136463D01*
X150957Y135925D01*
X151064Y135388D01*
X151369Y134932D01*
X151464Y134868D01*
X151313Y134368D01*
X131870D01*
X130824Y135414D01*
Y136319D01*
X134941D01*
Y139272D01*
X134941Y139272D01*
Y139469D01*
X134941D01*
X134941Y139772D01*
Y142421D01*
X134941Y142421D01*
Y142618D01*
X134941D01*
X134941Y142921D01*
Y145571D01*
X134941Y145571D01*
Y145768D01*
X134941D01*
X134941Y146071D01*
Y148721D01*
X134941Y148721D01*
Y148917D01*
X134941D01*
X134941Y149221D01*
Y151870D01*
X134941Y151870D01*
Y152067D01*
X134941D01*
X134941Y152370D01*
Y155020D01*
X134941Y155020D01*
Y155217D01*
X134941D01*
X134941Y155520D01*
Y158169D01*
X134941Y158169D01*
Y158366D01*
X134941D01*
X134941Y158669D01*
Y161319D01*
X130413D01*
Y160037D01*
X119834Y149458D01*
X119638Y149164D01*
X119569Y148819D01*
Y147065D01*
X119069Y146895D01*
X118638Y147457D01*
X117918Y148009D01*
X117080Y148356D01*
X116181Y148475D01*
X115282Y148356D01*
X114444Y148009D01*
X113724Y147457D01*
X113172Y146737D01*
X112825Y145899D01*
X112706Y145000D01*
X112825Y144101D01*
X113172Y143263D01*
X113724Y142543D01*
X114444Y141991D01*
X115282Y141644D01*
X116181Y141525D01*
X117080Y141644D01*
X117918Y141991D01*
X118638Y142543D01*
X119069Y143105D01*
X119569Y142935D01*
Y137065D01*
X119069Y136895D01*
X118638Y137457D01*
X117918Y138009D01*
X117080Y138356D01*
X116181Y138475D01*
X115282Y138356D01*
X114444Y138009D01*
X113724Y137457D01*
X113172Y136737D01*
X112825Y135899D01*
X112706Y135000D01*
X112825Y134101D01*
X113172Y133263D01*
X113724Y132543D01*
X114444Y131991D01*
X115282Y131644D01*
X116181Y131525D01*
X117080Y131644D01*
X117918Y131991D01*
X118638Y132543D01*
X119069Y133105D01*
X119569Y132935D01*
Y127065D01*
X119069Y126895D01*
X118638Y127457D01*
X117918Y128009D01*
X117080Y128356D01*
X116181Y128475D01*
X115282Y128356D01*
X114444Y128009D01*
X113724Y127457D01*
X113172Y126737D01*
X112825Y125899D01*
X112706Y125000D01*
X112825Y124101D01*
X113172Y123263D01*
X113724Y122543D01*
X114444Y121991D01*
X115282Y121644D01*
X116181Y121525D01*
X117080Y121644D01*
X117918Y121991D01*
X118638Y122543D01*
X119069Y123105D01*
X119569Y122935D01*
Y117065D01*
X119069Y116895D01*
X118638Y117457D01*
X117918Y118009D01*
X117080Y118356D01*
X116181Y118475D01*
X115282Y118356D01*
X114444Y118009D01*
X113724Y117457D01*
X113172Y116737D01*
X112825Y115899D01*
X112706Y115000D01*
X112825Y114101D01*
X113172Y113263D01*
X113724Y112543D01*
X114444Y111991D01*
X115282Y111644D01*
X116181Y111525D01*
X117080Y111644D01*
X117918Y111991D01*
X118638Y112543D01*
X119069Y113105D01*
X119569Y112935D01*
Y109843D01*
X119638Y109497D01*
X119834Y109204D01*
X126569Y102469D01*
X126548Y102362D01*
X126655Y101824D01*
X126959Y101369D01*
X127058Y101303D01*
X126906Y100803D01*
X100803D01*
Y219197D01*
X199197D01*
Y100803D01*
D02*
G37*
G36*
X143823Y155905D02*
X143815Y155980D01*
X143790Y156047D01*
X143750Y156106D01*
X143694Y156158D01*
X143622Y156201D01*
X143534Y156236D01*
X143430Y156264D01*
X143311Y156283D01*
X143175Y156295D01*
X143024Y156299D01*
Y157087D01*
X143173Y157090D01*
X143307Y157102D01*
X143425Y157121D01*
X143528Y157148D01*
X143614Y157182D01*
X143685Y157224D01*
X143740Y157274D01*
X143780Y157331D01*
X143803Y157396D01*
X143811Y157468D01*
X143823Y155905D01*
D02*
G37*
G36*
X140744Y157405D02*
X140768Y157339D01*
X140807Y157280D01*
X140862Y157228D01*
X140933Y157185D01*
X141019Y157150D01*
X141122Y157122D01*
X141240Y157102D01*
X141374Y157091D01*
X141523Y157087D01*
Y156299D01*
X141374Y156295D01*
X141240Y156283D01*
X141122Y156264D01*
X141019Y156236D01*
X140933Y156201D01*
X140862Y156158D01*
X140807Y156106D01*
X140768Y156047D01*
X140744Y155980D01*
X140736Y155905D01*
Y157480D01*
X140744Y157405D01*
D02*
G37*
G36*
X150230Y163390D02*
X150181Y163366D01*
X150139Y163327D01*
X150102Y163272D01*
X150071Y163201D01*
X150045Y163114D01*
X150025Y163012D01*
X150011Y162894D01*
X150003Y162760D01*
X150000Y162610D01*
X149213D01*
X149210Y162760D01*
X149187Y163012D01*
X149167Y163114D01*
X149142Y163201D01*
X149111Y163272D01*
X149074Y163327D01*
X149031Y163366D01*
X148983Y163390D01*
X148929Y163398D01*
X150283D01*
X150230Y163390D01*
D02*
G37*
G36*
X147443Y155761D02*
X147446Y155721D01*
X147724D01*
X147670Y155713D01*
X147622Y155689D01*
X147580Y155650D01*
X147543Y155595D01*
X147512Y155524D01*
X147493Y155460D01*
X147497Y155444D01*
X147522Y155377D01*
X147552Y155316D01*
X147586Y155259D01*
X147624Y155207D01*
X147667Y155160D01*
X147449D01*
X147444Y155083D01*
X147441Y154933D01*
X146653D01*
X146651Y155083D01*
X146644Y155160D01*
X146427D01*
X146470Y155207D01*
X146509Y155259D01*
X146543Y155316D01*
X146572Y155377D01*
X146597Y155444D01*
X146601Y155460D01*
X146583Y155524D01*
X146552Y155595D01*
X146515Y155650D01*
X146472Y155689D01*
X146424Y155713D01*
X146370Y155721D01*
X146648D01*
X146651Y155761D01*
X146653Y155853D01*
X147441D01*
X147443Y155761D01*
D02*
G37*
%LPC*%
G36*
X139032Y124673D02*
X138081Y124548D01*
X137195Y124181D01*
X136434Y123597D01*
X135851Y122837D01*
X135484Y121951D01*
X135358Y121000D01*
X135484Y120049D01*
X135851Y119163D01*
X136434Y118403D01*
X137195Y117819D01*
X138081Y117452D01*
X139032Y117327D01*
X139982Y117452D01*
X140868Y117819D01*
X141629Y118403D01*
X142212Y119163D01*
X142579Y120049D01*
X142705Y121000D01*
X142579Y121951D01*
X142212Y122837D01*
X141629Y123597D01*
X140868Y124181D01*
X139982Y124548D01*
X139032Y124673D01*
D02*
G37*
G36*
X161031D02*
X160081Y124548D01*
X159195Y124181D01*
X158434Y123597D01*
X157851Y122837D01*
X157483Y121951D01*
X157358Y121000D01*
X157483Y120049D01*
X157851Y119163D01*
X158434Y118403D01*
X159195Y117819D01*
X160081Y117452D01*
X161031Y117327D01*
X161982Y117452D01*
X162868Y117819D01*
X163629Y118403D01*
X164213Y119163D01*
X164579Y120049D01*
X164705Y121000D01*
X164579Y121951D01*
X164213Y122837D01*
X163629Y123597D01*
X162868Y124181D01*
X161982Y124548D01*
X161031Y124673D01*
D02*
G37*
G36*
X150031D02*
X149081Y124548D01*
X148195Y124181D01*
X147434Y123597D01*
X146851Y122837D01*
X146484Y121951D01*
X146358Y121000D01*
X146484Y120049D01*
X146851Y119163D01*
X147434Y118403D01*
X148195Y117819D01*
X149081Y117452D01*
X150031Y117327D01*
X150982Y117452D01*
X151868Y117819D01*
X152629Y118403D01*
X153212Y119163D01*
X153579Y120049D01*
X153705Y121000D01*
X153579Y121951D01*
X153212Y122837D01*
X152629Y123597D01*
X151868Y124181D01*
X150982Y124548D01*
X150031Y124673D01*
D02*
G37*
G36*
X106772Y118893D02*
Y115591D01*
X110074D01*
X110017Y116028D01*
X109620Y116985D01*
X108989Y117808D01*
X108167Y118439D01*
X107209Y118836D01*
X106772Y118893D01*
D02*
G37*
G36*
X105591D02*
X105153Y118836D01*
X104196Y118439D01*
X103373Y117808D01*
X102742Y116985D01*
X102345Y116028D01*
X102288Y115591D01*
X105591D01*
Y118893D01*
D02*
G37*
G36*
X183031Y124673D02*
X182081Y124548D01*
X181195Y124181D01*
X180434Y123597D01*
X179850Y122837D01*
X179483Y121951D01*
X179358Y121000D01*
X179483Y120049D01*
X179850Y119163D01*
X180434Y118403D01*
X181195Y117819D01*
X182081Y117452D01*
X183031Y117327D01*
X183982Y117452D01*
X184868Y117819D01*
X185629Y118403D01*
X186213Y119163D01*
X186580Y120049D01*
X186705Y121000D01*
X186580Y121951D01*
X186213Y122837D01*
X185629Y123597D01*
X184868Y124181D01*
X183982Y124548D01*
X183031Y124673D01*
D02*
G37*
G36*
X105591Y128893D02*
X105153Y128836D01*
X104196Y128439D01*
X103373Y127808D01*
X102742Y126986D01*
X102345Y126028D01*
X102288Y125591D01*
X105591D01*
Y128893D01*
D02*
G37*
G36*
X106772D02*
Y125591D01*
X110074D01*
X110017Y126028D01*
X109620Y126986D01*
X108989Y127808D01*
X108167Y128439D01*
X107209Y128836D01*
X106772Y128893D01*
D02*
G37*
G36*
X194421Y134854D02*
X193471Y134729D01*
X192585Y134362D01*
X191824Y133778D01*
X191240Y133018D01*
X190873Y132132D01*
X190748Y131181D01*
X190873Y130230D01*
X191240Y129344D01*
X191824Y128584D01*
X192585Y128000D01*
X193471Y127633D01*
X194421Y127508D01*
X195372Y127633D01*
X196258Y128000D01*
X197019Y128584D01*
X197602Y129344D01*
X197969Y130230D01*
X198094Y131181D01*
X197969Y132132D01*
X197602Y133018D01*
X197019Y133778D01*
X196258Y134362D01*
X195372Y134729D01*
X194421Y134854D01*
D02*
G37*
G36*
X105591Y188893D02*
X105153Y188836D01*
X104196Y188439D01*
X103373Y187808D01*
X102742Y186986D01*
X102345Y186028D01*
X102288Y185591D01*
X105591D01*
Y188893D01*
D02*
G37*
G36*
X106772D02*
Y185591D01*
X110074D01*
X110017Y186028D01*
X109620Y186986D01*
X108989Y187808D01*
X108167Y188439D01*
X107209Y188836D01*
X106772Y188893D01*
D02*
G37*
G36*
X105591Y124409D02*
X102288D01*
X102345Y123972D01*
X102742Y123014D01*
X103373Y122192D01*
X104196Y121561D01*
X105153Y121164D01*
X105591Y121107D01*
Y124409D01*
D02*
G37*
G36*
X110074D02*
X106772D01*
Y121107D01*
X107209Y121164D01*
X108167Y121561D01*
X108989Y122192D01*
X109620Y123014D01*
X110017Y123972D01*
X110074Y124409D01*
D02*
G37*
G36*
X195012Y115273D02*
Y111772D01*
X198513D01*
X198449Y112260D01*
X198032Y113266D01*
X197370Y114129D01*
X196506Y114792D01*
X195500Y115208D01*
X195012Y115273D01*
D02*
G37*
G36*
X105591Y198893D02*
X105153Y198836D01*
X104196Y198439D01*
X103373Y197808D01*
X102742Y196985D01*
X102345Y196028D01*
X102288Y195591D01*
X105591D01*
Y198893D01*
D02*
G37*
G36*
X110074Y194409D02*
X106772D01*
Y191107D01*
X107209Y191164D01*
X108167Y191561D01*
X108989Y192192D01*
X109620Y193015D01*
X110017Y193972D01*
X110074Y194409D01*
D02*
G37*
G36*
X105591D02*
X102288D01*
X102345Y193972D01*
X102742Y193015D01*
X103373Y192192D01*
X104196Y191561D01*
X105153Y191164D01*
X105591Y191107D01*
Y194409D01*
D02*
G37*
G36*
X106772Y198893D02*
Y195591D01*
X110074D01*
X110017Y196028D01*
X109620Y196985D01*
X108989Y197808D01*
X108167Y198439D01*
X107209Y198836D01*
X106772Y198893D01*
D02*
G37*
G36*
X106181Y208475D02*
X105282Y208356D01*
X104444Y208009D01*
X103724Y207457D01*
X103172Y206737D01*
X102825Y205899D01*
X102707Y205000D01*
X102825Y204101D01*
X103172Y203263D01*
X103724Y202543D01*
X104444Y201991D01*
X105282Y201644D01*
X106181Y201525D01*
X107080Y201644D01*
X107918Y201991D01*
X108638Y202543D01*
X109190Y203263D01*
X109537Y204101D01*
X109656Y205000D01*
X109537Y205899D01*
X109190Y206737D01*
X108638Y207457D01*
X107918Y208009D01*
X107080Y208356D01*
X106181Y208475D01*
D02*
G37*
G36*
X119626Y208445D02*
X112736D01*
Y201555D01*
X119626D01*
Y203695D01*
X149912D01*
X152008Y201600D01*
Y196555D01*
X158898D01*
Y203445D01*
X153853D01*
X151375Y205923D01*
X150952Y206205D01*
X150453Y206305D01*
X119626D01*
Y208445D01*
D02*
G37*
G36*
X165453Y203475D02*
X164553Y203356D01*
X163716Y203009D01*
X162996Y202457D01*
X162444Y201737D01*
X162097Y200899D01*
X161978Y200000D01*
X162097Y199101D01*
X162444Y198263D01*
X162996Y197543D01*
X163716Y196991D01*
X164553Y196644D01*
X165453Y196525D01*
X166352Y196644D01*
X167190Y196991D01*
X167910Y197543D01*
X168462Y198263D01*
X168809Y199101D01*
X168927Y200000D01*
X168809Y200899D01*
X168462Y201737D01*
X167910Y202457D01*
X167190Y203009D01*
X166352Y203356D01*
X165453Y203475D01*
D02*
G37*
G36*
X105591Y114409D02*
X102288D01*
X102345Y113972D01*
X102742Y113014D01*
X103373Y112192D01*
X104196Y111561D01*
X105153Y111164D01*
X105591Y111107D01*
Y114409D01*
D02*
G37*
G36*
X110074D02*
X106772D01*
Y111107D01*
X107209Y111164D01*
X108167Y111561D01*
X108989Y112192D01*
X109620Y113014D01*
X110017Y113972D01*
X110074Y114409D01*
D02*
G37*
G36*
X193831Y115273D02*
X193342Y115208D01*
X192336Y114792D01*
X191473Y114129D01*
X190810Y113266D01*
X190394Y112260D01*
X190330Y111772D01*
X193831D01*
Y115273D01*
D02*
G37*
G36*
X198513Y110591D02*
X195012D01*
Y107089D01*
X195500Y107154D01*
X196506Y107570D01*
X197370Y108233D01*
X198032Y109096D01*
X198449Y110102D01*
X198513Y110591D01*
D02*
G37*
G36*
X156043Y193893D02*
Y190591D01*
X159346D01*
X159289Y191028D01*
X158892Y191985D01*
X158261Y192808D01*
X157438Y193439D01*
X156481Y193836D01*
X156043Y193893D01*
D02*
G37*
G36*
X154862D02*
X154425Y193836D01*
X153467Y193439D01*
X152645Y192808D01*
X152014Y191985D01*
X151617Y191028D01*
X151560Y190591D01*
X154862D01*
Y193893D01*
D02*
G37*
G36*
X193831Y110591D02*
X190330D01*
X190394Y110102D01*
X190810Y109096D01*
X191473Y108233D01*
X192336Y107570D01*
X193342Y107154D01*
X193831Y107089D01*
Y110591D01*
D02*
G37*
G36*
X105591Y134409D02*
X102288D01*
X102345Y133972D01*
X102742Y133015D01*
X103373Y132192D01*
X104196Y131561D01*
X105153Y131164D01*
X105591Y131107D01*
Y134409D01*
D02*
G37*
G36*
X116181Y168475D02*
X115282Y168356D01*
X114444Y168009D01*
X113724Y167457D01*
X113172Y166737D01*
X112825Y165899D01*
X112706Y165000D01*
X112825Y164101D01*
X113172Y163263D01*
X113724Y162543D01*
X114444Y161991D01*
X115282Y161644D01*
X116181Y161525D01*
X117080Y161644D01*
X117362Y161760D01*
X117459Y161758D01*
X119948Y162702D01*
X120345Y162828D01*
X120437Y162850D01*
X120494Y162858D01*
X120527Y162876D01*
X134043D01*
X134095Y162853D01*
X134172Y162851D01*
X134229Y162847D01*
X134277Y162840D01*
X134318Y162832D01*
X134350Y162823D01*
X134375Y162813D01*
X134393Y162805D01*
X134406Y162797D01*
X134414Y162791D01*
X134440Y162767D01*
X134502Y162745D01*
X134895Y162481D01*
X135433Y162375D01*
X135971Y162481D01*
X136426Y162786D01*
X136731Y163242D01*
X136838Y163779D01*
X136731Y164317D01*
X136426Y164773D01*
X135971Y165077D01*
X135433Y165184D01*
X134895Y165077D01*
X134502Y164814D01*
X134440Y164792D01*
X134414Y164768D01*
X134406Y164762D01*
X134393Y164754D01*
X134375Y164746D01*
X134350Y164736D01*
X134318Y164727D01*
X134277Y164719D01*
X134229Y164712D01*
X134172Y164708D01*
X134095Y164706D01*
X134043Y164683D01*
X120872D01*
X120830Y164704D01*
X120647Y164719D01*
X120516Y164752D01*
X120389Y164808D01*
X120259Y164893D01*
X120125Y165010D01*
X119989Y165165D01*
X119851Y165360D01*
X119715Y165597D01*
X119583Y165875D01*
X119451Y166207D01*
X119379Y166280D01*
X119190Y166737D01*
X118638Y167457D01*
X117918Y168009D01*
X117080Y168356D01*
X116181Y168475D01*
D02*
G37*
G36*
X105591Y148893D02*
X105153Y148836D01*
X104196Y148439D01*
X103373Y147808D01*
X102742Y146985D01*
X102345Y146028D01*
X102288Y145591D01*
X105591D01*
Y148893D01*
D02*
G37*
G36*
X106772D02*
Y145591D01*
X110074D01*
X110017Y146028D01*
X109620Y146985D01*
X108989Y147808D01*
X108167Y148439D01*
X107209Y148836D01*
X106772Y148893D01*
D02*
G37*
G36*
Y168893D02*
Y165591D01*
X110074D01*
X110017Y166028D01*
X109620Y166985D01*
X108989Y167808D01*
X108167Y168439D01*
X107209Y168836D01*
X106772Y168893D01*
D02*
G37*
G36*
X150886Y143701D02*
X149705D01*
Y142323D01*
X150886D01*
Y143701D01*
D02*
G37*
G36*
X105591Y168893D02*
X105153Y168836D01*
X104196Y168439D01*
X103373Y167808D01*
X102742Y166985D01*
X102345Y166028D01*
X102288Y165591D01*
X105591D01*
Y168893D01*
D02*
G37*
G36*
X110074Y164409D02*
X106772D01*
Y161107D01*
X107209Y161164D01*
X108167Y161561D01*
X108989Y162192D01*
X109620Y163014D01*
X110017Y163972D01*
X110074Y164409D01*
D02*
G37*
G36*
X105591Y154409D02*
X102288D01*
X102345Y153972D01*
X102742Y153015D01*
X103373Y152192D01*
X104196Y151561D01*
X105153Y151164D01*
X105591Y151107D01*
Y154409D01*
D02*
G37*
G36*
X110074D02*
X106772D01*
Y151107D01*
X107209Y151164D01*
X108167Y151561D01*
X108989Y152192D01*
X109620Y153015D01*
X110017Y153972D01*
X110074Y154409D01*
D02*
G37*
G36*
X116181Y158475D02*
X115282Y158356D01*
X114444Y158009D01*
X113724Y157457D01*
X113172Y156737D01*
X112825Y155899D01*
X112706Y155000D01*
X112825Y154101D01*
X113172Y153263D01*
X113724Y152543D01*
X114444Y151991D01*
X115282Y151644D01*
X116181Y151525D01*
X117080Y151644D01*
X117918Y151991D01*
X118638Y152543D01*
X119190Y153263D01*
X119537Y154101D01*
X119656Y155000D01*
X119537Y155899D01*
X119190Y156737D01*
X118638Y157457D01*
X117918Y158009D01*
X117080Y158356D01*
X116181Y158475D01*
D02*
G37*
G36*
X105591Y164409D02*
X102288D01*
X102345Y163972D01*
X102742Y163014D01*
X103373Y162192D01*
X104196Y161561D01*
X105153Y161164D01*
X105591Y161107D01*
Y164409D01*
D02*
G37*
G36*
X106772Y158893D02*
Y155591D01*
X110074D01*
X110017Y156028D01*
X109620Y156985D01*
X108989Y157808D01*
X108167Y158439D01*
X107209Y158836D01*
X106772Y158893D01*
D02*
G37*
G36*
X105591D02*
X105153Y158836D01*
X104196Y158439D01*
X103373Y157808D01*
X102742Y156985D01*
X102345Y156028D01*
X102288Y155591D01*
X105591D01*
Y158893D01*
D02*
G37*
G36*
X106772Y138893D02*
Y135591D01*
X110074D01*
X110017Y136028D01*
X109620Y136986D01*
X108989Y137808D01*
X108167Y138439D01*
X107209Y138836D01*
X106772Y138893D01*
D02*
G37*
G36*
X141732Y140453D02*
X138976D01*
X136221D01*
Y138976D01*
X136713D01*
Y136319D01*
X141240D01*
Y138976D01*
X141732D01*
Y140453D01*
D02*
G37*
G36*
X110074Y184409D02*
X106772D01*
Y181107D01*
X107209Y181164D01*
X108167Y181561D01*
X108989Y182192D01*
X109620Y183015D01*
X110017Y183972D01*
X110074Y184409D01*
D02*
G37*
G36*
X105591D02*
X102288D01*
X102345Y183972D01*
X102742Y183015D01*
X103373Y182192D01*
X104196Y181561D01*
X105153Y181164D01*
X105591Y181107D01*
Y184409D01*
D02*
G37*
G36*
X106772Y178893D02*
Y175591D01*
X110074D01*
X110017Y176028D01*
X109620Y176986D01*
X108989Y177808D01*
X108167Y178439D01*
X107209Y178836D01*
X106772Y178893D01*
D02*
G37*
G36*
X105591Y138893D02*
X105153Y138836D01*
X104196Y138439D01*
X103373Y137808D01*
X102742Y136986D01*
X102345Y136028D01*
X102288Y135591D01*
X105591D01*
Y138893D01*
D02*
G37*
G36*
Y178893D02*
X105153Y178836D01*
X104196Y178439D01*
X103373Y177808D01*
X102742Y176986D01*
X102345Y176028D01*
X102288Y175591D01*
X105591D01*
Y178893D01*
D02*
G37*
G36*
Y144409D02*
X102288D01*
X102345Y143972D01*
X102742Y143015D01*
X103373Y142192D01*
X104196Y141561D01*
X105153Y141164D01*
X105591Y141107D01*
Y144409D01*
D02*
G37*
G36*
X110074D02*
X106772D01*
Y141107D01*
X107209Y141164D01*
X108167Y141561D01*
X108989Y142192D01*
X109620Y143015D01*
X110017Y143972D01*
X110074Y144409D01*
D02*
G37*
G36*
X141732Y143602D02*
X138976D01*
X136221D01*
Y142126D01*
Y141437D01*
X138976D01*
X141732D01*
Y142126D01*
Y143602D01*
D02*
G37*
G36*
X110074Y174409D02*
X106772D01*
Y171107D01*
X107209Y171164D01*
X108167Y171561D01*
X108989Y172192D01*
X109620Y173014D01*
X110017Y173972D01*
X110074Y174409D01*
D02*
G37*
G36*
X105591D02*
X102288D01*
X102345Y173972D01*
X102742Y173014D01*
X103373Y172192D01*
X104196Y171561D01*
X105153Y171164D01*
X105591Y171107D01*
Y174409D01*
D02*
G37*
G36*
X110074Y134409D02*
X106772D01*
Y131107D01*
X107209Y131164D01*
X108167Y131561D01*
X108989Y132192D01*
X109620Y133015D01*
X110017Y133972D01*
X110074Y134409D01*
D02*
G37*
%LPD*%
G36*
X134801Y163159D02*
X134754Y163203D01*
X134702Y163241D01*
X134645Y163275D01*
X134583Y163304D01*
X134516Y163329D01*
X134445Y163350D01*
X134368Y163365D01*
X134286Y163377D01*
X134200Y163384D01*
X134108Y163386D01*
Y164173D01*
X134200Y164175D01*
X134286Y164182D01*
X134368Y164194D01*
X134445Y164209D01*
X134516Y164230D01*
X134583Y164255D01*
X134645Y164284D01*
X134702Y164318D01*
X134754Y164357D01*
X134801Y164400D01*
Y163159D01*
D02*
G37*
G36*
X119094Y165661D02*
X119243Y165349D01*
X119402Y165074D01*
X119570Y164835D01*
X119748Y164632D01*
X119936Y164467D01*
X120134Y164339D01*
X120342Y164247D01*
X120560Y164192D01*
X120787Y164173D01*
X120425Y163386D01*
X120338Y163374D01*
X120201Y163341D01*
X119773Y163205D01*
X117271Y162256D01*
X118956Y166010D01*
X119094Y165661D01*
D02*
G37*
D11*
X170078Y146063D02*
Y146063D01*
X152362Y135925D02*
X156890D01*
X117402Y163779D02*
X135433D01*
X116181Y165000D02*
X117402Y163779D01*
X142126Y162992D02*
X142913Y162205D01*
X159449Y143602D02*
Y145276D01*
X169587Y134744D02*
X178642D01*
X179134Y134252D01*
X166929Y137402D02*
X169587Y134744D01*
X175197Y127165D02*
X185039D01*
X168898Y133465D02*
X175197Y127165D01*
X131496Y133465D02*
X168898D01*
X177559Y107874D02*
Y122047D01*
X167717Y131890D02*
X177559Y122047D01*
X130709Y131890D02*
X167717D01*
X162008Y135925D02*
X163484Y137402D01*
X141804Y153543D02*
X143379Y151969D01*
X140945Y153543D02*
X141804D01*
X140945Y159843D02*
X147020D01*
X177559Y107874D02*
X183071Y102362D01*
X166535Y107874D02*
X172047Y102362D01*
X166535Y107874D02*
Y124803D01*
X155512Y107874D02*
X161024Y102362D01*
X155512Y107874D02*
Y123228D01*
X190945Y117323D02*
Y121260D01*
X185039Y127165D02*
X190945Y121260D01*
X161024Y130315D02*
X166535Y124803D01*
X129921Y130315D02*
X161024D01*
X150000Y128740D02*
X155512Y123228D01*
X128740Y128740D02*
X150000D01*
X140157Y127165D02*
X144882Y122441D01*
X127756Y127165D02*
X140157D01*
X144882Y107543D02*
Y122441D01*
Y107543D02*
X150031Y102394D01*
X131102Y125591D02*
X133858Y122835D01*
Y107480D02*
Y122835D01*
Y107480D02*
X138976Y102362D01*
X126772Y125591D02*
X131102D01*
X163484Y137402D02*
X166929D01*
X116181Y175000D02*
X144980D01*
X131496Y156693D02*
X132677D01*
X131496Y159843D02*
X132677D01*
X131496Y153543D02*
X132677D01*
X131496Y150394D02*
X132677D01*
X131496Y147244D02*
X132677D01*
X131496Y144095D02*
X132677D01*
X120472Y109843D02*
X127953Y102362D01*
X120472Y109843D02*
Y148819D01*
X131496Y159843D01*
X122047Y130315D02*
X126772Y125591D01*
X122047Y130315D02*
Y147244D01*
X131496Y156693D01*
X123622Y131299D02*
X127756Y127165D01*
X123622Y131299D02*
Y145669D01*
X131496Y153543D01*
X125197Y132283D02*
X128740Y128740D01*
X125197Y132283D02*
Y144095D01*
X131496Y150394D01*
X126772Y133465D02*
X129921Y130315D01*
X126772Y133465D02*
Y142520D01*
X131496Y147244D01*
X128347Y134252D02*
X130709Y131890D01*
X128347Y134252D02*
Y140945D01*
X131496Y144095D01*
X129921Y135039D02*
X131496Y133465D01*
X129921Y135039D02*
Y139370D01*
X131496Y140945D01*
X132677D01*
X138976Y150394D02*
X140157D01*
X143504Y147047D01*
Y142421D02*
X144095Y141831D01*
X143504Y142421D02*
Y147047D01*
X146653Y148228D02*
Y149508D01*
Y148228D02*
X148031Y146850D01*
X149213Y149508D02*
Y149776D01*
X143379Y151969D02*
X147020D01*
X149213Y149776D01*
X146653Y140354D02*
X149213Y137795D01*
X146653Y140354D02*
Y141831D01*
X138976Y156693D02*
X144390D01*
X144488Y156595D01*
X147047Y163976D02*
Y164272D01*
X145276Y162205D02*
X147047Y163976D01*
X142913Y162205D02*
X145276D01*
X147020Y159843D02*
X149606Y162428D01*
Y164272D01*
X147047Y154528D02*
Y156595D01*
X144095Y149508D02*
X145079Y148524D01*
Y146653D02*
Y148524D01*
Y146653D02*
X145276Y146457D01*
X148031Y146850D02*
X150787D01*
X152756Y148819D01*
X144980Y175000D02*
X151575Y168405D01*
Y157480D02*
Y168405D01*
Y157480D02*
X152756Y156299D01*
Y148819D02*
Y156299D01*
X164567Y140551D02*
X170078Y146063D01*
X156890Y143334D02*
Y143602D01*
X159449Y135925D02*
Y137795D01*
X156890Y143334D02*
X159672Y140551D01*
X164567D01*
X154724Y142520D02*
X159449Y137795D01*
X154724Y142520D02*
Y147244D01*
X159843Y152362D01*
Y165610D01*
X155453Y170000D02*
X159843Y165610D01*
X149606Y155905D02*
X150787Y154724D01*
X149606Y155905D02*
Y156595D01*
D12*
X162008Y143602D02*
X163681D01*
X165453Y180000D02*
X182894Y197441D01*
X191142D01*
X165453Y190000D02*
X175453Y200000D01*
X190453D01*
X191142Y197441D02*
X193701Y200000D01*
X186949Y175197D02*
X187126Y175020D01*
X165453Y160000D02*
X182106D01*
X192126Y170020D01*
X116181Y185000D02*
X139803D01*
X150000Y174803D01*
X157087D01*
X161890Y170000D01*
X165453D01*
X116181Y195000D02*
X138071D01*
X148031Y185039D01*
X158268D01*
X160236Y183071D01*
Y176772D02*
Y183071D01*
Y176772D02*
X161811Y175197D01*
X168898D01*
X172441Y171653D01*
Y166988D02*
Y171653D01*
X165453Y160000D02*
X172441Y166988D01*
X116181Y205000D02*
X150453D01*
X155453Y200000D01*
D14*
X116181Y205000D02*
D03*
D15*
Y195000D02*
D03*
Y185000D02*
D03*
Y175000D02*
D03*
Y165000D02*
D03*
Y155000D02*
D03*
Y145000D02*
D03*
Y135000D02*
D03*
Y125000D02*
D03*
Y115000D02*
D03*
X106181Y205000D02*
D03*
Y195000D02*
D03*
Y185000D02*
D03*
Y175000D02*
D03*
Y165000D02*
D03*
Y155000D02*
D03*
Y145000D02*
D03*
Y135000D02*
D03*
Y125000D02*
D03*
Y115000D02*
D03*
X165453Y200000D02*
D03*
X155453Y190000D02*
D03*
Y180000D02*
D03*
Y170000D02*
D03*
Y160000D02*
D03*
X165453Y190000D02*
D03*
Y180000D02*
D03*
Y170000D02*
D03*
Y160000D02*
D03*
D16*
X155453Y200000D02*
D03*
D17*
X183031Y121000D02*
D03*
X172031D02*
D03*
X161031D02*
D03*
X150031D02*
D03*
X139032D02*
D03*
X128032D02*
D03*
X194421Y131181D02*
D03*
Y111181D02*
D03*
D18*
X187126Y190020D02*
D03*
Y185020D02*
D03*
Y180020D02*
D03*
Y175020D02*
D03*
Y170020D02*
D03*
X192126Y190020D02*
D03*
Y185020D02*
D03*
Y180020D02*
D03*
Y175020D02*
D03*
Y170020D02*
D03*
D19*
X170078Y146063D02*
D03*
X163681Y143602D02*
D03*
X148031Y146850D02*
D03*
X152362Y135925D02*
D03*
X135433Y163779D02*
D03*
X142126Y162992D02*
D03*
X159449Y145276D02*
D03*
X179134Y134252D02*
D03*
X149213Y137795D02*
D03*
X183071Y102362D02*
D03*
X172047D02*
D03*
X161024D02*
D03*
X190945Y117323D02*
D03*
X150031Y102394D02*
D03*
X138976Y102362D02*
D03*
X127953D02*
D03*
X190453Y200000D02*
D03*
X193701D02*
D03*
X141929Y141142D02*
D03*
X145276Y146457D02*
D03*
X150787Y154724D02*
D03*
X147047Y154528D02*
D03*
X159449Y137795D02*
D03*
D20*
X156890Y135925D02*
D03*
X159449D02*
D03*
X162008D02*
D03*
Y143602D02*
D03*
X159449D02*
D03*
X156890D02*
D03*
X149213Y149508D02*
D03*
X146653D02*
D03*
X144095D02*
D03*
Y141831D02*
D03*
X146653D02*
D03*
X149213D02*
D03*
X149606Y164272D02*
D03*
X147047D02*
D03*
X144488D02*
D03*
Y156595D02*
D03*
X147047D02*
D03*
X149606D02*
D03*
D21*
X132677Y137795D02*
D03*
Y140945D02*
D03*
Y144095D02*
D03*
Y147244D02*
D03*
Y150394D02*
D03*
Y153543D02*
D03*
Y156693D02*
D03*
Y159843D02*
D03*
X138976Y137795D02*
D03*
Y140945D02*
D03*
Y144095D02*
D03*
Y147244D02*
D03*
Y150394D02*
D03*
Y153543D02*
D03*
Y156693D02*
D03*
Y159843D02*
D03*
M02*
