G04 Layer_Physical_Order=1*
G04 Layer_Color=255*
%FSLAX25Y25*%
%MOIN*%
G70*
G01*
G75*
%ADD10R,0.05118X0.02756*%
%ADD11C,0.00787*%
%ADD12C,0.01575*%
%ADD13C,0.00591*%
%ADD14R,0.05905X0.05905*%
%ADD15C,0.05905*%
%ADD16R,0.05905X0.05905*%
%ADD17C,0.06299*%
%ADD18C,0.03937*%
%ADD19C,0.01772*%
G36*
X154165Y173195D02*
X153716Y173009D01*
X152996Y172457D01*
X152444Y171737D01*
X152264Y171305D01*
X136929D01*
X136430Y171205D01*
X136007Y170923D01*
X125259Y160175D01*
X124976Y159752D01*
X124877Y159253D01*
Y149556D01*
X120098Y144777D01*
X119819Y144914D01*
X119667Y145052D01*
X119672Y145356D01*
X119693Y145656D01*
X119730Y145935D01*
X119782Y146193D01*
X119849Y146430D01*
X119929Y146647D01*
X120023Y146844D01*
X120129Y147023D01*
X120248Y147185D01*
X120398Y147351D01*
X120410Y147384D01*
X122970Y149944D01*
X123252Y150367D01*
X123352Y150866D01*
Y160877D01*
X136170Y173695D01*
X154066D01*
X154165Y173195D01*
D02*
G37*
G36*
X120003Y147708D02*
X119834Y147522D01*
X119684Y147317D01*
X119552Y147095D01*
X119438Y146854D01*
X119342Y146595D01*
X119264Y146318D01*
X119204Y146023D01*
X119163Y145710D01*
X119139Y145379D01*
X119134Y145029D01*
X116211Y147953D01*
X116560Y147958D01*
X116891Y147982D01*
X117204Y148023D01*
X117499Y148083D01*
X117776Y148161D01*
X118035Y148257D01*
X118276Y148371D01*
X118498Y148503D01*
X118703Y148653D01*
X118889Y148822D01*
X120003Y147708D01*
D02*
G37*
G36*
X172744Y104146D02*
X172677Y104122D01*
X172618Y104083D01*
X172567Y104028D01*
X172524Y103957D01*
X172488Y103870D01*
X172461Y103768D01*
X172441Y103650D01*
X172432Y103548D01*
X172434Y103517D01*
X172446Y103435D01*
X172462Y103359D01*
X172483Y103287D01*
X172508Y103221D01*
X172538Y103159D01*
X172573Y103103D01*
X172612Y103052D01*
X172656Y103006D01*
X171416Y102984D01*
X171458Y103031D01*
X171496Y103084D01*
X171529Y103141D01*
X171558Y103203D01*
X171582Y103270D01*
X171602Y103342D01*
X171618Y103419D01*
X171629Y103501D01*
X171632Y103539D01*
X171622Y103650D01*
X171602Y103768D01*
X171575Y103870D01*
X171539Y103957D01*
X171496Y104028D01*
X171445Y104083D01*
X171386Y104122D01*
X171319Y104146D01*
X171244Y104154D01*
X172819D01*
X172744Y104146D01*
D02*
G37*
G36*
X183744Y103886D02*
X183677Y103862D01*
X183618Y103823D01*
X183567Y103768D01*
X183524Y103697D01*
X183488Y103610D01*
X183461Y103508D01*
X183449Y103436D01*
X183463Y103370D01*
X183484Y103299D01*
X183510Y103233D01*
X183541Y103173D01*
X183577Y103117D01*
X183617Y103067D01*
X183662Y103022D01*
X182423Y102967D01*
X182464Y103015D01*
X182501Y103068D01*
X182533Y103126D01*
X182561Y103189D01*
X182584Y103256D01*
X182604Y103329D01*
X182618Y103406D01*
X182619Y103409D01*
X182602Y103508D01*
X182575Y103610D01*
X182539Y103697D01*
X182496Y103768D01*
X182445Y103823D01*
X182386Y103862D01*
X182319Y103886D01*
X182244Y103894D01*
X183819D01*
X183744Y103886D01*
D02*
G37*
G36*
X147443Y155761D02*
X147450Y155674D01*
X147461Y155593D01*
X147477Y155516D01*
X147497Y155444D01*
X147522Y155377D01*
X147552Y155316D01*
X147586Y155259D01*
X147624Y155207D01*
X147667Y155160D01*
X146427D01*
X146470Y155207D01*
X146509Y155259D01*
X146543Y155316D01*
X146572Y155377D01*
X146597Y155444D01*
X146617Y155516D01*
X146633Y155593D01*
X146644Y155674D01*
X146651Y155761D01*
X146653Y155853D01*
X147441D01*
X147443Y155761D01*
D02*
G37*
G36*
X136322Y163707D02*
X136331Y163643D01*
X136347Y163579D01*
X136370Y163515D01*
X136400Y163450D01*
X136436Y163385D01*
X136479Y163319D01*
X136529Y163253D01*
X136585Y163187D01*
X136648Y163121D01*
X136092Y162564D01*
X136025Y162627D01*
X135959Y162684D01*
X135893Y162734D01*
X135828Y162777D01*
X135763Y162813D01*
X135698Y162843D01*
X135634Y162865D01*
X135569Y162882D01*
X135505Y162891D01*
X135442Y162894D01*
X136319Y163771D01*
X136322Y163707D01*
D02*
G37*
G36*
X146449Y147217D02*
X146386Y147150D01*
X146331Y147084D01*
X146282Y147018D01*
X146242Y146952D01*
X146209Y146887D01*
X146183Y146822D01*
X146165Y146758D01*
X146154Y146694D01*
X146150Y146630D01*
X146154Y146567D01*
X145183Y147338D01*
X145244Y147347D01*
X145306Y147362D01*
X145369Y147384D01*
X145432Y147411D01*
X145495Y147445D01*
X145559Y147484D01*
X145624Y147530D01*
X145689Y147581D01*
X145821Y147702D01*
X146449Y147217D01*
D02*
G37*
G36*
X151062Y153882D02*
X151010Y153860D01*
X150963Y153831D01*
X150922Y153793D01*
X150886Y153747D01*
X150856Y153694D01*
X150831Y153632D01*
X150812Y153563D01*
X150798Y153486D01*
X150790Y153400D01*
X150787Y153307D01*
X150000Y153787D01*
X150000Y153886D01*
X149973Y154353D01*
X149965Y154388D01*
X149957Y154415D01*
X151062Y153882D01*
D02*
G37*
G36*
X116182Y144213D02*
X116127Y144202D01*
X116055Y144169D01*
X115966Y144115D01*
X115860Y144039D01*
X115596Y143821D01*
X115073Y143332D01*
X114969Y143230D01*
X116152Y142047D01*
X115700Y142045D01*
X114896Y141999D01*
X114545Y141955D01*
X114227Y141897D01*
X113942Y141825D01*
X113691Y141740D01*
X113473Y141640D01*
X113288Y141527D01*
X113137Y141400D01*
X112581Y141956D01*
X112708Y142107D01*
X112821Y142292D01*
X112921Y142510D01*
X113006Y142761D01*
X113078Y143045D01*
X113136Y143364D01*
X113180Y143715D01*
X113226Y144519D01*
X113228Y144971D01*
X114411Y143788D01*
X114513Y143891D01*
X115296Y144785D01*
X115350Y144874D01*
X115383Y144946D01*
X115394Y145001D01*
X116182Y144213D01*
D02*
G37*
G36*
X150744Y103886D02*
X150677Y103862D01*
X150618Y103823D01*
X150567Y103768D01*
X150524Y103697D01*
X150488Y103610D01*
X150461Y103508D01*
X150449Y103440D01*
X150461Y103382D01*
X150482Y103310D01*
X150507Y103244D01*
X150536Y103182D01*
X150570Y103125D01*
X150609Y103073D01*
X150652Y103026D01*
X149411D01*
X149454Y103073D01*
X149493Y103125D01*
X149527Y103182D01*
X149556Y103244D01*
X149581Y103310D01*
X149602Y103382D01*
X149614Y103440D01*
X149602Y103508D01*
X149575Y103610D01*
X149539Y103697D01*
X149496Y103768D01*
X149445Y103823D01*
X149386Y103862D01*
X149319Y103886D01*
X149244Y103894D01*
X150819D01*
X150744Y103886D01*
D02*
G37*
G36*
X161736D02*
X161669Y103862D01*
X161610Y103823D01*
X161559Y103768D01*
X161516Y103697D01*
X161480Y103610D01*
X161453Y103508D01*
X161439Y103423D01*
X161453Y103351D01*
X161474Y103279D01*
X161499Y103212D01*
X161528Y103150D01*
X161562Y103094D01*
X161601Y103042D01*
X161644Y102995D01*
X160404D01*
X160447Y103042D01*
X160485Y103094D01*
X160519Y103150D01*
X160548Y103212D01*
X160573Y103279D01*
X160594Y103351D01*
X160609Y103423D01*
X160594Y103508D01*
X160567Y103610D01*
X160531Y103697D01*
X160488Y103768D01*
X160437Y103823D01*
X160378Y103862D01*
X160311Y103886D01*
X160236Y103894D01*
X161811D01*
X161736Y103886D01*
D02*
G37*
G36*
X150000Y117850D02*
X149511Y117848D01*
X148265Y117755D01*
X147923Y117694D01*
X147618Y117620D01*
X147349Y117531D01*
X147117Y117427D01*
X146922Y117308D01*
X146764Y117176D01*
X146207Y117733D01*
X146340Y117891D01*
X146458Y118086D01*
X146562Y118318D01*
X146651Y118586D01*
X146726Y118892D01*
X146786Y119234D01*
X146832Y119612D01*
X146880Y120480D01*
X146882Y120968D01*
X150000Y117850D01*
D02*
G37*
G36*
X157922Y124691D02*
X158117Y124573D01*
X158349Y124469D01*
X158618Y124380D01*
X158923Y124305D01*
X159265Y124245D01*
X159644Y124199D01*
X160511Y124152D01*
X161000Y124150D01*
X157882Y121031D01*
X157880Y121520D01*
X157786Y122766D01*
X157726Y123108D01*
X157651Y123414D01*
X157562Y123682D01*
X157458Y123914D01*
X157340Y124109D01*
X157207Y124267D01*
X157764Y124824D01*
X157922Y124691D01*
D02*
G37*
G36*
X128665Y103886D02*
X128598Y103862D01*
X128539Y103823D01*
X128488Y103768D01*
X128445Y103697D01*
X128409Y103610D01*
X128382Y103508D01*
X128368Y103423D01*
X128383Y103351D01*
X128403Y103279D01*
X128428Y103212D01*
X128457Y103150D01*
X128491Y103094D01*
X128530Y103042D01*
X128573Y102995D01*
X127333D01*
X127376Y103042D01*
X127414Y103094D01*
X127448Y103150D01*
X127478Y103212D01*
X127503Y103279D01*
X127523Y103351D01*
X127538Y103423D01*
X127524Y103508D01*
X127496Y103610D01*
X127461Y103697D01*
X127417Y103768D01*
X127366Y103823D01*
X127307Y103862D01*
X127240Y103886D01*
X127165Y103894D01*
X128740D01*
X128665Y103886D01*
D02*
G37*
G36*
X116973Y138799D02*
X117009Y138422D01*
X117041Y138261D01*
X117081Y138118D01*
X117131Y137994D01*
X117190Y137888D01*
X117257Y137800D01*
X117334Y137731D01*
X117420Y137680D01*
X114942D01*
X115028Y137731D01*
X115105Y137800D01*
X115173Y137888D01*
X115231Y137994D01*
X115281Y138118D01*
X115322Y138261D01*
X115353Y138422D01*
X115376Y138601D01*
X115389Y138799D01*
X115394Y139015D01*
X116969D01*
X116973Y138799D01*
D02*
G37*
G36*
X150443Y125809D02*
X150498Y125587D01*
X150588Y125350D01*
X150715Y125097D01*
X150878Y124828D01*
X151077Y124544D01*
X151313Y124244D01*
X151892Y123597D01*
X152236Y123249D01*
X147827D01*
X148171Y123597D01*
X148986Y124544D01*
X149185Y124828D01*
X149348Y125097D01*
X149475Y125350D01*
X149565Y125587D01*
X149620Y125809D01*
X149638Y126015D01*
X150425D01*
X150443Y125809D01*
D02*
G37*
G36*
X139689Y103886D02*
X139622Y103862D01*
X139563Y103823D01*
X139512Y103768D01*
X139469Y103697D01*
X139433Y103610D01*
X139406Y103508D01*
X139391Y103423D01*
X139406Y103351D01*
X139427Y103279D01*
X139452Y103212D01*
X139481Y103150D01*
X139515Y103094D01*
X139553Y103042D01*
X139596Y102995D01*
X138356D01*
X138399Y103042D01*
X138438Y103094D01*
X138472Y103150D01*
X138501Y103212D01*
X138526Y103279D01*
X138547Y103351D01*
X138561Y103423D01*
X138547Y103508D01*
X138520Y103610D01*
X138484Y103697D01*
X138441Y103768D01*
X138390Y103823D01*
X138331Y103862D01*
X138264Y103886D01*
X138189Y103894D01*
X139764D01*
X139689Y103886D01*
D02*
G37*
G36*
X120003Y167708D02*
X119834Y167522D01*
X119684Y167317D01*
X119552Y167095D01*
X119438Y166854D01*
X119342Y166595D01*
X119264Y166318D01*
X119204Y166023D01*
X119163Y165710D01*
X119139Y165379D01*
X119134Y165030D01*
X116211Y167953D01*
X116560Y167958D01*
X116891Y167982D01*
X117204Y168023D01*
X117499Y168083D01*
X117776Y168161D01*
X118035Y168257D01*
X118276Y168371D01*
X118498Y168503D01*
X118703Y168653D01*
X118889Y168822D01*
X120003Y167708D01*
D02*
G37*
G36*
X165453Y169213D02*
X165399Y169202D01*
X165327Y169169D01*
X165238Y169115D01*
X165131Y169039D01*
X164868Y168821D01*
X164344Y168332D01*
X164135Y168126D01*
X163579Y168683D01*
X163785Y168891D01*
X164567Y169785D01*
X164622Y169874D01*
X164655Y169946D01*
X164665Y170001D01*
X165453Y169213D01*
D02*
G37*
G36*
X194794Y186574D02*
X194659Y186431D01*
X194539Y186286D01*
X194434Y186138D01*
X194342Y185989D01*
X194265Y185836D01*
X194202Y185682D01*
X194154Y185525D01*
X194120Y185365D01*
X194100Y185204D01*
X194094Y185039D01*
X192146Y186988D01*
X192310Y186994D01*
X192472Y187013D01*
X192631Y187048D01*
X192788Y187096D01*
X192943Y187159D01*
X193095Y187236D01*
X193245Y187327D01*
X193392Y187433D01*
X193537Y187553D01*
X193680Y187687D01*
X194794Y186574D01*
D02*
G37*
G36*
X199197Y197056D02*
X198697Y196849D01*
X194980Y200566D01*
X194694Y200993D01*
X194238Y201298D01*
X193701Y201405D01*
X193163Y201298D01*
X192707Y200993D01*
X192429Y200576D01*
X192324Y200499D01*
X191921Y200377D01*
X191732Y200566D01*
X191446Y200993D01*
X190990Y201298D01*
X190453Y201405D01*
X189915Y201298D01*
X189459Y200993D01*
X189155Y200538D01*
X189048Y200000D01*
X189155Y199462D01*
X189459Y199006D01*
X189887Y198721D01*
X194266Y194342D01*
Y192077D01*
X193766Y191883D01*
X193086Y192338D01*
X192126Y192528D01*
X191572Y192418D01*
X183068Y200922D01*
X182645Y201205D01*
X182146Y201305D01*
X168641D01*
X168462Y201737D01*
X167910Y202457D01*
X167190Y203009D01*
X166352Y203356D01*
X165453Y203475D01*
X164553Y203356D01*
X164121Y203177D01*
X160863Y206434D01*
X160440Y206717D01*
X159941Y206816D01*
X146693D01*
X146194Y206717D01*
X145770Y206434D01*
X117513Y178177D01*
X117080Y178356D01*
X116181Y178475D01*
X115282Y178356D01*
X114444Y178009D01*
X113724Y177457D01*
X113172Y176737D01*
X112825Y175899D01*
X112706Y175000D01*
X112825Y174101D01*
X113172Y173263D01*
X113724Y172543D01*
X114444Y171991D01*
X115282Y171644D01*
X116181Y171525D01*
X117080Y171644D01*
X117918Y171991D01*
X118638Y172543D01*
X119190Y173263D01*
X119537Y174101D01*
X119656Y175000D01*
X119537Y175899D01*
X119358Y176332D01*
X147233Y204207D01*
X151128D01*
X151516Y203937D01*
X151516Y203707D01*
Y200591D01*
X159390D01*
Y203511D01*
X159890Y203718D01*
X162276Y201332D01*
X162097Y200899D01*
X161978Y200000D01*
X162097Y199101D01*
X162444Y198263D01*
X162996Y197543D01*
X163716Y196991D01*
X164553Y196644D01*
X165453Y196525D01*
X166352Y196644D01*
X167190Y196991D01*
X167910Y197543D01*
X168462Y198263D01*
X168641Y198695D01*
X181605D01*
X186837Y193464D01*
X186657Y192936D01*
X186355Y192896D01*
X185637Y192599D01*
X185020Y192126D01*
X184547Y191509D01*
X184249Y190790D01*
X184225Y190610D01*
X187126D01*
Y189429D01*
X184225D01*
X184249Y189249D01*
X184547Y188531D01*
X185020Y187914D01*
X185536Y187518D01*
X185614Y186969D01*
X185352Y186794D01*
X184808Y185980D01*
X184617Y185020D01*
X184808Y184060D01*
X185352Y183246D01*
X186023Y182798D01*
X186043Y182733D01*
Y182306D01*
X186023Y182242D01*
X185352Y181794D01*
X184808Y180980D01*
X184617Y180020D01*
X184808Y179060D01*
X185352Y178246D01*
X186023Y177797D01*
X186043Y177733D01*
Y177306D01*
X186023Y177242D01*
X185352Y176794D01*
X185157Y176501D01*
X167315D01*
X167199Y176957D01*
X167204Y177001D01*
X167910Y177543D01*
X168462Y178263D01*
X168809Y179101D01*
X168927Y180000D01*
X168809Y180899D01*
X168462Y181737D01*
X167910Y182457D01*
X167190Y183009D01*
X166352Y183356D01*
X165453Y183475D01*
X164553Y183356D01*
X163716Y183009D01*
X162996Y182457D01*
X162444Y181737D01*
X162227Y181215D01*
X162178Y181205D01*
X161755Y180922D01*
X158938Y178106D01*
X158514Y178389D01*
X158809Y179101D01*
X158927Y180000D01*
X158809Y180899D01*
X158462Y181737D01*
X157910Y182457D01*
X157190Y183009D01*
X156740Y183195D01*
X156840Y183695D01*
X160453D01*
X160952Y183795D01*
X161375Y184078D01*
X164121Y186823D01*
X164553Y186644D01*
X165453Y186525D01*
X166352Y186644D01*
X167190Y186991D01*
X167910Y187543D01*
X168462Y188263D01*
X168809Y189101D01*
X168927Y190000D01*
X168809Y190899D01*
X168462Y191737D01*
X167910Y192457D01*
X167190Y193009D01*
X166352Y193356D01*
X165453Y193475D01*
X164553Y193356D01*
X163716Y193009D01*
X162996Y192457D01*
X162444Y191737D01*
X162097Y190899D01*
X161978Y190000D01*
X162097Y189101D01*
X162276Y188668D01*
X159912Y186305D01*
X156840D01*
X156740Y186805D01*
X157190Y186991D01*
X157910Y187543D01*
X158462Y188263D01*
X158809Y189101D01*
X158927Y190000D01*
X158809Y190899D01*
X158462Y191737D01*
X157910Y192457D01*
X157190Y193009D01*
X156352Y193356D01*
X155453Y193475D01*
X154553Y193356D01*
X153716Y193009D01*
X152996Y192457D01*
X152444Y191737D01*
X152097Y190899D01*
X151978Y190000D01*
X152097Y189101D01*
X152444Y188263D01*
X152996Y187543D01*
X153716Y186991D01*
X154165Y186805D01*
X154066Y186305D01*
X136181D01*
X135682Y186205D01*
X135259Y185923D01*
X118565Y169229D01*
X118532Y169217D01*
X118366Y169067D01*
X118204Y168948D01*
X118025Y168842D01*
X117828Y168748D01*
X117611Y168668D01*
X117374Y168601D01*
X117116Y168549D01*
X116837Y168512D01*
X116537Y168491D01*
X116202Y168485D01*
X116176Y168474D01*
X115282Y168356D01*
X114444Y168009D01*
X113724Y167457D01*
X113172Y166737D01*
X112825Y165899D01*
X112706Y165000D01*
X112825Y164101D01*
X113172Y163263D01*
X113724Y162543D01*
X114444Y161991D01*
X115282Y161644D01*
X116181Y161525D01*
X117080Y161644D01*
X117918Y161991D01*
X118638Y162543D01*
X119190Y163263D01*
X119537Y164101D01*
X119655Y164995D01*
X119666Y165021D01*
X119672Y165356D01*
X119693Y165656D01*
X119730Y165935D01*
X119782Y166193D01*
X119849Y166430D01*
X119929Y166647D01*
X120023Y166844D01*
X120129Y167023D01*
X120248Y167185D01*
X120398Y167351D01*
X120410Y167384D01*
X136722Y183695D01*
X154066D01*
X154165Y183195D01*
X153716Y183009D01*
X152996Y182457D01*
X152444Y181737D01*
X152097Y180899D01*
X151978Y180000D01*
X152097Y179101D01*
X152444Y178263D01*
X152996Y177543D01*
X153716Y176991D01*
X154165Y176805D01*
X154066Y176305D01*
X135630D01*
X135131Y176205D01*
X134707Y175923D01*
X121125Y162340D01*
X120842Y161917D01*
X120743Y161417D01*
Y151407D01*
X118565Y149229D01*
X118532Y149217D01*
X118366Y149067D01*
X118204Y148948D01*
X118025Y148842D01*
X117828Y148748D01*
X117611Y148668D01*
X117374Y148601D01*
X117116Y148549D01*
X116837Y148512D01*
X116537Y148491D01*
X116202Y148485D01*
X116176Y148474D01*
X115282Y148356D01*
X114444Y148009D01*
X113724Y147457D01*
X113172Y146737D01*
X112825Y145899D01*
X112706Y145000D01*
X112707Y144999D01*
X112696Y144973D01*
X112694Y144535D01*
X112649Y143764D01*
X112609Y143444D01*
X112557Y143158D01*
X112495Y142912D01*
X112425Y142707D01*
X112350Y142543D01*
X112275Y142420D01*
X112173Y142300D01*
X112159Y142256D01*
X110779Y140875D01*
X110583Y140582D01*
X110514Y140236D01*
Y123228D01*
X110583Y122883D01*
X110779Y122590D01*
X113928Y119440D01*
X114221Y119244D01*
X114567Y119176D01*
X118524D01*
X122487Y115212D01*
X122780Y115016D01*
X123126Y114947D01*
X124488D01*
Y113232D01*
X131575D01*
Y114947D01*
X135488D01*
Y113232D01*
X142575D01*
Y114947D01*
X144882D01*
X145228Y115016D01*
X145520Y115212D01*
X147063Y116754D01*
X147106Y116768D01*
X147233Y116874D01*
X147365Y116954D01*
X147543Y117034D01*
X147765Y117107D01*
X148033Y117173D01*
X148331Y117226D01*
X149532Y117316D01*
X150002Y117318D01*
X150026Y117328D01*
X150031Y117327D01*
X150982Y117452D01*
X151868Y117819D01*
X152629Y118403D01*
X153212Y119163D01*
X153579Y120049D01*
X153705Y121000D01*
X153579Y121951D01*
X153212Y122837D01*
X152629Y123597D01*
X152624Y123601D01*
X152615Y123624D01*
X152280Y123962D01*
X151721Y124586D01*
X151505Y124861D01*
X151324Y125119D01*
X151181Y125355D01*
X151076Y125565D01*
X151007Y125746D01*
X150970Y125896D01*
X150956Y126061D01*
X150935Y126102D01*
Y136976D01*
X150866Y137322D01*
X150670Y137615D01*
X150596Y137689D01*
X150618Y137795D01*
X150511Y138333D01*
X150275Y138685D01*
X150663Y139004D01*
X153821Y135846D01*
Y127307D01*
X153890Y126962D01*
X154086Y126669D01*
X156785Y123969D01*
X156799Y123925D01*
X156906Y123798D01*
X156986Y123666D01*
X157065Y123489D01*
X157139Y123266D01*
X157204Y122999D01*
X157257Y122700D01*
X157347Y121499D01*
X157349Y121029D01*
X157359Y121006D01*
X157358Y121000D01*
X157483Y120049D01*
X157851Y119163D01*
X158434Y118403D01*
X159195Y117819D01*
X160081Y117452D01*
X161031Y117327D01*
X161982Y117452D01*
X162868Y117819D01*
X163629Y118403D01*
X164213Y119163D01*
X164579Y120049D01*
X164705Y121000D01*
X164579Y121951D01*
X164213Y122837D01*
X163629Y123597D01*
X162868Y124181D01*
X161982Y124548D01*
X161031Y124673D01*
X161026Y124672D01*
X161002Y124682D01*
X160527Y124684D01*
X159690Y124730D01*
X159343Y124772D01*
X159033Y124827D01*
X158765Y124892D01*
X158543Y124967D01*
X158365Y125046D01*
X158233Y125126D01*
X158106Y125233D01*
X158063Y125246D01*
X155628Y127681D01*
Y136221D01*
X155559Y136566D01*
X155363Y136859D01*
X148935Y143288D01*
Y145797D01*
X149025Y145857D01*
X149329Y146313D01*
X149436Y146850D01*
X149329Y147388D01*
X149025Y147844D01*
X148713Y148053D01*
X148572Y148619D01*
X151032Y151079D01*
X151228Y151373D01*
X151297Y151718D01*
Y153240D01*
X151320Y153291D01*
X151322Y153367D01*
X151327Y153413D01*
X151329Y153429D01*
X151781Y153731D01*
X152085Y154187D01*
X152192Y154724D01*
X152085Y155262D01*
X151781Y155718D01*
X151325Y156022D01*
X150787Y156129D01*
X150250Y156022D01*
X150222Y156004D01*
X149722Y156271D01*
Y160650D01*
X153130Y164057D01*
X160413D01*
X160759Y164126D01*
X161052Y164322D01*
X163719Y166989D01*
X164553Y166644D01*
X165453Y166525D01*
X166352Y166644D01*
X167190Y166991D01*
X167910Y167543D01*
X168462Y168263D01*
X168641Y168695D01*
X178279D01*
X181361Y165613D01*
X181784Y165330D01*
X182283Y165231D01*
X194095D01*
X194594Y165330D01*
X195017Y165613D01*
X196985Y167581D01*
X197268Y168005D01*
X197368Y168504D01*
Y171653D01*
X197268Y172153D01*
X196985Y172576D01*
X194619Y174942D01*
X194635Y175020D01*
X194444Y175980D01*
X193900Y176794D01*
X193229Y177242D01*
X193209Y177306D01*
Y177733D01*
X193229Y177797D01*
X193900Y178246D01*
X194444Y179060D01*
X194635Y180020D01*
X194525Y180573D01*
X198697Y184746D01*
X199197Y184539D01*
Y100803D01*
X184117D01*
X183966Y101303D01*
X184064Y101369D01*
X184369Y101824D01*
X184476Y102362D01*
X184371Y102890D01*
X184369Y102900D01*
X184643Y103390D01*
X186083D01*
Y107130D01*
X179980D01*
Y103390D01*
X181499D01*
X181773Y102900D01*
X181771Y102890D01*
X181666Y102362D01*
X181773Y101824D01*
X182077Y101369D01*
X182176Y101303D01*
X182025Y100803D01*
X173094D01*
X172942Y101303D01*
X173041Y101369D01*
X173345Y101824D01*
X173452Y102362D01*
X173345Y102900D01*
X173178Y103150D01*
X173396Y103622D01*
X173448Y103650D01*
X175083D01*
Y107390D01*
X168980D01*
Y103650D01*
X170625D01*
X170641Y103645D01*
X170652Y103637D01*
X170758Y103550D01*
X170787Y103515D01*
X170916Y103150D01*
X170749Y102900D01*
X170642Y102362D01*
X170749Y101824D01*
X171054Y101369D01*
X171152Y101303D01*
X171001Y100803D01*
X162070D01*
X161918Y101303D01*
X162017Y101369D01*
X162322Y101824D01*
X162429Y102362D01*
X162324Y102890D01*
X162322Y102900D01*
X162596Y103390D01*
X164083D01*
Y107130D01*
X157980D01*
Y103390D01*
X159452D01*
X159726Y102900D01*
X159724Y102890D01*
X159619Y102362D01*
X159726Y101824D01*
X160030Y101369D01*
X160129Y101303D01*
X159977Y100803D01*
X151031D01*
X150879Y101303D01*
X151025Y101400D01*
X151330Y101856D01*
X151436Y102394D01*
X151338Y102890D01*
X151345Y102955D01*
X151625Y103390D01*
X153083D01*
Y107130D01*
X146980D01*
Y103390D01*
X148438D01*
X148718Y102955D01*
X148725Y102890D01*
X148626Y102394D01*
X148733Y101856D01*
X149038Y101400D01*
X149184Y101303D01*
X149032Y100803D01*
X140023D01*
X139871Y101303D01*
X139970Y101369D01*
X140274Y101824D01*
X140381Y102362D01*
X140276Y102890D01*
X140274Y102900D01*
X140548Y103390D01*
X142083D01*
Y107130D01*
X135980D01*
Y103390D01*
X137404D01*
X137678Y102900D01*
X137676Y102890D01*
X137571Y102362D01*
X137678Y101824D01*
X137983Y101369D01*
X138082Y101303D01*
X137930Y100803D01*
X128999D01*
X128848Y101303D01*
X128946Y101369D01*
X129251Y101824D01*
X129358Y102362D01*
X129253Y102890D01*
X129251Y102900D01*
X129525Y103390D01*
X131083D01*
Y107130D01*
X124980D01*
Y103390D01*
X126381D01*
X126655Y102900D01*
X126653Y102890D01*
X126548Y102362D01*
X126655Y101824D01*
X126959Y101369D01*
X127058Y101303D01*
X126906Y100803D01*
X100803D01*
Y219197D01*
X199197D01*
Y197056D01*
D02*
G37*
G36*
X185352Y173246D02*
X186023Y172798D01*
X186043Y172733D01*
Y172306D01*
X186023Y172242D01*
X185352Y171794D01*
X184808Y170980D01*
X184617Y170020D01*
X184808Y169060D01*
X185289Y168340D01*
X185127Y167840D01*
X182824D01*
X179741Y170923D01*
X179318Y171205D01*
X178819Y171305D01*
X168641D01*
X168462Y171737D01*
X167910Y172457D01*
X167190Y173009D01*
X166352Y173356D01*
X166078Y173392D01*
X166111Y173892D01*
X184920D01*
X185352Y173246D01*
D02*
G37*
G36*
X164827Y173392D02*
X164553Y173356D01*
X163716Y173009D01*
X162996Y172457D01*
X162444Y171737D01*
X162097Y170899D01*
X161978Y170000D01*
X162097Y169101D01*
X162442Y168267D01*
X160039Y165864D01*
X152756D01*
X152410Y165795D01*
X152117Y165599D01*
X148819Y162301D01*
X147489Y163631D01*
X147196Y163827D01*
X146850Y163895D01*
X143180D01*
X143119Y163986D01*
X142664Y164290D01*
X142126Y164397D01*
X141588Y164290D01*
X141132Y163986D01*
X140828Y163530D01*
X140721Y162992D01*
X140828Y162454D01*
X141132Y161999D01*
X141588Y161694D01*
X142126Y161587D01*
X142664Y161694D01*
X143119Y161999D01*
X143180Y162089D01*
X146476D01*
X147916Y160650D01*
Y157218D01*
X147416Y157011D01*
X143946Y160481D01*
X143653Y160677D01*
X143307Y160746D01*
X139744D01*
X137055Y163435D01*
X137034Y163488D01*
X136981Y163544D01*
X136944Y163587D01*
X136914Y163627D01*
X136892Y163661D01*
X136875Y163690D01*
X136864Y163715D01*
X136858Y163733D01*
X136854Y163748D01*
X136853Y163758D01*
X136851Y163794D01*
X136823Y163853D01*
X136731Y164317D01*
X136426Y164773D01*
X135971Y165077D01*
X135433Y165184D01*
X134895Y165077D01*
X134440Y164773D01*
X134135Y164317D01*
X134028Y163779D01*
X134135Y163242D01*
X134440Y162786D01*
X134895Y162481D01*
X135360Y162389D01*
X135419Y162362D01*
X135455Y162360D01*
X135465Y162358D01*
X135479Y162355D01*
X135498Y162348D01*
X135522Y162337D01*
X135552Y162321D01*
X135586Y162298D01*
X135625Y162269D01*
X135668Y162232D01*
X135724Y162178D01*
X135777Y162158D01*
X138731Y159204D01*
X139024Y159008D01*
X139370Y158939D01*
X142933D01*
X146117Y155756D01*
X146115Y155732D01*
X146108Y155683D01*
X146100Y155643D01*
X146090Y155610D01*
X146081Y155586D01*
X146072Y155567D01*
X146065Y155555D01*
X146059Y155547D01*
X146035Y155520D01*
X146012Y155459D01*
X145749Y155065D01*
X145642Y154528D01*
X145663Y154421D01*
X127393Y136151D01*
X127197Y135857D01*
X127128Y135512D01*
Y124554D01*
X127081Y124548D01*
X126195Y124181D01*
X125434Y123597D01*
X124850Y122837D01*
X124484Y121951D01*
X124358Y121000D01*
X124484Y120049D01*
X124850Y119163D01*
X125434Y118403D01*
X126195Y117819D01*
X127081Y117452D01*
X128032Y117327D01*
X128982Y117452D01*
X129868Y117819D01*
X130629Y118403D01*
X131212Y119163D01*
X131579Y120049D01*
X131705Y121000D01*
X131579Y121951D01*
X131212Y122837D01*
X130629Y123597D01*
X129868Y124181D01*
X128982Y124548D01*
X128935Y124554D01*
Y135138D01*
X146941Y153144D01*
X147047Y153123D01*
X147565Y152740D01*
X147600Y152564D01*
X138393Y143357D01*
X138197Y143064D01*
X138128Y142718D01*
Y124554D01*
X138081Y124548D01*
X137195Y124181D01*
X136434Y123597D01*
X135851Y122837D01*
X135484Y121951D01*
X135358Y121000D01*
X135484Y120049D01*
X135851Y119163D01*
X136434Y118403D01*
X137195Y117819D01*
X138081Y117452D01*
X139032Y117327D01*
X139982Y117452D01*
X140868Y117819D01*
X141629Y118403D01*
X142212Y119163D01*
X142579Y120049D01*
X142705Y121000D01*
X142579Y121951D01*
X142212Y122837D01*
X141629Y123597D01*
X140868Y124181D01*
X139982Y124548D01*
X139935Y124554D01*
Y142344D01*
X140526Y142935D01*
X141026Y142728D01*
Y142195D01*
X140936Y142135D01*
X140631Y141679D01*
X140524Y141142D01*
X140631Y140604D01*
X140936Y140148D01*
X141392Y139844D01*
X141929Y139737D01*
X142467Y139844D01*
X142923Y140148D01*
X143227Y140604D01*
X143334Y141142D01*
X143227Y141679D01*
X142923Y142135D01*
X142832Y142195D01*
Y142736D01*
X145169Y145073D01*
X145276Y145052D01*
X145813Y145159D01*
X146269Y145463D01*
X146281Y145482D01*
X146913Y145573D01*
X147128Y145393D01*
Y142913D01*
X147197Y142568D01*
X147393Y142275D01*
X150421Y139246D01*
X150103Y138858D01*
X149750Y139093D01*
X149213Y139200D01*
X148675Y139093D01*
X148219Y138789D01*
X147915Y138333D01*
X147808Y137795D01*
X147915Y137258D01*
X148219Y136802D01*
X148675Y136497D01*
X149128Y136407D01*
Y126102D01*
X149107Y126061D01*
X149093Y125896D01*
X149056Y125746D01*
X148987Y125565D01*
X148881Y125355D01*
X148739Y125119D01*
X148565Y124871D01*
X147779Y123958D01*
X147448Y123624D01*
X147439Y123601D01*
X147434Y123597D01*
X146851Y122837D01*
X146484Y121951D01*
X146358Y121000D01*
X146359Y120994D01*
X146349Y120971D01*
X146347Y120496D01*
X146301Y119659D01*
X146259Y119312D01*
X146204Y119001D01*
X146139Y118734D01*
X146065Y118511D01*
X145986Y118334D01*
X145906Y118202D01*
X145799Y118075D01*
X145785Y118031D01*
X144508Y116754D01*
X123500D01*
X119536Y120717D01*
X119243Y120913D01*
X118898Y120982D01*
X114941D01*
X114494Y121429D01*
X114777Y121853D01*
X115282Y121644D01*
X116181Y121525D01*
X117080Y121644D01*
X117918Y121991D01*
X118638Y122543D01*
X119190Y123263D01*
X119537Y124101D01*
X119656Y125000D01*
X119537Y125899D01*
X119190Y126737D01*
X118638Y127457D01*
X117918Y128009D01*
X117080Y128356D01*
X116181Y128475D01*
X115282Y128356D01*
X114444Y128009D01*
X113724Y127457D01*
X113172Y126737D01*
X112825Y125899D01*
X112820Y125866D01*
X112320Y125899D01*
Y134101D01*
X112820Y134134D01*
X112825Y134101D01*
X113172Y133263D01*
X113724Y132543D01*
X114444Y131991D01*
X115282Y131644D01*
X116181Y131525D01*
X117080Y131644D01*
X117918Y131991D01*
X118638Y132543D01*
X119190Y133263D01*
X119537Y134101D01*
X119656Y135000D01*
X119537Y135899D01*
X119190Y136737D01*
X118638Y137457D01*
X117918Y138009D01*
X117730Y138087D01*
X117692Y138138D01*
X117658Y138472D01*
X117661Y138650D01*
X127104Y148093D01*
X127387Y148516D01*
X127486Y149015D01*
Y158712D01*
X137469Y168695D01*
X152264D01*
X152444Y168263D01*
X152996Y167543D01*
X153716Y166991D01*
X154553Y166644D01*
X155453Y166525D01*
X156352Y166644D01*
X157190Y166991D01*
X157910Y167543D01*
X158462Y168263D01*
X158809Y169101D01*
X158927Y170000D01*
X158919Y170066D01*
X162745Y173892D01*
X164794D01*
X164827Y173392D01*
D02*
G37*
%LPC*%
G36*
X127539Y112248D02*
X124488D01*
Y110378D01*
X127539D01*
Y112248D01*
D02*
G37*
G36*
X131575D02*
X128524D01*
Y110378D01*
X131575D01*
Y112248D01*
D02*
G37*
G36*
X164575Y115102D02*
X161524D01*
Y113232D01*
X164575D01*
Y115102D01*
D02*
G37*
G36*
X120118Y208937D02*
X116772D01*
Y205591D01*
X120118D01*
Y208937D01*
D02*
G37*
G36*
X106181Y128475D02*
X105282Y128356D01*
X104444Y128009D01*
X103724Y127457D01*
X103172Y126737D01*
X102825Y125899D01*
X102707Y125000D01*
X102825Y124101D01*
X103172Y123263D01*
X103724Y122543D01*
X104444Y121991D01*
X105282Y121644D01*
X106181Y121525D01*
X107080Y121644D01*
X107918Y121991D01*
X108638Y122543D01*
X109190Y123263D01*
X109537Y124101D01*
X109656Y125000D01*
X109537Y125899D01*
X109190Y126737D01*
X108638Y127457D01*
X107918Y128009D01*
X107080Y128356D01*
X106181Y128475D01*
D02*
G37*
G36*
X120118Y204409D02*
X116772D01*
Y201063D01*
X120118D01*
Y204409D01*
D02*
G37*
G36*
X106181Y208475D02*
X105282Y208356D01*
X104444Y208009D01*
X103724Y207457D01*
X103172Y206737D01*
X102825Y205899D01*
X102707Y205000D01*
X102825Y204101D01*
X103172Y203263D01*
X103724Y202543D01*
X104444Y201991D01*
X105282Y201644D01*
X106181Y201525D01*
X107080Y201644D01*
X107918Y201991D01*
X108638Y202543D01*
X109190Y203263D01*
X109537Y204101D01*
X109656Y205000D01*
X109537Y205899D01*
X109190Y206737D01*
X108638Y207457D01*
X107918Y208009D01*
X107080Y208356D01*
X106181Y208475D01*
D02*
G37*
G36*
X194421Y114854D02*
X193471Y114729D01*
X192585Y114362D01*
X191824Y113778D01*
X191240Y113018D01*
X190873Y112132D01*
X190748Y111181D01*
X190873Y110230D01*
X191240Y109344D01*
X191824Y108584D01*
X192585Y108000D01*
X193471Y107633D01*
X194421Y107508D01*
X195372Y107633D01*
X196258Y108000D01*
X197019Y108584D01*
X197602Y109344D01*
X197969Y110230D01*
X198094Y111181D01*
X197969Y112132D01*
X197602Y113018D01*
X197019Y113778D01*
X196258Y114362D01*
X195372Y114729D01*
X194421Y114854D01*
D02*
G37*
G36*
X115591Y208937D02*
X112244D01*
Y205591D01*
X115591D01*
Y208937D01*
D02*
G37*
G36*
X160539Y115102D02*
X157488D01*
Y113232D01*
X160539D01*
Y115102D01*
D02*
G37*
G36*
X153575Y112248D02*
X150524D01*
Y110378D01*
X153575D01*
Y112248D01*
D02*
G37*
G36*
X160539D02*
X157488D01*
Y110378D01*
X160539D01*
Y112248D01*
D02*
G37*
G36*
X149539D02*
X146488D01*
Y110378D01*
X149539D01*
Y112248D01*
D02*
G37*
G36*
X138539D02*
X135488D01*
Y110378D01*
X138539D01*
Y112248D01*
D02*
G37*
G36*
X142575D02*
X139524D01*
Y110378D01*
X142575D01*
Y112248D01*
D02*
G37*
G36*
X149539Y115102D02*
X146488D01*
Y113232D01*
X149539D01*
Y115102D01*
D02*
G37*
G36*
X153575D02*
X150524D01*
Y113232D01*
X153575D01*
Y115102D01*
D02*
G37*
G36*
X116181Y118475D02*
X115282Y118356D01*
X114444Y118009D01*
X113724Y117457D01*
X113172Y116737D01*
X112825Y115899D01*
X112706Y115000D01*
X112825Y114101D01*
X113172Y113263D01*
X113724Y112543D01*
X114444Y111991D01*
X115282Y111644D01*
X116181Y111525D01*
X117080Y111644D01*
X117918Y111991D01*
X118638Y112543D01*
X119190Y113263D01*
X119537Y114101D01*
X119656Y115000D01*
X119537Y115899D01*
X119190Y116737D01*
X118638Y117457D01*
X117918Y118009D01*
X117080Y118356D01*
X116181Y118475D01*
D02*
G37*
G36*
X164575Y112248D02*
X161524D01*
Y110378D01*
X164575D01*
Y112248D01*
D02*
G37*
G36*
X106181Y118475D02*
X105282Y118356D01*
X104444Y118009D01*
X103724Y117457D01*
X103172Y116737D01*
X102825Y115899D01*
X102707Y115000D01*
X102825Y114101D01*
X103172Y113263D01*
X103724Y112543D01*
X104444Y111991D01*
X105282Y111644D01*
X106181Y111525D01*
X107080Y111644D01*
X107918Y111991D01*
X108638Y112543D01*
X109190Y113263D01*
X109537Y114101D01*
X109656Y115000D01*
X109537Y115899D01*
X109190Y116737D01*
X108638Y117457D01*
X107918Y118009D01*
X107080Y118356D01*
X106181Y118475D01*
D02*
G37*
G36*
Y188475D02*
X105282Y188356D01*
X104444Y188009D01*
X103724Y187457D01*
X103172Y186737D01*
X102825Y185899D01*
X102707Y185000D01*
X102825Y184101D01*
X103172Y183263D01*
X103724Y182543D01*
X104444Y181991D01*
X105282Y181644D01*
X106181Y181525D01*
X107080Y181644D01*
X107918Y181991D01*
X108638Y182543D01*
X109190Y183263D01*
X109537Y184101D01*
X109656Y185000D01*
X109537Y185899D01*
X109190Y186737D01*
X108638Y187457D01*
X107918Y188009D01*
X107080Y188356D01*
X106181Y188475D01*
D02*
G37*
G36*
Y178475D02*
X105282Y178356D01*
X104444Y178009D01*
X103724Y177457D01*
X103172Y176737D01*
X102825Y175899D01*
X102707Y175000D01*
X102825Y174101D01*
X103172Y173263D01*
X103724Y172543D01*
X104444Y171991D01*
X105282Y171644D01*
X106181Y171525D01*
X107080Y171644D01*
X107918Y171991D01*
X108638Y172543D01*
X109190Y173263D01*
X109537Y174101D01*
X109656Y175000D01*
X109537Y175899D01*
X109190Y176737D01*
X108638Y177457D01*
X107918Y178009D01*
X107080Y178356D01*
X106181Y178475D01*
D02*
G37*
G36*
X116181Y188475D02*
X115282Y188356D01*
X114444Y188009D01*
X113724Y187457D01*
X113172Y186737D01*
X112825Y185899D01*
X112706Y185000D01*
X112825Y184101D01*
X113172Y183263D01*
X113724Y182543D01*
X114444Y181991D01*
X115282Y181644D01*
X116181Y181525D01*
X117080Y181644D01*
X117918Y181991D01*
X118638Y182543D01*
X119190Y183263D01*
X119537Y184101D01*
X119656Y185000D01*
X119537Y185899D01*
X119190Y186737D01*
X118638Y187457D01*
X117918Y188009D01*
X117080Y188356D01*
X116181Y188475D01*
D02*
G37*
G36*
Y198475D02*
X115282Y198356D01*
X114444Y198009D01*
X113724Y197457D01*
X113172Y196737D01*
X112825Y195899D01*
X112706Y195000D01*
X112825Y194101D01*
X113172Y193263D01*
X113724Y192543D01*
X114444Y191991D01*
X115282Y191644D01*
X116181Y191525D01*
X117080Y191644D01*
X117918Y191991D01*
X118638Y192543D01*
X119190Y193263D01*
X119537Y194101D01*
X119656Y195000D01*
X119537Y195899D01*
X119190Y196737D01*
X118638Y197457D01*
X117918Y198009D01*
X117080Y198356D01*
X116181Y198475D01*
D02*
G37*
G36*
X106181D02*
X105282Y198356D01*
X104444Y198009D01*
X103724Y197457D01*
X103172Y196737D01*
X102825Y195899D01*
X102707Y195000D01*
X102825Y194101D01*
X103172Y193263D01*
X103724Y192543D01*
X104444Y191991D01*
X105282Y191644D01*
X106181Y191525D01*
X107080Y191644D01*
X107918Y191991D01*
X108638Y192543D01*
X109190Y193263D01*
X109537Y194101D01*
X109656Y195000D01*
X109537Y195899D01*
X109190Y196737D01*
X108638Y197457D01*
X107918Y198009D01*
X107080Y198356D01*
X106181Y198475D01*
D02*
G37*
G36*
X155453Y163475D02*
X154553Y163356D01*
X153716Y163009D01*
X152996Y162457D01*
X152444Y161737D01*
X152097Y160899D01*
X151978Y160000D01*
X152097Y159101D01*
X152444Y158263D01*
X152996Y157543D01*
X153716Y156991D01*
X154553Y156644D01*
X155453Y156525D01*
X156352Y156644D01*
X157190Y156991D01*
X157910Y157543D01*
X158462Y158263D01*
X158809Y159101D01*
X158927Y160000D01*
X158809Y160899D01*
X158462Y161737D01*
X157910Y162457D01*
X157190Y163009D01*
X156352Y163356D01*
X155453Y163475D01*
D02*
G37*
G36*
X106181Y168475D02*
X105282Y168356D01*
X104444Y168009D01*
X103724Y167457D01*
X103172Y166737D01*
X102825Y165899D01*
X102707Y165000D01*
X102825Y164101D01*
X103172Y163263D01*
X103724Y162543D01*
X104444Y161991D01*
X105282Y161644D01*
X106181Y161525D01*
X107080Y161644D01*
X107918Y161991D01*
X108638Y162543D01*
X109190Y163263D01*
X109537Y164101D01*
X109656Y165000D01*
X109537Y165899D01*
X109190Y166737D01*
X108638Y167457D01*
X107918Y168009D01*
X107080Y168356D01*
X106181Y168475D01*
D02*
G37*
G36*
X116181Y158475D02*
X115282Y158356D01*
X114444Y158009D01*
X113724Y157457D01*
X113172Y156737D01*
X112825Y155899D01*
X112706Y155000D01*
X112825Y154101D01*
X113172Y153263D01*
X113724Y152543D01*
X114444Y151991D01*
X115282Y151644D01*
X116181Y151525D01*
X117080Y151644D01*
X117918Y151991D01*
X118638Y152543D01*
X119190Y153263D01*
X119537Y154101D01*
X119656Y155000D01*
X119537Y155899D01*
X119190Y156737D01*
X118638Y157457D01*
X117918Y158009D01*
X117080Y158356D01*
X116181Y158475D01*
D02*
G37*
G36*
X165453Y163475D02*
X164553Y163356D01*
X163716Y163009D01*
X162996Y162457D01*
X162444Y161737D01*
X162097Y160899D01*
X161978Y160000D01*
X162097Y159101D01*
X162444Y158263D01*
X162996Y157543D01*
X163716Y156991D01*
X164553Y156644D01*
X164650Y156631D01*
Y151612D01*
X159674Y146636D01*
X159449Y146680D01*
X158911Y146574D01*
X158455Y146269D01*
X158151Y145813D01*
X158058Y145349D01*
X158031Y145290D01*
X158029Y145254D01*
X158028Y145244D01*
X158024Y145229D01*
X158018Y145211D01*
X158007Y145186D01*
X157990Y145157D01*
X157967Y145123D01*
X157938Y145083D01*
X157901Y145040D01*
X157848Y144984D01*
X157827Y144931D01*
X157038Y144143D01*
X156843Y143850D01*
X156774Y143504D01*
Y136417D01*
X156843Y136072D01*
X157038Y135779D01*
X168278Y124540D01*
X168279Y124527D01*
X168315Y124501D01*
X168328Y124459D01*
X168448Y124316D01*
X168526Y124185D01*
X168591Y124024D01*
X168640Y123829D01*
X168671Y123597D01*
X168680Y123329D01*
X168666Y123035D01*
X168556Y122310D01*
X168462Y121903D01*
X168470Y121851D01*
X168358Y121000D01*
X168483Y120049D01*
X168851Y119163D01*
X169434Y118403D01*
X170195Y117819D01*
X171081Y117452D01*
X172031Y117327D01*
X172982Y117452D01*
X173868Y117819D01*
X174629Y118403D01*
X175213Y119163D01*
X175580Y120049D01*
X175705Y121000D01*
X175580Y121951D01*
X175213Y122837D01*
X174629Y123597D01*
X173868Y124181D01*
X172982Y124548D01*
X172917Y124557D01*
X172881Y124583D01*
X171851Y124840D01*
X171022Y125078D01*
X170387Y125299D01*
X170156Y125396D01*
X169978Y125485D01*
X169861Y125556D01*
X169769Y125633D01*
X169727Y125645D01*
X159453Y135918D01*
X159649Y136430D01*
X159986Y136497D01*
X160380Y136760D01*
X160442Y136783D01*
X160468Y136807D01*
X160476Y136813D01*
X160489Y136821D01*
X160507Y136829D01*
X160532Y136838D01*
X160564Y136848D01*
X160605Y136856D01*
X160653Y136863D01*
X160710Y136867D01*
X160787Y136869D01*
X160839Y136892D01*
X165862D01*
X178785Y123969D01*
X178799Y123925D01*
X178906Y123798D01*
X178986Y123666D01*
X179065Y123489D01*
X179139Y123266D01*
X179204Y122999D01*
X179257Y122700D01*
X179347Y121499D01*
X179349Y121029D01*
X179359Y121006D01*
X179358Y121000D01*
X179483Y120049D01*
X179850Y119163D01*
X180434Y118403D01*
X180561Y118306D01*
X180400Y117832D01*
X175961D01*
X175615Y117764D01*
X175322Y117568D01*
X173083Y115329D01*
X173030Y115308D01*
X172927Y115210D01*
X172837Y115133D01*
X172750Y115068D01*
X172669Y115014D01*
X172593Y114971D01*
X172522Y114938D01*
X172456Y114915D01*
X172395Y114899D01*
X172338Y114890D01*
X172256Y114886D01*
X172223Y114870D01*
X168980D01*
Y111130D01*
X175083D01*
Y114774D01*
X176335Y116026D01*
X184908D01*
X185097Y115701D01*
X185126Y115538D01*
X184658Y115069D01*
X184605Y115049D01*
X184502Y114951D01*
X184413Y114874D01*
X184327Y114810D01*
X184246Y114756D01*
X184169Y114713D01*
X184098Y114680D01*
X184031Y114656D01*
X183969Y114640D01*
X183911Y114631D01*
X183828Y114626D01*
X183795Y114610D01*
X179980D01*
Y110870D01*
X186083D01*
Y113868D01*
X186480Y114304D01*
X186498Y114354D01*
X189102Y116959D01*
X189645Y116795D01*
X189647Y116785D01*
X189951Y116329D01*
X190407Y116025D01*
X190945Y115918D01*
X190984Y115926D01*
X191370Y115608D01*
Y115571D01*
X197472D01*
Y119311D01*
X191370D01*
Y119037D01*
X190984Y118720D01*
X190945Y118728D01*
X190407Y118621D01*
X190380Y118602D01*
X189880Y118870D01*
Y124803D01*
X189811Y125149D01*
X189615Y125442D01*
X180803Y134254D01*
X180784Y134305D01*
X180616Y134487D01*
X180587Y134522D01*
X180525Y134609D01*
X180509Y134635D01*
X180496Y134659D01*
X180489Y134675D01*
X180478Y134705D01*
X180441Y134746D01*
X180432Y134790D01*
X180127Y135245D01*
X179672Y135550D01*
X179134Y135657D01*
X178596Y135550D01*
X178140Y135245D01*
X177836Y134790D01*
X177834Y134780D01*
X177292Y134616D01*
X170982Y140926D01*
Y144673D01*
X171005Y144725D01*
X171007Y144802D01*
X171011Y144859D01*
X171018Y144907D01*
X171026Y144948D01*
X171035Y144980D01*
X171045Y145005D01*
X171053Y145023D01*
X171061Y145035D01*
X171067Y145043D01*
X171091Y145070D01*
X171113Y145131D01*
X171376Y145525D01*
X171483Y146063D01*
X171376Y146600D01*
X171072Y147056D01*
X170616Y147361D01*
X170078Y147468D01*
X169541Y147361D01*
X169085Y147056D01*
X168780Y146600D01*
X168674Y146063D01*
X168780Y145525D01*
X169044Y145131D01*
X169066Y145070D01*
X169090Y145043D01*
X169096Y145035D01*
X169104Y145023D01*
X169112Y145005D01*
X169122Y144980D01*
X169131Y144948D01*
X169139Y144907D01*
X169146Y144859D01*
X169150Y144802D01*
X169152Y144725D01*
X169175Y144673D01*
Y140551D01*
X169244Y140206D01*
X169440Y139913D01*
X184462Y124890D01*
X184179Y124466D01*
X183982Y124548D01*
X183031Y124673D01*
X183026Y124672D01*
X183002Y124682D01*
X182527Y124684D01*
X181690Y124730D01*
X181343Y124772D01*
X181033Y124827D01*
X180765Y124892D01*
X180543Y124967D01*
X180365Y125046D01*
X180233Y125126D01*
X180106Y125233D01*
X180062Y125246D01*
X166875Y138434D01*
X166582Y138630D01*
X166236Y138698D01*
X160839D01*
X160787Y138722D01*
X160710Y138723D01*
X160653Y138728D01*
X160605Y138735D01*
X160564Y138743D01*
X160532Y138752D01*
X160507Y138761D01*
X160489Y138770D01*
X160476Y138777D01*
X160468Y138784D01*
X160442Y138808D01*
X160380Y138830D01*
X159986Y139093D01*
X159449Y139200D01*
X159080Y139127D01*
X158580Y139428D01*
Y143130D01*
X159105Y143654D01*
X159158Y143674D01*
X159214Y143728D01*
X159257Y143765D01*
X159296Y143794D01*
X159330Y143817D01*
X159360Y143833D01*
X159384Y143844D01*
X159403Y143851D01*
X159417Y143855D01*
X159427Y143856D01*
X159463Y143858D01*
X159522Y143885D01*
X159986Y143978D01*
X160442Y144282D01*
X160747Y144738D01*
X160854Y145276D01*
X160809Y145500D01*
X166021Y150712D01*
X166194Y150972D01*
X166256Y151280D01*
Y156631D01*
X166352Y156644D01*
X167190Y156991D01*
X167910Y157543D01*
X168462Y158263D01*
X168809Y159101D01*
X168927Y160000D01*
X168809Y160899D01*
X168462Y161737D01*
X167910Y162457D01*
X167190Y163009D01*
X166352Y163356D01*
X165453Y163475D01*
D02*
G37*
G36*
X106181Y158475D02*
X105282Y158356D01*
X104444Y158009D01*
X103724Y157457D01*
X103172Y156737D01*
X102825Y155899D01*
X102707Y155000D01*
X102825Y154101D01*
X103172Y153263D01*
X103724Y152543D01*
X104444Y151991D01*
X105282Y151644D01*
X106181Y151525D01*
X107080Y151644D01*
X107918Y151991D01*
X108638Y152543D01*
X109190Y153263D01*
X109537Y154101D01*
X109656Y155000D01*
X109537Y155899D01*
X109190Y156737D01*
X108638Y157457D01*
X107918Y158009D01*
X107080Y158356D01*
X106181Y158475D01*
D02*
G37*
G36*
X198513Y130591D02*
X190330D01*
X190394Y130102D01*
X190810Y129096D01*
X191473Y128233D01*
X192059Y127784D01*
X191889Y127284D01*
X190878D01*
Y125413D01*
X197965D01*
Y127284D01*
X196954D01*
X196784Y127784D01*
X197370Y128233D01*
X198032Y129096D01*
X198449Y130102D01*
X198513Y130591D01*
D02*
G37*
G36*
X106181Y138475D02*
X105282Y138356D01*
X104444Y138009D01*
X103724Y137457D01*
X103172Y136737D01*
X102825Y135899D01*
X102707Y135000D01*
X102825Y134101D01*
X103172Y133263D01*
X103724Y132543D01*
X104444Y131991D01*
X105282Y131644D01*
X106181Y131525D01*
X107080Y131644D01*
X107918Y131991D01*
X108638Y132543D01*
X109190Y133263D01*
X109537Y134101D01*
X109656Y135000D01*
X109537Y135899D01*
X109190Y136737D01*
X108638Y137457D01*
X107918Y138009D01*
X107080Y138356D01*
X106181Y138475D01*
D02*
G37*
G36*
X115591Y204409D02*
X112244D01*
Y201063D01*
X115591D01*
Y204409D01*
D02*
G37*
G36*
X193929Y124429D02*
X190878D01*
Y122559D01*
X193929D01*
Y124429D01*
D02*
G37*
G36*
X197965D02*
X194913D01*
Y122559D01*
X197965D01*
Y124429D01*
D02*
G37*
G36*
X154862Y199409D02*
X151516D01*
Y196063D01*
X154862D01*
Y199409D01*
D02*
G37*
G36*
X106181Y148475D02*
X105282Y148356D01*
X104444Y148009D01*
X103724Y147457D01*
X103172Y146737D01*
X102825Y145899D01*
X102707Y145000D01*
X102825Y144101D01*
X103172Y143263D01*
X103724Y142543D01*
X104444Y141991D01*
X105282Y141644D01*
X106181Y141525D01*
X107080Y141644D01*
X107918Y141991D01*
X108638Y142543D01*
X109190Y143263D01*
X109537Y144101D01*
X109656Y145000D01*
X109537Y145899D01*
X109190Y146737D01*
X108638Y147457D01*
X107918Y148009D01*
X107080Y148356D01*
X106181Y148475D01*
D02*
G37*
G36*
X159390Y199409D02*
X156043D01*
Y196063D01*
X159390D01*
Y199409D01*
D02*
G37*
G36*
X193831Y135273D02*
X193342Y135208D01*
X192336Y134792D01*
X191473Y134129D01*
X190810Y133266D01*
X190394Y132260D01*
X190330Y131772D01*
X193831D01*
Y135273D01*
D02*
G37*
G36*
X195012D02*
Y131772D01*
X198513D01*
X198449Y132260D01*
X198032Y133266D01*
X197370Y134129D01*
X196506Y134792D01*
X195500Y135208D01*
X195012Y135273D01*
D02*
G37*
%LPD*%
G36*
X160128Y138372D02*
X160180Y138334D01*
X160237Y138300D01*
X160299Y138270D01*
X160365Y138246D01*
X160437Y138225D01*
X160514Y138209D01*
X160596Y138198D01*
X160682Y138191D01*
X160774Y138189D01*
Y137402D01*
X160682Y137399D01*
X160596Y137392D01*
X160514Y137381D01*
X160437Y137365D01*
X160365Y137345D01*
X160299Y137320D01*
X160237Y137291D01*
X160180Y137257D01*
X160128Y137218D01*
X160081Y137175D01*
Y138415D01*
X160128Y138372D01*
D02*
G37*
G36*
X179996Y134473D02*
X180019Y134422D01*
X180047Y134369D01*
X180081Y134314D01*
X180164Y134198D01*
X180213Y134138D01*
X180393Y133943D01*
X180049Y133174D01*
X179982Y133237D01*
X179915Y133292D01*
X179850Y133338D01*
X179786Y133375D01*
X179722Y133403D01*
X179660Y133423D01*
X179599Y133434D01*
X179538Y133436D01*
X179479Y133429D01*
X179421Y133414D01*
X179978Y134522D01*
X179996Y134473D01*
D02*
G37*
G36*
X170656Y145383D02*
X170617Y145331D01*
X170583Y145275D01*
X170554Y145213D01*
X170529Y145146D01*
X170508Y145074D01*
X170492Y144998D01*
X170481Y144916D01*
X170474Y144829D01*
X170472Y144738D01*
X169685D01*
X169682Y144829D01*
X169676Y144916D01*
X169664Y144998D01*
X169649Y145074D01*
X169628Y145146D01*
X169603Y145213D01*
X169574Y145275D01*
X169540Y145331D01*
X169501Y145383D01*
X169458Y145430D01*
X170698D01*
X170656Y145383D01*
D02*
G37*
G36*
X159440Y144390D02*
X159376Y144387D01*
X159312Y144378D01*
X159248Y144361D01*
X159184Y144339D01*
X159119Y144309D01*
X159054Y144273D01*
X158988Y144230D01*
X158923Y144180D01*
X158857Y144123D01*
X158790Y144060D01*
X158233Y144617D01*
X158297Y144683D01*
X158353Y144749D01*
X158403Y144815D01*
X158446Y144881D01*
X158482Y144946D01*
X158512Y145011D01*
X158535Y145075D01*
X158551Y145139D01*
X158560Y145203D01*
X158563Y145267D01*
X159440Y144390D01*
D02*
G37*
G36*
X169552Y125121D02*
X169720Y125018D01*
X169935Y124912D01*
X170196Y124802D01*
X170861Y124571D01*
X171713Y124325D01*
X172752Y124066D01*
X168981Y121782D01*
X169080Y122210D01*
X169196Y122982D01*
X169213Y123326D01*
X169202Y123642D01*
X169164Y123930D01*
X169098Y124190D01*
X169005Y124422D01*
X168884Y124626D01*
X168736Y124802D01*
X169430Y125221D01*
X169552Y125121D01*
D02*
G37*
G36*
X174409Y114815D02*
X174329Y114718D01*
X174272Y114633D01*
X174238Y114559D01*
X174227Y114496D01*
X174238Y114445D01*
X174272Y114405D01*
X174329Y114377D01*
X174409Y114360D01*
X174511Y114354D01*
X172284D01*
X172393Y114360D01*
X172503Y114377D01*
X172613Y114405D01*
X172724Y114445D01*
X172835Y114496D01*
X172946Y114559D01*
X173058Y114633D01*
X173171Y114718D01*
X173284Y114815D01*
X173398Y114923D01*
X174511D01*
X174409Y114815D01*
D02*
G37*
G36*
X185579Y114106D02*
X183859Y114094D01*
X183969Y114101D01*
X184079Y114118D01*
X184189Y114147D01*
X184300Y114187D01*
X184411Y114238D01*
X184523Y114301D01*
X184635Y114374D01*
X184747Y114459D01*
X184859Y114556D01*
X184972Y114663D01*
X186086D01*
X185579Y114106D01*
D02*
G37*
G36*
X179922Y124691D02*
X180117Y124573D01*
X180349Y124469D01*
X180618Y124380D01*
X180923Y124305D01*
X181265Y124245D01*
X181644Y124199D01*
X182511Y124152D01*
X183000Y124150D01*
X179882Y121031D01*
X179880Y121520D01*
X179786Y122766D01*
X179726Y123108D01*
X179651Y123414D01*
X179562Y123682D01*
X179458Y123914D01*
X179340Y124109D01*
X179207Y124267D01*
X179764Y124824D01*
X179922Y124691D01*
D02*
G37*
G36*
X191886Y117860D02*
X191938Y117851D01*
X192021Y117842D01*
X192199Y117835D01*
X192318Y117047D01*
X192226Y117045D01*
X192140Y117037D01*
X192060Y117024D01*
X191985Y117007D01*
X191916Y116984D01*
X191886Y116971D01*
Y116654D01*
X191878Y116728D01*
X191854Y116795D01*
X191814Y116854D01*
X191764Y116900D01*
X191742Y116884D01*
X191695Y116841D01*
X191655Y116793D01*
X191630Y116971D01*
X191598Y116984D01*
X191495Y117012D01*
X191375Y117032D01*
X191239Y117043D01*
X191087Y117047D01*
Y117835D01*
X191239Y117839D01*
X191375Y117850D01*
X191495Y117870D01*
X191509Y117874D01*
X191489Y118022D01*
X191540Y117986D01*
X191594Y117954D01*
X191654Y117926D01*
X191662Y117923D01*
X191686Y117933D01*
X191758Y117976D01*
X191814Y118028D01*
X191854Y118087D01*
X191878Y118154D01*
X191886Y118228D01*
Y117860D01*
D02*
G37*
D10*
X172031Y113000D02*
D03*
Y105520D02*
D03*
X183031Y112740D02*
D03*
Y105260D02*
D03*
X150031Y112740D02*
D03*
Y105260D02*
D03*
X161031Y112740D02*
D03*
Y105260D02*
D03*
X128032Y112740D02*
D03*
Y105260D02*
D03*
X139032Y112740D02*
D03*
Y105260D02*
D03*
X194421Y124921D02*
D03*
Y117441D02*
D03*
D11*
X170078Y140551D02*
Y146063D01*
Y140551D02*
X187402Y123228D01*
X148031Y142913D02*
X154724Y136221D01*
Y127307D02*
Y136221D01*
Y127307D02*
X161031Y121000D01*
X183606Y112740D02*
X188976Y118110D01*
X175961Y116929D02*
X185039D01*
X111417Y140236D02*
X116181Y145000D01*
X111417Y123228D02*
Y140236D01*
Y123228D02*
X114567Y120079D01*
X118898D01*
X123126Y115850D01*
X144882D01*
X150031Y121000D01*
X135433Y163779D02*
X139370Y159843D01*
X143307D01*
X148819Y153937D02*
Y161024D01*
X172031Y121000D02*
Y122063D01*
X179134Y134252D02*
X179527D01*
X188976Y124803D01*
Y118110D02*
Y124803D01*
X183031Y112740D02*
X183606D01*
X187402Y119291D02*
Y123228D01*
X185039Y116929D02*
X187402Y119291D01*
X172031Y113000D02*
X175961Y116929D01*
X166236Y137795D02*
X183031Y121000D01*
X149213Y137795D02*
X150031Y136976D01*
Y121000D02*
Y136976D01*
X183031Y102402D02*
Y105260D01*
Y102402D02*
X183071Y102362D01*
X172031Y102378D02*
Y105520D01*
Y102378D02*
X172047Y102362D01*
X161024Y105252D02*
X161031Y105260D01*
X161024Y102362D02*
Y105252D01*
X191063Y117441D02*
X194421D01*
X190945Y117323D02*
X191063Y117441D01*
X150031Y102394D02*
Y105260D01*
X138976Y105205D02*
X139032Y105260D01*
X138976Y102362D02*
Y105205D01*
X127953Y105181D02*
X128032Y105260D01*
X127953Y102362D02*
Y105181D01*
X160413Y164961D02*
X165453Y170000D01*
X139032Y121000D02*
Y142718D01*
X143307Y159843D02*
X147047Y156102D01*
X128032Y121000D02*
Y135512D01*
X142126Y162992D02*
X146850D01*
X148819Y161024D01*
X152756Y164961D01*
X160413D01*
X145276Y146457D02*
Y146600D01*
X147047Y154528D02*
Y156102D01*
X128032Y135512D02*
X147047Y154528D01*
X145276Y146600D02*
X150394Y151718D01*
X139032Y142718D02*
X148819Y152506D01*
Y153937D01*
X141929Y141142D02*
Y143110D01*
X145276Y146457D01*
X148031Y142913D02*
Y146850D01*
X157677Y143504D02*
X159449Y145276D01*
X157677Y136417D02*
X172031Y122063D01*
X157677Y136417D02*
Y143504D01*
X159449Y137795D02*
X166236D01*
X150394Y151718D02*
Y154724D01*
D12*
X126182Y159253D02*
X136929Y170000D01*
X126182Y149015D02*
Y159253D01*
X116181Y139015D02*
X126182Y149015D01*
X116181Y135000D02*
Y139015D01*
X122047Y150866D02*
Y161417D01*
X116181Y145000D02*
X122047Y150866D01*
Y161417D02*
X135630Y175000D01*
X116181Y165000D02*
X136181Y185000D01*
X160453D01*
X165453Y190000D01*
X136929Y170000D02*
X155453D01*
X192126Y185020D02*
X195571Y188465D01*
Y194882D01*
X182146Y200000D02*
X192126Y190020D01*
X165453Y200000D02*
X182146D01*
X190453D02*
X195571Y194882D01*
X193701Y200000D02*
X198031Y195669D01*
Y185925D02*
Y195669D01*
X192126Y180020D02*
X198031Y185925D01*
X165453Y170000D02*
X178819D01*
X182283Y166535D01*
X194095D01*
X196063Y168504D01*
Y171653D01*
X192697Y175020D02*
X196063Y171653D01*
X192126Y175020D02*
X192697D01*
X135630Y175000D02*
X157677D01*
X162677Y180000D01*
X165453D01*
X155453Y170000D02*
X157008D01*
X162205Y175197D01*
X186949D01*
X187126Y175020D01*
X116181Y175000D02*
X146693Y205512D01*
X159941D01*
X165453Y200000D01*
D13*
Y151280D02*
Y160000D01*
X159449Y145276D02*
X165453Y151280D01*
D14*
X116181Y205000D02*
D03*
D15*
Y195000D02*
D03*
Y185000D02*
D03*
Y175000D02*
D03*
Y165000D02*
D03*
Y155000D02*
D03*
Y145000D02*
D03*
Y135000D02*
D03*
Y125000D02*
D03*
Y115000D02*
D03*
X106181Y205000D02*
D03*
Y195000D02*
D03*
Y185000D02*
D03*
Y175000D02*
D03*
Y165000D02*
D03*
Y155000D02*
D03*
Y145000D02*
D03*
Y135000D02*
D03*
Y125000D02*
D03*
Y115000D02*
D03*
X165453Y200000D02*
D03*
X155453Y190000D02*
D03*
Y180000D02*
D03*
Y170000D02*
D03*
Y160000D02*
D03*
X165453Y190000D02*
D03*
Y180000D02*
D03*
Y170000D02*
D03*
Y160000D02*
D03*
D16*
X155453Y200000D02*
D03*
D17*
X183031Y121000D02*
D03*
X172031D02*
D03*
X161031D02*
D03*
X150031D02*
D03*
X139032D02*
D03*
X128032D02*
D03*
X194421Y131181D02*
D03*
Y111181D02*
D03*
D18*
X187126Y190020D02*
D03*
Y185020D02*
D03*
Y180020D02*
D03*
Y175020D02*
D03*
Y170020D02*
D03*
X192126Y190020D02*
D03*
Y185020D02*
D03*
Y180020D02*
D03*
Y175020D02*
D03*
Y170020D02*
D03*
D19*
X170078Y146063D02*
D03*
X163681Y143602D02*
D03*
X148031Y146850D02*
D03*
X152362Y135925D02*
D03*
X135433Y163779D02*
D03*
X142126Y162992D02*
D03*
X159449Y145276D02*
D03*
X179134Y134252D02*
D03*
X149213Y137795D02*
D03*
X183071Y102362D02*
D03*
X172047D02*
D03*
X161024D02*
D03*
X190945Y117323D02*
D03*
X150031Y102394D02*
D03*
X138976Y102362D02*
D03*
X127953D02*
D03*
X190453Y200000D02*
D03*
X193701D02*
D03*
X141929Y141142D02*
D03*
X145276Y146457D02*
D03*
X150787Y154724D02*
D03*
X147047Y154528D02*
D03*
X159449Y137795D02*
D03*
M02*
