M48
;Layer_Color=9474304
;FILE_FORMAT=2:5
INCH,LZ
T5F00S00C0.09449
%
G90
G05
T05
G00X0201357Y0095475
M15
G01X0202599Y0096055
G01X0203622Y0096967
G01X0204341Y0098135
G01X0204724Y01
G01X0204724Y022
G01X0204525Y0221357
G01X0203945Y0222599
G01X0203033Y0223622
G01X0201865Y0224341
G01X02Y0224724
G01X01Y0224724
G01X0098643Y0224525
G01X0097401Y0223945
G01X0096378Y0223033
G01X0095659Y0221865
G01X0095276Y022
G01X0095276Y01
G01X0095475Y0098643
G01X0096055Y0097401
G01X0096967Y0096378
G01X0098135Y0095659
G01X01Y0095276
G01X02Y0095276
G01X0201357Y0095475
M16
M17
M30
