M48
;Layer_Color=9474304
;FILE_FORMAT=2:5
INCH,LZ
;TYPE=PLATED
T1F00S00C0.00787
T2F00S00C0.02756
T3F00S00C0.03937
T4F00S00C0.04016
;TYPE=NON_PLATED
%
T01
X0127953Y0102362
X0138976
X0150031Y0102394
X0152362Y0135925
X0149213Y0137795
X0148031Y014685
X0145276Y0146457
X0141929Y0141142
X0147047Y0154528
X0150787Y0154724
X0159449Y0145276
X0163681Y0143602
X0170078Y0146063
X0159449Y0137795
X0179134Y0134252
X0190945Y0117323
X0183071Y0102362
X0172047
X0161024
X0190453Y02
X0193701
X0142126Y0162992
X0135433Y0163779
T02
X0187126Y017002
Y017502
Y018002
Y018502
Y019002
X0192126
Y018502
Y018002
Y017502
Y017002
T03
X0165453Y016
Y017
Y018
Y019
Y02
X0155453
Y019
Y018
Y017
Y016
T04
X0106181Y0115
X0116181
Y0125
Y0135
Y0145
Y0155
X0106181
Y0145
Y0135
Y0125
X0128032Y0121
X0139032
X0150031
X0161031
X0172031
X0183031
X0194421Y0111181
Y0131181
X0116181Y0165
Y0175
Y0185
Y0195
Y0205
X0106181
Y0195
Y0185
Y0175
Y0165
M30
