M48
;Layer_Color=9474304
;FILE_FORMAT=2:5
INCH,LZ
;TYPE=PLATED
T1F00S00C0.00787
T2F00S00C0.02362
T3F00S00C0.02756
T4F00S00C0.03504
T5F00S00C0.06299
;TYPE=NON_PLATED
%
T01
X0004626Y0009843
X0006791Y0009941
X0018779Y0011929
X0018602Y0005512
X0018898Y-0000984
X0021457Y0001575
X0023917Y-0001181
X0025591Y00125
X0030177Y0012776
X0032638Y0012874
X003313Y0007756
X0041945Y0000984
X0041723Y-000129
X0041734Y-0004429
X0044996Y-0004035
X0043602Y-0008465
X0039075Y-0008661
X0034154
X0052559Y-0005118
X0055807Y-0007776
X005748Y0000394
X0061024Y-0000787
X0062106Y0002854
X0060117Y0007795
Y0010157
Y0012322
X0055137Y0008968
X0050886Y0007382
X0048346Y0012952
X0048425Y0016024
X0050984Y0015748
X0049212Y0018346
X0050117Y0020787
X0049685Y0023858
X0051889Y0025504
X0050984Y0028543
X0044882Y0029921
X004485Y0034047
X0045511Y0036692
X0047401Y0037874
X0047598Y0035669
X0051062Y0037637
X0052953Y0041535
X0054921
X0058858
X0060827
X0062992Y0041732
X0061811Y0044539
Y0048425
Y0052362
Y0056299
Y0060185
X0062795Y0063189
X0060827
X0058858
X005689
X0054921
X0052953
X0050984Y0061221
Y0059252
Y0057284
Y0055315
Y0053347
Y0049409
Y0047441
Y0045472
Y0043504
X0044299Y0042152
X0043661Y0044724
X0045551Y0046496
X0042243Y0049724
X0039212Y0048425
X0037913Y0045944
X0032538Y0048681
X0032834Y0052677
X0028976Y0052716
X0028463Y0049226
X0024821Y004893
X0021277Y00534
X0022Y0056614
X0019941Y00625
X0025039Y0061653
X0032834Y0056614
X0041417Y0055
X0040314Y0053031
X0045393Y0054606
X0045235Y0058188
X0044882Y0062126
X0045276Y0065236
X0041634Y0060728
X0037106Y0065354
X0037795Y0069685
X0048386Y0070945
X005315Y0070079
X005748Y0069685
X0061811Y0067126
X0064764Y0063189
X0066732
X0072543Y0061315
X0072638Y0059252
X0072638Y0057284
X0072638Y0055315
Y0053347
X0072641Y0051282
X0069634Y0052362
X0065748
X0057874
X0053988
X0047126Y0051968
X005748Y003937
X0056298Y0035984
X0056693Y0032677
X0059665Y0034166
X0061338Y0035741
X006311Y0032985
X0063405Y0026291
X0060039Y0025433
X005618Y0025511
X0055937Y0021268
X0067835Y0025512
X0073661Y0024567
X0076772Y0024803
X0091731Y0027952
X0091338Y0055059
Y0068897
X0090158Y0084301
X0086417Y0085039
X0075984Y0082677
X0069685
X0069685Y0085532
X0069095Y0089075
X0065275Y008594
X0063799Y0082987
X00637Y008033
X006183Y0081708
X005996Y0078164
X0062224Y0075999
X0064468Y0076083
X0070079Y007559
X0072874Y0069313
X0074803Y0061024
X0078541Y0057282
X0077165Y0055512
X0077756Y0050197
X007815Y0047539
X0079567Y0044016
X0072638Y0045472
X0066732Y0037402
X0035531Y0033444
X0033861Y0031774
X0030118Y0037716
X0023185Y0034799
X0018602Y003622
X001606Y0032394
X0020374Y0025787
X0022163Y002324
X0024508Y0023031
X0030118Y0025669
X003937Y0026378
X0040354Y0022402
X0040453Y0017421
X0043347Y0017205
X0045591Y0014291
X0016732Y0020276
X0003543Y0029823
X0004035Y0034449
X0005669Y0040748
X0004055Y004374
X0013581Y0045276
X001441Y0053504
X004813Y0077559
X0049508Y0084449
X0049625Y0086629
X0046358Y0086713
X0040668Y0088893
X0054331Y0074016
X0072441Y0002461
X0075984Y0005039
X0065236Y-0005748
X0065472Y0100508
X0062205Y0100098
X0062204Y0102362
X0059007Y0101634
X005748Y0100098
X0055905Y0101586
X0054331Y0100098
X0052775Y0101689
X0051181Y0100197
X0049606Y010187
X0047243Y0101574
X0043818Y0101197
X0040846Y009813
X0069882Y0098425
T02
X0031496Y0074803
X0036496Y0074803
Y0081693
X0031496Y0081693
T03
X0083189Y0029469
Y0034468
Y0039469
Y0044469
Y0049468
X0088189
Y0044469
Y0039469
Y0034468
Y0029469
T04
X0011811Y0001969
Y0009843
Y0017717
Y0025591
Y0033465
Y0041339
Y0049213
Y0057087
Y0064961
Y0072835
X0098425
Y0064961
Y0057087
Y0049213
Y0041339
Y0033465
Y0025591
Y0017717
Y0009843
Y0001969
T05
X0035433Y009252
X0074803
M30
