M48
;Layer_Color=9474304
;FILE_FORMAT=2:5
INCH,LZ
T6F00S00C0.09449
%
G90
G05
T06
G00X0099782Y-0016336
M15
G01X0101024Y-0015756
G01X0101766Y-0015152
G01X0113577Y-0003341
G01X0114395Y-0002241
G01X0114864Y-0000952
G01X0114961Y0
G01X0114961Y0074803
G01X0114762Y007616
G01X0114182Y0077402
G01X0113577Y0078144
G01X0101766Y0089955
G01X0100666Y0090773
G01X0099377Y0091242
G01X0098425Y0091339
G01X0092256Y0091339
G01X0079318Y0109083
G01X0078358Y0110062
G01X0077157Y0110724
G01X00755Y0111024
G01X0034589Y0111024
G01X0033233Y0110825
G01X0031991Y0110245
G01X0030745Y0109045
G01X0018097Y0091339
G01X0011811Y0091339
G01X0010454Y009114
G01X0009212Y009056
G01X000847Y0089955
G01X-0003341Y0078144
G01X-0004159Y0077044
G01X-0004627Y0075755
G01X-0004724Y0074803
G01X-0004724Y0
G01X-0004525Y-0001357
G01X-0003945Y-0002599
G01X-0003341Y-0003341
G01X000847Y-0015152
G01X000957Y-001597
G01X0010859Y-0016438
G01X0011811Y-0016535
G01X0098425Y-0016535
G01X0099782Y-0016336
M16
M17
M30
