G04*
G04 #@! TF.GenerationSoftware,Altium Limited,Altium NEXUS,2.0.14 (187)*
G04*
G04 Layer_Physical_Order=4*
G04 Layer_Color=16711680*
%FSLAX25Y25*%
%MOIN*%
G70*
G01*
G75*
%ADD11C,0.00591*%
%ADD12C,0.00394*%
%ADD13C,0.00787*%
%ADD14C,0.00000*%
%ADD31R,0.02441X0.02441*%
%ADD32R,0.02441X0.02441*%
%ADD34R,0.02165X0.02165*%
%ADD47O,0.04429X0.00886*%
%ADD48O,0.04378X0.00984*%
%ADD49O,0.04476X0.00787*%
%ADD50O,0.04323X0.01083*%
%ADD51O,0.04260X0.01181*%
%ADD52O,0.02992X0.01968*%
%ADD53O,0.04185X0.01280*%
%ADD54O,0.04095X0.01378*%
%ADD55O,0.03988X0.01476*%
%ADD56O,0.03862X0.01575*%
%ADD57O,0.03713X0.01673*%
%ADD58O,0.03532X0.01772*%
%ADD59O,0.03406X0.01831*%
%ADD60O,0.03307X0.01870*%
%ADD61O,0.03150X0.01929*%
%ADD62O,0.02480X0.02047*%
%ADD63O,0.02795X0.02008*%
%ADD64C,0.02067*%
%ADD79C,0.00492*%
%ADD80C,0.01000*%
%ADD82C,0.01968*%
%ADD83C,0.03937*%
%ADD84R,0.03937X0.03937*%
%ADD85R,0.03543X0.03543*%
%ADD86C,0.03543*%
%ADD87R,0.05512X0.05512*%
%ADD88C,0.05512*%
%ADD89C,0.09843*%
%ADD90C,0.01575*%
%ADD91C,0.01575*%
%ADD103R,0.04016X0.02598*%
%ADD104R,0.05000X0.02598*%
%ADD105R,0.02047X0.02047*%
%ADD106R,0.07480X0.04331*%
%ADD107R,0.01968X0.01850*%
%ADD108R,0.00945X0.01772*%
%ADD109R,0.02362X0.03740*%
%ADD110R,0.03740X0.03150*%
%ADD111R,0.03150X0.06693*%
G04:AMPARAMS|DCode=112|XSize=15.75mil|YSize=47.24mil|CornerRadius=1.97mil|HoleSize=0mil|Usage=FLASHONLY|Rotation=180.000|XOffset=0mil|YOffset=0mil|HoleType=Round|Shape=RoundedRectangle|*
%AMROUNDEDRECTD112*
21,1,0.01575,0.04331,0,0,180.0*
21,1,0.01181,0.04724,0,0,180.0*
1,1,0.00394,-0.00591,0.02165*
1,1,0.00394,0.00591,0.02165*
1,1,0.00394,0.00591,-0.02165*
1,1,0.00394,-0.00591,-0.02165*
%
%ADD112ROUNDEDRECTD112*%
%ADD113R,0.15000X0.15394*%
D11*
X91338Y67323D02*
Y71653D01*
X91339Y71653D01*
X91338Y67323D02*
X91339Y67323D01*
X40039Y36474D02*
Y46338D01*
X37894Y45643D02*
X38976Y44560D01*
Y37082D02*
Y44560D01*
X38551Y36656D02*
X38976Y37082D01*
X39212Y47165D02*
X40039Y46338D01*
X39732Y36167D02*
X40039Y36474D01*
X39732Y33630D02*
Y36167D01*
X38551Y36346D02*
Y36656D01*
X38268Y36063D02*
X38551Y36346D01*
X37655Y36063D02*
X38268D01*
X37280Y36437D02*
X37655Y36063D01*
X35672Y36437D02*
X37280D01*
X22047Y14370D02*
Y23124D01*
X33861Y34626D02*
X35672Y36437D01*
X39212Y48425D02*
X39566Y48779D01*
X39212Y47165D02*
Y48425D01*
X39075Y32972D02*
X39732Y33630D01*
X37244Y33917D02*
Y34803D01*
Y33917D02*
X38189Y32972D01*
X39075D01*
X36161Y35256D02*
X36791D01*
X37244Y34803D01*
X35531Y34626D02*
X36161Y35256D01*
X35531Y33444D02*
Y34626D01*
X40668Y88893D02*
X43381D01*
X66732Y98189D02*
X66969Y98425D01*
X69882D01*
X22047Y23124D02*
X22163Y23240D01*
D12*
X74101Y55315D02*
X74889Y54528D01*
X76634Y54094D02*
X82318D01*
X73756Y52077D02*
X89269D01*
X73862Y53740D02*
X75875D01*
X76307Y53307D02*
X81992D01*
X72961Y51282D02*
X73756Y52077D01*
X72641Y51282D02*
X72961D01*
X73694Y53572D02*
X73862Y53740D01*
X72864Y53572D02*
X73694D01*
X72638Y53347D02*
X72864Y53572D01*
X75875Y53740D02*
X76307Y53307D01*
X76201Y54528D02*
X76634Y54094D01*
X74889Y54528D02*
X76201D01*
X81992Y53307D02*
X82336Y52963D01*
X82318Y54094D02*
X82564Y53848D01*
X87427D01*
X82336Y52963D02*
X89636D01*
X72638Y55315D02*
X74101D01*
X89636Y52963D02*
X90367Y52232D01*
X89269Y52077D02*
X90551Y50795D01*
X90072Y53865D02*
X92569Y51368D01*
X90453Y52232D02*
X91683Y51002D01*
X90367Y52232D02*
X90453D01*
X90551Y50832D02*
X90797Y50586D01*
X90551Y50795D02*
Y50832D01*
X89016Y29469D02*
X92569Y33022D01*
X89646Y39469D02*
X91683Y41505D01*
Y51002D01*
X88189Y29469D02*
X89016D01*
X88189Y44469D02*
X90797Y47077D01*
Y50586D01*
X88189Y39469D02*
X89646D01*
X87427Y53848D02*
X87443Y53865D01*
X90072D01*
X92569Y33022D02*
Y51368D01*
D13*
X78541Y57282D02*
X78740Y57480D01*
X59040Y55899D02*
X61811D01*
X81693Y61024D02*
X83760D01*
X66732Y89075D02*
X69095D01*
X62992Y32564D02*
Y33071D01*
X46457Y87402D02*
Y89035D01*
X43386Y98130D02*
X43504Y98248D01*
X13287Y45276D02*
X15354Y47343D01*
X61811Y52362D02*
Y55899D01*
Y48622D02*
Y52362D01*
X58213Y56726D02*
X59040Y55899D01*
X40314Y53031D02*
X40314D01*
X37894Y45944D02*
Y45965D01*
Y45643D02*
Y45944D01*
X78740Y57480D02*
X79713D01*
X17094Y46523D02*
X17913Y47343D01*
X17094Y39303D02*
Y46523D01*
Y39303D02*
X18504Y37894D01*
X13287Y45276D02*
X13581D01*
X15354Y47343D02*
Y48338D01*
X17902Y50886D01*
X17913D01*
X22244Y37894D02*
X29941D01*
X18504D02*
X22244D01*
X29941D02*
X30118Y37716D01*
X57284Y15748D02*
X58760Y17224D01*
X50984Y15748D02*
X57284D01*
X58260Y21268D02*
X58760Y20768D01*
X55937Y21268D02*
X58260D01*
X11811Y9843D02*
X17795Y3858D01*
X19295Y3839D02*
X19315Y3858D01*
X17909Y3839D02*
X19295D01*
X17890Y3858D02*
X17909Y3839D01*
X17795Y3858D02*
X17890D01*
X19882Y10827D02*
X22047D01*
X18779Y11929D02*
X19882Y10827D01*
X60433Y30005D02*
X62992Y32564D01*
X85630Y59051D02*
X87008Y57673D01*
Y56693D02*
Y57673D01*
X86221Y55905D02*
X87008Y56693D01*
X85532Y55905D02*
X86221D01*
X79713Y57480D02*
X80501Y58268D01*
X84847D01*
X85630Y59051D01*
X37500Y16713D02*
X39055Y15157D01*
X83465Y-7382D02*
Y1476D01*
X79724Y-7382D02*
Y1476D01*
X86693Y7894D02*
X89705D01*
X90295Y7303D01*
Y6122D02*
Y7303D01*
X89488Y5315D02*
X90295Y6122D01*
X83661Y4567D02*
X84409Y5315D01*
X83465Y4567D02*
X83661D01*
X82874Y5158D02*
X83465Y4567D01*
X80630Y5158D02*
X82874D01*
X79724Y4252D02*
X80630Y5158D01*
X83465Y1476D02*
Y4567D01*
X79724Y1476D02*
Y4252D01*
X44371Y49724D02*
X44587Y49508D01*
X85630Y59051D02*
Y59153D01*
X83760Y61024D02*
X85630Y59153D01*
X40846Y98130D02*
X43386D01*
X41299Y15157D02*
X43347Y17205D01*
X39055Y15157D02*
X41299D01*
X75984Y1476D02*
Y5039D01*
X49606Y86648D02*
Y88779D01*
Y86648D02*
X49625Y86629D01*
X64980Y100508D02*
X65472D01*
X66000D01*
X49606Y98287D02*
Y99405D01*
X49508Y99504D02*
X49606Y99405D01*
X49508Y99504D02*
Y100890D01*
X49606Y100988D01*
Y101870D01*
X63779Y98287D02*
Y99213D01*
X63732Y99260D02*
X63779Y99213D01*
X63732Y99260D02*
X64980Y100508D01*
X60630Y98287D02*
Y99307D01*
X60532Y99405D02*
X60630Y99307D01*
X60532Y99405D02*
Y100792D01*
X62102Y102362D01*
X62204D01*
X89370Y5315D02*
X89646Y5039D01*
Y984D02*
Y5039D01*
X84409Y5315D02*
X89370D01*
X89488D01*
X62224Y75764D02*
Y75999D01*
Y75764D02*
X63972Y74016D01*
X64665Y71358D02*
X64961Y71063D01*
X63972Y74016D02*
X63976D01*
X64665Y73327D01*
Y71358D02*
Y73327D01*
X42243Y49724D02*
X44371D01*
X37500Y16713D02*
Y19587D01*
X60433Y29921D02*
Y30005D01*
X37795Y65945D02*
X40551D01*
X37205Y65354D02*
X37795Y65945D01*
X37992Y69488D02*
X40551D01*
X37795Y69685D02*
X37992Y69488D01*
X19315Y3858D02*
X58245D01*
X61218Y886D01*
X62106D01*
X70374Y-7382D01*
X75984D01*
D14*
X34589Y106299D02*
X75500D01*
X89854Y86614D01*
X98425Y86614D01*
X110236Y74803D01*
Y0D02*
Y74803D01*
X98425Y-11811D02*
X110236Y0D01*
X11811Y-11811D02*
X98425Y-11811D01*
X0Y0D02*
X11811Y-11811D01*
X0Y0D02*
Y74803D01*
X11811Y86614D01*
X20529D01*
X34589Y106299D01*
D31*
X21949Y47244D02*
D03*
Y50787D02*
D03*
X58760Y17224D02*
D03*
Y20768D02*
D03*
X65650Y47441D02*
D03*
Y43898D02*
D03*
X45197Y71339D02*
D03*
Y67795D02*
D03*
X69951Y44390D02*
D03*
Y40846D02*
D03*
X50984Y31890D02*
D03*
Y35433D02*
D03*
X70374Y70374D02*
D03*
Y66831D02*
D03*
X64764Y70571D02*
D03*
Y67028D02*
D03*
X17913Y50886D02*
D03*
Y47343D02*
D03*
X22047Y14370D02*
D03*
Y10827D02*
D03*
X40551Y65945D02*
D03*
Y69488D02*
D03*
D32*
X81693Y60236D02*
D03*
X78150D02*
D03*
X85236Y55905D02*
D03*
X81693D02*
D03*
X44587Y49508D02*
D03*
X48130D02*
D03*
X71653Y48720D02*
D03*
X75197D02*
D03*
X58213Y56726D02*
D03*
X54669D02*
D03*
X56890Y29921D02*
D03*
X60433D02*
D03*
D34*
X66693Y79803D02*
D03*
X70236D02*
D03*
X75984Y85236D02*
D03*
X72441D02*
D03*
D47*
X26496Y57234D02*
D03*
Y58711D02*
D03*
X74114Y29774D02*
D03*
Y31250D02*
D03*
X34606Y61565D02*
D03*
Y63041D02*
D03*
X65945Y29872D02*
D03*
Y31348D02*
D03*
D48*
X26496Y57185D02*
D03*
Y58760D02*
D03*
X74114Y29724D02*
D03*
Y31299D02*
D03*
X34606Y61516D02*
D03*
Y63091D02*
D03*
X65945Y29823D02*
D03*
Y31398D02*
D03*
D49*
X26496Y57284D02*
D03*
Y58661D02*
D03*
X74114Y29823D02*
D03*
Y31201D02*
D03*
X34606Y61614D02*
D03*
Y62992D02*
D03*
X65945Y29921D02*
D03*
Y31299D02*
D03*
D50*
X26496Y57136D02*
D03*
Y58809D02*
D03*
X74114Y29675D02*
D03*
Y31348D02*
D03*
X34606Y61466D02*
D03*
Y63140D02*
D03*
X65945Y29774D02*
D03*
Y31447D02*
D03*
D51*
X26496Y57087D02*
D03*
Y58858D02*
D03*
X74114Y29626D02*
D03*
Y31398D02*
D03*
X34606Y61417D02*
D03*
Y63189D02*
D03*
X65945Y29724D02*
D03*
Y31496D02*
D03*
D52*
X26496Y56693D02*
D03*
Y59252D02*
D03*
X74114Y29232D02*
D03*
Y31791D02*
D03*
X34606Y61024D02*
D03*
Y63583D02*
D03*
X65945Y29331D02*
D03*
Y31890D02*
D03*
D53*
X26496Y57037D02*
D03*
Y58908D02*
D03*
X74114Y29577D02*
D03*
Y31447D02*
D03*
X34606Y61368D02*
D03*
Y63238D02*
D03*
X65945Y29675D02*
D03*
Y31545D02*
D03*
D54*
X26496Y56988D02*
D03*
Y58957D02*
D03*
X74114Y29528D02*
D03*
Y31496D02*
D03*
X34606Y61319D02*
D03*
Y63287D02*
D03*
X65945Y29626D02*
D03*
Y31594D02*
D03*
D55*
X26496Y56939D02*
D03*
Y59006D02*
D03*
X74114Y29478D02*
D03*
Y31545D02*
D03*
X34606Y61270D02*
D03*
Y63337D02*
D03*
X65945Y29577D02*
D03*
Y31644D02*
D03*
D56*
X26496Y56890D02*
D03*
Y59055D02*
D03*
X74114Y29429D02*
D03*
Y31594D02*
D03*
X34606Y61221D02*
D03*
Y63386D02*
D03*
X65945Y29528D02*
D03*
Y31693D02*
D03*
D57*
X26496Y56841D02*
D03*
Y59104D02*
D03*
X74114Y29380D02*
D03*
Y31644D02*
D03*
X34606Y61171D02*
D03*
Y63435D02*
D03*
X65945Y29478D02*
D03*
Y31742D02*
D03*
D58*
X26496Y56791D02*
D03*
Y59153D02*
D03*
X74114Y29331D02*
D03*
Y31693D02*
D03*
X34606Y61122D02*
D03*
Y63484D02*
D03*
X65945Y29429D02*
D03*
Y31791D02*
D03*
D59*
X26496Y56762D02*
D03*
Y59183D02*
D03*
X74114Y29301D02*
D03*
Y31722D02*
D03*
X34606Y61093D02*
D03*
Y63514D02*
D03*
X65945Y29400D02*
D03*
Y31821D02*
D03*
D60*
X26496Y56742D02*
D03*
Y59203D02*
D03*
X74114Y29281D02*
D03*
Y31742D02*
D03*
X34606Y61073D02*
D03*
Y63534D02*
D03*
X65945Y29380D02*
D03*
Y31841D02*
D03*
D61*
X26496Y56713D02*
D03*
Y59232D02*
D03*
X74114Y29252D02*
D03*
Y31772D02*
D03*
X34606Y61043D02*
D03*
Y63563D02*
D03*
X65945Y29350D02*
D03*
Y31870D02*
D03*
D62*
X26496Y56653D02*
D03*
Y59291D02*
D03*
X74114Y29193D02*
D03*
Y31831D02*
D03*
X34606Y60984D02*
D03*
Y63622D02*
D03*
X65945Y29291D02*
D03*
Y31929D02*
D03*
D63*
X26496Y56673D02*
D03*
Y59272D02*
D03*
X74114Y29213D02*
D03*
Y31811D02*
D03*
X34606Y61004D02*
D03*
Y63602D02*
D03*
X65945Y29311D02*
D03*
Y31909D02*
D03*
D64*
X26496Y56644D02*
D03*
Y59301D02*
D03*
X74114Y29183D02*
D03*
Y31841D02*
D03*
X34606Y60974D02*
D03*
Y63632D02*
D03*
X65945Y29281D02*
D03*
Y31939D02*
D03*
D79*
Y28804D02*
Y29281D01*
X63432Y26291D02*
X65945Y28804D01*
X27500Y59961D02*
X27795Y59665D01*
X27451Y60010D02*
X27500Y59961D01*
X27402Y60059D02*
X27451Y60010D01*
X70817Y31348D02*
X74114D01*
X64952Y24803D02*
X70817Y30668D01*
X62973Y24803D02*
X64952D01*
X61811Y23641D02*
X62973Y24803D01*
X85236Y64961D02*
X91339D01*
X85039Y64764D02*
X85236Y64961D01*
X81600Y66486D02*
X83322Y64764D01*
X85039D01*
X81600Y66486D02*
Y68609D01*
X81311Y68898D02*
X81600Y68609D01*
X80315Y68898D02*
X81311D01*
X79921Y68504D02*
X80315Y68898D01*
X79921Y64567D02*
Y68504D01*
X77953Y62598D02*
X79921Y64567D01*
X74803Y62598D02*
X77953D01*
X74216Y62011D02*
X74803Y62598D01*
X74216Y61811D02*
Y62011D01*
Y61811D02*
X74803Y61224D01*
Y61024D02*
Y61224D01*
X81642Y72587D02*
Y72687D01*
X83561Y74606D01*
X85039D01*
X81545Y72490D02*
X81642Y72587D01*
X81545Y70963D02*
Y72490D01*
X80464Y69882D02*
X81545Y70963D01*
X79724Y69882D02*
X80464D01*
X78937Y69095D02*
X79724Y69882D01*
X78937Y65158D02*
Y69095D01*
X77264Y63484D02*
X78937Y65158D01*
X74436Y63484D02*
X77264D01*
X73330Y62378D02*
X74436Y63484D01*
X73330Y62103D02*
Y62378D01*
X72684Y61456D02*
X73330Y62103D01*
X72543Y61315D02*
X72684Y61456D01*
X85328Y74016D02*
Y74318D01*
X85039Y74606D02*
X85328Y74318D01*
Y74016D02*
X91339D01*
X71116Y60724D02*
Y61906D01*
X71952Y62743D01*
X72003D01*
X75984Y66724D01*
X68836Y61319D02*
X74410Y66892D01*
X71161Y58169D02*
Y60678D01*
X71116Y60724D02*
X71161Y60678D01*
Y58169D02*
X72047Y57284D01*
X72638D01*
X47401Y38267D02*
X47647Y38021D01*
X43631Y43503D02*
Y44694D01*
X42872Y42744D02*
X43631Y43503D01*
X42872Y41758D02*
Y42744D01*
X42863Y41750D02*
X42872Y41758D01*
X44299Y42152D02*
Y42292D01*
Y42152D02*
Y42300D01*
X45346Y43347D01*
X44299Y42300D02*
X44517Y42518D01*
X69634Y50740D02*
Y52362D01*
Y50740D02*
X71653Y48720D01*
X65650Y47441D02*
X68281Y44810D01*
X69532D01*
X69951Y44390D01*
X70177Y44616D01*
X62008Y48425D02*
X62992Y47441D01*
X61811Y48425D02*
X62008D01*
X62992Y47441D02*
X65650D01*
X64124Y51689D02*
X65773Y50041D01*
X66395D01*
X68044Y48392D01*
Y47769D02*
Y48392D01*
Y47769D02*
X68953Y46860D01*
X21139Y53400D02*
X22047Y52491D01*
X68953Y46860D02*
X71250D01*
X64124Y58514D02*
X66929Y61319D01*
X64124Y51689D02*
Y58514D01*
X47401Y37874D02*
Y38267D01*
X42863Y35471D02*
Y41750D01*
X41890Y35750D02*
Y45157D01*
X41004Y36117D02*
Y48806D01*
X54921Y39291D02*
Y41535D01*
X52845Y41427D02*
X52953Y41535D01*
X48524Y63681D02*
X50984Y61221D01*
X50934Y55315D02*
X50984D01*
X45088Y58336D02*
X45235Y58188D01*
X44496Y56575D02*
X46299D01*
X44009Y57062D02*
X44496Y56575D01*
X42764Y57062D02*
X44009D01*
X44605Y54606D02*
X45393D01*
X46025Y53080D02*
X46832Y53888D01*
X44761Y53080D02*
X46025D01*
X43953Y53888D02*
X44761Y53080D01*
X43573Y53888D02*
X43953D01*
X41417Y55000D02*
X42224D01*
X40344Y56525D02*
X42048D01*
X39977Y57411D02*
X42415D01*
X42652Y58336D02*
X42743D01*
X42633Y58317D02*
X42652Y58336D01*
X40635Y58317D02*
X42633D01*
X40616Y58336D02*
X40635Y58317D01*
X39156Y58336D02*
X40616D01*
X42285Y59222D02*
X43769D01*
X42266Y59203D02*
X42285Y59222D01*
X41002Y59203D02*
X42266D01*
X40983Y59222D02*
X41002Y59203D01*
X38789Y59222D02*
X40983D01*
X41634Y60728D02*
X41831Y60532D01*
X40337Y62549D02*
X44459D01*
X43158Y56053D02*
X44605Y54606D01*
X42520Y56053D02*
X43158D01*
X42048Y56525D02*
X42520Y56053D01*
X71250Y46860D02*
X72638Y45472D01*
X78041Y36946D02*
Y47923D01*
X79567Y44016D02*
X79724Y43858D01*
X64764Y63189D02*
Y63239D01*
X56890Y63189D02*
Y68118D01*
X50039Y59252D02*
X50984D01*
X49911Y66230D02*
X52953Y63189D01*
X38789Y50210D02*
Y54970D01*
X37903Y52766D02*
Y55337D01*
Y52766D02*
X37903Y52766D01*
Y50577D02*
Y52766D01*
X35835Y48510D02*
X37903Y50577D01*
X37017Y52399D02*
Y56197D01*
Y52399D02*
X37017Y52399D01*
Y50944D02*
Y52399D01*
X34950Y48877D02*
X37017Y50944D01*
X36131Y51311D02*
Y56564D01*
X34064Y49244D02*
X36131Y51311D01*
X35245Y51678D02*
Y57457D01*
X34143Y50575D02*
X35245Y51678D01*
X34359Y52045D02*
Y57824D01*
X33466Y51151D02*
X34359Y52045D01*
X49911Y66230D02*
Y84045D01*
X75984Y66724D02*
Y82677D01*
X74410Y66892D02*
Y73819D01*
X60827Y41150D02*
Y41535D01*
X61338Y35741D02*
Y36904D01*
X59948Y38294D02*
X61338Y36904D01*
X59948Y38294D02*
Y40396D01*
X58858Y41486D02*
X59948Y40396D01*
X59665Y34166D02*
Y37185D01*
X57480Y39370D02*
X59665Y37185D01*
X56298Y35984D02*
X57952Y34330D01*
X62359Y34596D02*
X65010D01*
X61466Y33702D02*
X62359Y34596D01*
X38789Y54970D02*
X40344Y56525D01*
X37903Y55337D02*
X39977Y57411D01*
X43769Y59222D02*
X44193Y59646D01*
X60285Y65207D02*
Y76218D01*
X48425Y53888D02*
X50974Y51339D01*
X46832Y53888D02*
X48425D01*
X42415Y57411D02*
X42764Y57062D01*
X43011Y58068D02*
X43762D01*
X42743Y58336D02*
X43011Y58068D01*
X37017Y56197D02*
X39156Y58336D01*
X36131Y56564D02*
X38789Y59222D01*
X40216Y63681D02*
X48524D01*
X54724Y63386D02*
X54921Y63189D01*
X59006Y63337D02*
Y76140D01*
X54905Y38023D02*
X55807Y38924D01*
X54905Y36748D02*
Y38023D01*
X54773Y36616D02*
X54905Y36748D01*
X54773Y35352D02*
Y36616D01*
X57952Y33721D02*
X59390Y32283D01*
X50984Y49409D02*
Y51339D01*
X61466Y33119D02*
Y33702D01*
X60630Y32283D02*
X61466Y33119D01*
X63349Y31459D02*
X64530D01*
X62992Y31102D02*
X63349Y31459D01*
X62992Y29134D02*
Y31102D01*
X60827Y63189D02*
Y64665D01*
X58858Y41486D02*
Y41535D01*
Y63189D02*
X59006Y63337D01*
X50984Y45472D02*
X52068D01*
X45512Y43504D02*
X50984D01*
X43229Y46496D02*
X45551D01*
X41890Y45157D02*
X43229Y46496D01*
X48425Y47441D02*
X50984D01*
X44764Y33961D02*
X44850Y34047D01*
X40667Y35780D02*
X41004Y36117D01*
X43749Y35104D02*
Y41383D01*
X41553Y35413D02*
X41890Y35750D01*
X40667Y32725D02*
Y35780D01*
X53730Y38100D02*
X54921Y39291D01*
X53730Y28159D02*
Y38100D01*
X67520Y65945D02*
Y73228D01*
X66191Y64616D02*
X67520Y65945D01*
X66141Y64616D02*
X66191D01*
X64764Y63239D02*
X66141Y64616D01*
X57480Y69685D02*
X57480Y69685D01*
X55905Y69102D02*
Y76735D01*
Y69102D02*
X56890Y68118D01*
X54724Y63386D02*
Y71210D01*
X51181Y72047D02*
X53150Y70079D01*
X57480Y69685D02*
Y70590D01*
X57480Y70590D01*
Y78365D01*
X52756Y73178D02*
X54724Y71210D01*
X45862Y292D02*
X57582D01*
X27676Y56653D02*
Y57381D01*
X26732Y55710D02*
X27676Y56653D01*
X64567Y76181D02*
X67520Y73228D01*
X44764Y33961D02*
X44882Y33843D01*
X55905Y76735D02*
Y89035D01*
X48031Y85827D02*
Y89035D01*
X52756Y73178D02*
Y89035D01*
X63779Y87008D02*
Y89035D01*
X62205Y86713D02*
Y89035D01*
X41367Y60600D02*
X41732D01*
X59055Y86292D02*
Y89035D01*
X47047Y35520D02*
X48071Y34496D01*
X54331Y74016D02*
Y89035D01*
X60630Y86614D02*
Y89035D01*
X59744Y77953D02*
Y80384D01*
Y77953D02*
X59960Y77737D01*
X65748Y32283D02*
X66142Y31890D01*
X65748Y77461D02*
X70760D01*
X71703Y76518D01*
X70374Y70374D02*
Y75295D01*
X71711Y76518D02*
X74410Y73819D01*
X71703Y76518D02*
X71711D01*
X91338Y55217D02*
X95079Y58957D01*
X91338Y55059D02*
Y55217D01*
X78150Y84547D02*
X80364Y82333D01*
X92864D01*
X94961Y80236D01*
X95079Y58957D02*
Y59894D01*
X94961Y66556D02*
Y80236D01*
Y66556D02*
X95029Y66487D01*
X78041Y47923D02*
X78051Y47933D01*
X78150Y47835D01*
Y47539D02*
Y47835D01*
X25303Y84752D02*
X46957D01*
X20645Y54925D02*
X22289D01*
X19752Y54031D02*
X20645Y54925D01*
X19752Y52768D02*
Y54031D01*
Y52768D02*
X19984Y52535D01*
Y42425D02*
Y52535D01*
X19587Y42028D02*
X19984Y42425D01*
X60925Y15784D02*
Y24008D01*
Y15784D02*
X61643Y15066D01*
X60925Y24008D02*
X61564Y24647D01*
X61643Y6623D02*
Y15066D01*
X61811Y16151D02*
Y23641D01*
Y16151D02*
X62529Y15433D01*
Y6230D02*
Y15433D01*
X61564Y24647D02*
Y25344D01*
X57399Y22793D02*
X60019Y25414D01*
X55305Y22793D02*
X57399D01*
X59842Y25591D02*
Y25984D01*
X66929Y61319D02*
X68836D01*
X24508Y19783D02*
X24705Y19587D01*
X24508Y19783D02*
Y23031D01*
X18898Y20276D02*
X19587Y19587D01*
X16732Y20276D02*
X18898D01*
X39901Y-2815D02*
X42755D01*
X37894Y-4823D02*
X39901Y-2815D01*
X4626Y689D02*
Y9843D01*
Y689D02*
X10138Y-4823D01*
X37894D01*
X6791Y1083D02*
Y9941D01*
Y1083D02*
X11220Y-3347D01*
X25787D01*
X13295Y13248D02*
X21651Y4892D01*
X13661Y14134D02*
X22018Y5778D01*
X7940Y13248D02*
X13295D01*
X8307Y14134D02*
X13661D01*
X18386Y65039D02*
X34370D01*
X14911Y61565D02*
X18386Y65039D01*
X6329Y61565D02*
X14911D01*
X58583Y12322D02*
X60117D01*
X57687Y11427D02*
X58583Y12322D01*
X61191Y4892D02*
X62529Y6230D01*
X61065Y6045D02*
X61643Y6623D01*
X40468Y88893D02*
X40668D01*
X61614Y27756D02*
X62992Y29134D01*
X61614Y25394D02*
Y27756D01*
X18898Y78347D02*
X25303Y84752D01*
X46957D02*
X48031Y85827D01*
X14566Y36220D02*
X18602D01*
X14409Y36063D02*
X14566Y36220D01*
X33809Y34574D02*
X33861Y34626D01*
X33809Y31826D02*
Y34574D01*
Y31826D02*
X33861Y31774D01*
X39370Y26378D02*
Y31419D01*
X40354Y22402D02*
X40934Y22982D01*
X51889Y25504D02*
X52845Y26460D01*
X50984Y28543D02*
Y31890D01*
X64530Y31459D02*
X64567Y31496D01*
X52845Y26460D02*
Y41427D01*
X59390Y32283D02*
X60630D01*
X57952Y33721D02*
Y34330D01*
X65010Y34596D02*
X65748Y33858D01*
X55807Y38924D02*
Y40403D01*
X54724Y28418D02*
Y35433D01*
X60827Y41150D02*
X66100Y35876D01*
X66289D02*
X70817Y31348D01*
X66100Y35876D02*
X66289D01*
X65748Y32283D02*
Y33858D01*
X78150Y84547D02*
Y84547D01*
X77461Y85236D02*
X78150Y84547D01*
X75984Y85236D02*
X77461D01*
X67042Y82987D02*
X69587Y85532D01*
X65487Y85728D02*
X67087D01*
X47992Y71339D02*
X48386Y70945D01*
X45197Y71339D02*
X47992D01*
X49508Y84449D02*
X49911Y84045D01*
X66673Y79823D02*
X66693Y79803D01*
X65059Y79823D02*
X66673D01*
X61968Y-5748D02*
X65236D01*
X61811Y-5906D02*
X61968Y-5748D01*
X52756Y98287D02*
X52775Y98306D01*
X95029Y64047D02*
X95071Y64006D01*
X50974Y51339D02*
X50984D01*
X47510Y55364D02*
X50885D01*
X46299Y56575D02*
X47510Y55364D01*
X45867Y59715D02*
X46761Y58820D01*
X50885Y55364D02*
X50934Y55315D01*
X33833Y50265D02*
X34010Y50442D01*
X38485Y62047D02*
X38583D01*
X60000Y10039D02*
X60117Y10157D01*
X57559Y10039D02*
X60000D01*
X57058Y10541D02*
X57559Y10039D01*
X35075Y14400D02*
X38934Y10541D01*
X39301Y11427D02*
X57687D01*
X11811Y33465D02*
X17284Y27992D01*
X21772D01*
X25827Y23937D01*
X34095D01*
X34941Y23091D01*
X45591Y14291D02*
Y15196D01*
X48346Y12952D02*
Y13220D01*
X48425Y16024D02*
Y16496D01*
X49212Y18346D02*
Y18662D01*
X45394Y15393D02*
X45591Y15196D01*
X46279Y15760D02*
X47116Y14923D01*
Y14451D02*
X48346Y13220D01*
X47116Y14451D02*
Y14923D01*
X41850Y31403D02*
X42439Y31991D01*
X39404Y31462D02*
X39409Y31457D01*
X31694Y52716D02*
X32165Y52244D01*
X35245Y57457D02*
X36597Y58809D01*
X34359Y57824D02*
X36230Y59695D01*
X27264Y45020D02*
X27657Y45413D01*
X32834Y56614D02*
Y57755D01*
X36597Y58809D02*
X36610D01*
X36336Y59793D02*
X36341D01*
X36237Y59695D02*
X36336Y59793D01*
X36230Y59695D02*
X36237D01*
X37177Y60629D02*
Y60636D01*
X36341Y59793D02*
X37177Y60629D01*
X34606Y59528D02*
Y60974D01*
X32834Y57755D02*
X34606Y59528D01*
Y63632D02*
Y64803D01*
Y63622D02*
Y63632D01*
X34370Y65039D02*
X34606Y64803D01*
X27676Y57381D02*
X27795Y57500D01*
X27402Y60059D02*
Y61890D01*
X8071Y60551D02*
X20512D01*
X23139Y63179D01*
X26113D01*
X27402Y61890D01*
X48346Y13220D02*
X48346Y13220D01*
X40934Y22982D02*
Y27600D01*
X40669Y27865D02*
Y28118D01*
Y27865D02*
X40934Y27600D01*
X2530Y41289D02*
Y73789D01*
Y41289D02*
X6466Y37352D01*
X5669Y58150D02*
X8071Y60551D01*
X5669Y40748D02*
Y58150D01*
X2530Y73789D02*
X7087Y78347D01*
X4055Y59291D02*
X6329Y61565D01*
X4055Y43740D02*
Y59291D01*
X53299Y20787D02*
X55305Y22793D01*
X48071Y19803D02*
X49212Y18662D01*
X47165Y17756D02*
X48425Y16496D01*
X47077Y46093D02*
X48425Y47441D01*
X45937Y44724D02*
X47077Y45864D01*
X44566Y44724D02*
X45937D01*
X47077Y45864D02*
Y46093D01*
X43749Y41383D02*
X44517Y42150D01*
X45511Y36692D02*
X46072Y36131D01*
X44882Y30315D02*
Y33843D01*
X46072Y35037D02*
X47165Y33944D01*
X46072Y35037D02*
Y36131D01*
X40699Y31504D02*
X41553Y32358D01*
X40699Y28148D02*
Y31504D01*
X42736Y31036D02*
X43325Y31624D01*
X40669Y28118D02*
X40699Y28148D01*
X47679Y38021D02*
X49123Y36577D01*
X47047Y35520D02*
X47195Y35669D01*
X44299Y42292D02*
X45512Y43504D01*
X80581Y28388D02*
Y34407D01*
X78041Y36946D02*
X80581Y34407D01*
X73661Y28730D02*
X74114Y29183D01*
X73661Y24567D02*
Y28730D01*
X52068Y45472D02*
X54085Y43455D01*
X55020D01*
X56029Y42446D01*
Y42446D02*
Y42446D01*
Y42446D02*
X56348Y42127D01*
Y40944D02*
Y42127D01*
X55807Y40403D02*
X56348Y40944D01*
X7087Y78347D02*
X18898D01*
X52756Y98287D02*
X52756Y98287D01*
X46866Y-5906D02*
X48425D01*
X44517Y42150D02*
Y42518D01*
X47647Y38021D02*
X47679D01*
X59007Y98335D02*
X59055Y98287D01*
X51181Y88779D02*
X51181Y88779D01*
X32382Y16713D02*
X33779Y15315D01*
X35412D01*
X29823Y16594D02*
X32018Y14400D01*
X35075D01*
X38934Y10541D02*
X57058D01*
X35412Y15315D02*
X39301Y11427D01*
X24705Y45965D02*
X25039Y46299D01*
X28946D01*
X31769Y50265D02*
X33833D01*
X31402Y51151D02*
X33466D01*
X28976Y52716D02*
X31694D01*
X27657Y45413D02*
X29390D01*
X26488Y48046D02*
X27320Y47214D01*
X26488Y48046D02*
Y48046D01*
X26543Y48102D01*
Y49892D01*
X25846Y50589D02*
X26543Y49892D01*
X26732Y50956D02*
Y55710D01*
X30127Y49876D02*
X31402Y51151D01*
X43631Y44694D02*
X43661Y44724D01*
X36721Y48143D02*
X38789Y50210D01*
X32382Y44744D02*
X33022Y45384D01*
X33904D01*
X29823Y44594D02*
X31499Y46270D01*
X33537D01*
X29390Y45413D02*
X31132Y47155D01*
X33170D01*
X28946Y46299D02*
X31013Y48365D01*
Y49509D01*
X31769Y50265D01*
X30127Y48732D02*
Y49876D01*
X28609Y47214D02*
X30127Y48732D01*
X27320Y47214D02*
X28609D01*
X26732Y50956D02*
X28463Y49226D01*
X22047Y51181D02*
Y52491D01*
X22293Y54921D02*
X22504D01*
X22289Y54925D02*
X22293Y54921D01*
X21139Y53400D02*
X21277D01*
X22923Y34537D02*
X23185Y34799D01*
X18199Y34537D02*
X22923D01*
X16060Y32399D02*
X18199Y34537D01*
X16060Y32394D02*
Y32399D01*
Y32497D01*
X44996Y-4035D02*
X46866Y-5906D01*
X38337Y61899D02*
X38485Y62047D01*
X38337Y61795D02*
Y61899D01*
X37177Y60636D02*
X38337Y61795D01*
X36610Y58809D02*
X39222Y61422D01*
Y61434D01*
X90452Y26673D02*
X91731Y27952D01*
X80581Y28388D02*
X82296Y26673D01*
X90452D01*
X79724Y37933D02*
X83189Y34468D01*
X49123Y24420D02*
X49685Y23858D01*
X41850Y29338D02*
Y31403D01*
X42736Y29705D02*
Y31036D01*
X41850Y29338D02*
X45394Y25795D01*
Y15393D02*
Y25795D01*
X42736Y29705D02*
X46279Y26161D01*
Y15760D02*
Y26161D01*
X47165Y17756D02*
Y33944D01*
X48071Y19803D02*
Y34496D01*
X49123Y24420D02*
Y36577D01*
X39370Y31419D02*
X39409Y31457D01*
X79724Y37933D02*
Y43858D01*
X3543Y17645D02*
X7940Y13248D01*
X3543Y17645D02*
Y29823D01*
X5069Y17372D02*
Y31644D01*
X4035Y32677D02*
Y34449D01*
Y32677D02*
X5069Y31644D01*
Y17372D02*
X8307Y14134D01*
X6466Y37352D02*
X13119D01*
X14409Y36063D01*
X51181Y72047D02*
Y88779D01*
X54331Y98287D02*
Y100098D01*
X43818Y101197D02*
X45260D01*
X46457Y100000D01*
Y98287D02*
Y100000D01*
X51181Y98287D02*
Y100197D01*
X55905Y98287D02*
Y101586D01*
X57480Y98287D02*
Y100098D01*
X52775Y98306D02*
Y101689D01*
X59007Y98335D02*
Y101634D01*
X29882Y9488D02*
X51752D01*
X27264Y12106D02*
X29882Y9488D01*
X61811Y81727D02*
Y85039D01*
X58366Y85603D02*
X59055Y86292D01*
X59350Y85335D02*
X60630Y86614D01*
X57480Y89035D02*
X57480Y89035D01*
Y88976D02*
Y89035D01*
X58366Y83694D02*
Y85603D01*
Y83694D02*
X58366Y83694D01*
X54331Y74016D02*
X54331Y74016D01*
X59960Y77737D02*
X60039Y77658D01*
X60285Y65207D02*
X60827Y64665D01*
X51752Y9488D02*
X53798Y7442D01*
X57344D01*
X57776Y7874D01*
X60038D01*
X61065Y6019D02*
Y6045D01*
X46761Y58800D02*
Y58820D01*
Y58800D02*
X48278Y57284D01*
X50984D01*
X22504Y54921D02*
X23657Y53768D01*
X25838Y50589D02*
X25846D01*
X23650Y53761D02*
X23657Y53768D01*
X23908Y52520D02*
X25838Y50589D01*
X23908Y52520D02*
Y53504D01*
X23650Y53761D02*
X23908Y53504D01*
X17490Y56614D02*
X22000D01*
X14419Y53543D02*
X17490Y56614D01*
X60824Y5778D02*
X61065Y6019D01*
X43356Y53888D02*
X43573D01*
X40315Y50846D02*
X43356Y53888D01*
X59350Y80777D02*
X59744Y80384D01*
X59350Y80777D02*
Y85335D01*
X58366Y80902D02*
Y83694D01*
X60236Y81144D02*
X61486Y79895D01*
X60236Y81144D02*
Y84744D01*
X61811Y81727D02*
X61830Y81708D01*
X58366Y80902D02*
X58366Y80902D01*
X55905Y76735D02*
X55905Y76735D01*
X57480Y78365D02*
X57480Y78365D01*
X57480Y78365D02*
Y80536D01*
X57480Y80536D01*
Y88976D01*
X58366Y76780D02*
X59006Y76140D01*
X58366Y76780D02*
Y78732D01*
X58366Y78732D02*
X58366Y78732D01*
X58366Y78732D02*
Y80902D01*
X59960Y77737D02*
Y78164D01*
X60285Y76218D02*
X61486Y77418D01*
Y79895D01*
X64552Y80330D02*
X65059Y79823D01*
X40650Y77559D02*
X48130D01*
X36614Y81595D02*
X40650Y77559D01*
X63765Y80330D02*
X64552D01*
X63700Y79508D02*
Y80330D01*
Y79508D02*
X65748Y77461D01*
X39404Y31462D02*
X40667Y32725D01*
X41553Y32358D02*
Y35413D01*
X42439Y31991D02*
Y35046D01*
X43325Y31624D02*
Y34679D01*
X33170Y47155D02*
X34064Y48049D01*
Y49244D01*
X33537Y46270D02*
X34950Y47682D01*
Y48877D01*
X33904Y45384D02*
X35835Y47315D01*
Y48510D01*
X34941Y45168D02*
X36721Y46948D01*
Y48143D01*
X40315Y49495D02*
X41004Y48806D01*
X40315Y49495D02*
Y50846D01*
X42439Y35046D02*
X42863Y35471D01*
X43325Y34679D02*
X43749Y35104D01*
X47195Y35669D02*
X47598D01*
X50117Y20787D02*
X53299D01*
X70817Y30668D02*
Y31348D01*
X61564Y25344D02*
X61614Y25394D01*
X95029Y64047D02*
Y66487D01*
X95071Y59902D02*
Y64006D01*
Y59902D02*
X95079Y59894D01*
X29823Y16594D02*
Y19587D01*
X27264Y12106D02*
Y19587D01*
X32382Y16713D02*
Y19587D01*
X63405Y26291D02*
X63432D01*
X53730Y28159D02*
X56180Y25709D01*
Y25511D02*
Y25709D01*
X54724Y28418D02*
X55977Y27165D01*
X58661D01*
X59842Y25984D01*
X38583Y62047D02*
X40216Y63681D01*
X44030Y58336D02*
X45088D01*
X43762Y58068D02*
X44030Y58336D01*
X44193Y59715D02*
X45867D01*
X42224Y55000D02*
X42342Y55118D01*
X43573Y53888D01*
X43757Y60532D02*
X43826Y60600D01*
X46234D01*
X46303Y60532D01*
X48671D01*
X48711Y60581D02*
X48716Y60576D01*
X50039Y59252D01*
X44459Y62549D02*
X44882Y62126D01*
X39222Y61434D02*
X40337Y62549D01*
X41831Y60532D02*
X43757D01*
X48671D02*
X48716Y60576D01*
X48720Y60581D01*
X24705Y42028D02*
Y45965D01*
X29823Y42028D02*
Y44594D01*
X34941Y42028D02*
Y45168D01*
X27264Y42028D02*
Y45020D01*
X34941Y19587D02*
Y23091D01*
X32382Y42028D02*
Y44744D01*
X60038Y7874D02*
X60117Y7795D01*
X22018Y5778D02*
X60824D01*
X21651Y4892D02*
X61191D01*
X25787Y-3347D02*
X31791Y2657D01*
X57579D01*
X61024Y-787D01*
X42755Y-2815D02*
X45862Y292D01*
X57480Y394D02*
X57582Y292D01*
X43381Y88893D02*
X43504Y89016D01*
X60236Y84744D02*
X62205Y86713D01*
X61811Y85039D02*
X63779Y87008D01*
X63799Y82987D02*
X67042D01*
X65275Y85940D02*
X65487Y85728D01*
X69587Y85532D02*
X69685D01*
X74262Y86959D02*
X75984Y85236D01*
X71611Y86959D02*
X74262D01*
X71513Y87057D02*
X71611Y86959D01*
X67087Y85728D02*
X68415Y87057D01*
X71513D01*
D80*
X69685Y82677D02*
X69795Y82787D01*
X69992D01*
X72441Y85236D01*
X69685Y82677D02*
X69795Y82567D01*
Y80225D02*
Y82567D01*
Y80225D02*
X69803Y80216D01*
X72638Y59252D02*
X72925Y59539D01*
X70374Y64468D02*
Y66831D01*
X69095Y63189D02*
X70374Y64468D01*
X66732Y63189D02*
X69095D01*
X66963Y37170D02*
Y37424D01*
X67089Y37549D01*
X67342D01*
X69231Y39438D01*
Y40126D01*
X69951Y40846D01*
X66732Y37402D02*
X66963Y37170D01*
X62992Y41732D02*
X63102Y41842D01*
X63594D02*
X65650Y43898D01*
X63102Y41842D02*
X63594D01*
X50984Y53347D02*
X51094Y53456D01*
X51503D01*
X52665Y54619D01*
Y54721D01*
X54669Y56726D01*
X47126Y51968D02*
X48130Y50965D01*
X76279Y48720D02*
X77756Y50197D01*
X77165Y55512D02*
X77165Y55512D01*
X77165Y58858D02*
X78150Y59842D01*
X74015Y58858D02*
X77165D01*
X73334Y59539D02*
X74015Y58858D01*
X62795Y63189D02*
Y63976D01*
X56693Y32677D02*
X56890Y32480D01*
X64616Y67028D02*
X64715Y66929D01*
X51062Y35039D02*
Y37637D01*
X23583Y47638D02*
X24875Y48930D01*
X22047Y42126D02*
Y47638D01*
X77165Y55512D02*
X80610D01*
X22146Y37992D02*
X22244Y37894D01*
X22146Y37992D02*
Y42028D01*
X78150Y60236D02*
Y61024D01*
Y59842D02*
Y60236D01*
X72925Y59539D02*
X73334D01*
X30118Y25669D02*
Y37716D01*
X36260D01*
X48130Y49508D02*
Y50965D01*
X45197Y67795D02*
X45276Y67716D01*
X36260Y37716D02*
X37500Y38957D01*
X22047Y47638D02*
X23583D01*
X50984Y34961D02*
X50984Y34961D01*
X75197Y48720D02*
X76279D01*
X50984Y34961D02*
X51062Y35039D01*
X24821Y48930D02*
X24875D01*
X62205Y98287D02*
Y100098D01*
X47243Y101574D02*
X48031Y100786D01*
Y98287D02*
Y100786D01*
X65177Y5531D02*
Y7894D01*
X62795Y63976D02*
X64715Y65896D01*
Y66929D01*
X37500Y38957D02*
Y42028D01*
X56890Y29921D02*
Y32480D01*
X45276Y65236D02*
Y67716D01*
X22047Y42126D02*
X22146Y42028D01*
X62500Y2854D02*
X65177Y5531D01*
X62106Y2854D02*
X62500D01*
D82*
X61811Y60185D02*
D03*
Y56299D02*
D03*
Y44539D02*
D03*
Y48425D02*
D03*
X69634Y52362D02*
D03*
X65748D02*
D03*
X61811D02*
D03*
X57874D02*
D03*
X53988D02*
D03*
D83*
X88189Y49468D02*
D03*
X83189Y44469D02*
D03*
Y39469D02*
D03*
X88189Y44469D02*
D03*
Y39469D02*
D03*
Y34468D02*
D03*
X83189D02*
D03*
Y29469D02*
D03*
X88189D02*
D03*
D84*
X83189Y49468D02*
D03*
D85*
X31496Y74803D02*
D03*
Y81693D02*
D03*
D86*
X36496Y74803D02*
D03*
Y81693D02*
D03*
D87*
X98425Y72835D02*
D03*
X11811D02*
D03*
D88*
X98425Y64961D02*
D03*
Y57087D02*
D03*
Y49213D02*
D03*
Y41339D02*
D03*
Y33465D02*
D03*
Y25591D02*
D03*
Y17717D02*
D03*
Y9843D02*
D03*
Y1969D02*
D03*
X11811Y64961D02*
D03*
Y57087D02*
D03*
Y49213D02*
D03*
Y41339D02*
D03*
Y33465D02*
D03*
Y25591D02*
D03*
Y17717D02*
D03*
Y9843D02*
D03*
Y1969D02*
D03*
D89*
X74803Y92520D02*
D03*
X35433D02*
D03*
D90*
X74803Y61024D02*
D03*
X72543Y61315D02*
D03*
X40453Y17421D02*
D03*
X78541Y57282D02*
D03*
X91338Y68897D02*
D03*
X69685Y82677D02*
D03*
X75984D02*
D03*
X72638Y59252D02*
D03*
X44299Y42152D02*
D03*
X66732Y37402D02*
D03*
X62992Y41732D02*
D03*
X50984Y53347D02*
D03*
X47401Y37874D02*
D03*
X54921Y41535D02*
D03*
X52953D02*
D03*
X50984Y61221D02*
D03*
Y55315D02*
D03*
X45235Y58188D02*
D03*
X45393Y54606D02*
D03*
X47126Y51968D02*
D03*
X41417Y55000D02*
D03*
X41634Y60728D02*
D03*
X77756Y50197D02*
D03*
X77165Y55512D02*
D03*
X72638Y45472D02*
D03*
X79567Y44016D02*
D03*
X64764Y63189D02*
D03*
X56890D02*
D03*
X50984Y59252D02*
D03*
X40314Y53031D02*
D03*
X32834Y52677D02*
D03*
X72638Y57284D02*
D03*
X72874Y69313D02*
D03*
X72638Y53347D02*
D03*
X60827Y41535D02*
D03*
X56298Y35984D02*
D03*
X61338Y35741D02*
D03*
X63110Y32985D02*
D03*
X62795Y63189D02*
D03*
X66732D02*
D03*
X61811Y67126D02*
D03*
X52953Y63189D02*
D03*
X54921D02*
D03*
X56693Y32677D02*
D03*
X59665Y34166D02*
D03*
X50984Y49409D02*
D03*
X60827Y63189D02*
D03*
X58858Y41535D02*
D03*
Y63189D02*
D03*
X57480Y39370D02*
D03*
X50984Y45472D02*
D03*
Y43504D02*
D03*
Y47441D02*
D03*
X45551Y46496D02*
D03*
X44850Y34047D02*
D03*
X72638Y55315D02*
D03*
X72641Y51282D02*
D03*
X57480Y69685D02*
D03*
X53150Y70079D02*
D03*
X90158Y84301D02*
D03*
X70079Y75590D02*
D03*
X91338Y55059D02*
D03*
X78150Y47539D02*
D03*
X40668Y88893D02*
D03*
X13581Y45276D02*
D03*
X76772Y24803D02*
D03*
X24508Y23031D02*
D03*
X16732Y20276D02*
D03*
X4626Y9843D02*
D03*
X6791Y9941D02*
D03*
X41734Y-4429D02*
D03*
X41723Y-1290D02*
D03*
X41945Y984D02*
D03*
X30118Y37716D02*
D03*
X60117Y12322D02*
D03*
X18602Y36220D02*
D03*
X37913Y45944D02*
D03*
X39212Y48425D02*
D03*
X33861Y31774D02*
D03*
X35531Y33444D02*
D03*
X39370Y26378D02*
D03*
X40354Y22402D02*
D03*
X51889Y25504D02*
D03*
X50984Y28543D02*
D03*
X51062Y37637D02*
D03*
X49508Y84449D02*
D03*
X48386Y70945D02*
D03*
X60117Y10157D02*
D03*
X65236Y-5748D02*
D03*
X18779Y11929D02*
D03*
X91731Y27952D02*
D03*
X45591Y14291D02*
D03*
X48346Y12952D02*
D03*
X48425Y16024D02*
D03*
X49212Y18346D02*
D03*
X50984Y15748D02*
D03*
X43347Y17205D02*
D03*
X30118Y25669D02*
D03*
X32538Y48681D02*
D03*
X32834Y56614D02*
D03*
X25039Y61653D02*
D03*
X5669Y40748D02*
D03*
X4055Y43740D02*
D03*
X56180Y25511D02*
D03*
X55937Y21268D02*
D03*
X45511Y36692D02*
D03*
X73661Y24567D02*
D03*
X50984Y57284D02*
D03*
X44996Y-4035D02*
D03*
X33130Y7756D02*
D03*
X32638Y12874D02*
D03*
X40846Y98130D02*
D03*
X30177Y12776D02*
D03*
X67835Y25512D02*
D03*
X43602Y-8465D02*
D03*
X34154Y-8661D02*
D03*
X39075D02*
D03*
X50886Y7382D02*
D03*
X55807Y-7776D02*
D03*
X52559Y-5118D02*
D03*
X18898Y-984D02*
D03*
X23917Y-1181D02*
D03*
X21457Y1575D02*
D03*
X18602Y5512D02*
D03*
X25591Y12500D02*
D03*
X55137Y8968D02*
D03*
X20374Y25787D02*
D03*
X22163Y23240D02*
D03*
X72441Y2461D02*
D03*
X75984Y5039D02*
D03*
X28976Y52716D02*
D03*
X24821Y48930D02*
D03*
X43661Y44724D02*
D03*
X28463Y49226D02*
D03*
X14410Y53504D02*
D03*
X19941Y62500D02*
D03*
X22000Y56614D02*
D03*
X21277Y53400D02*
D03*
X23185Y34799D02*
D03*
X16060Y32394D02*
D03*
X43818Y101197D02*
D03*
X86417Y85039D02*
D03*
X49685Y23858D02*
D03*
X3543Y29823D02*
D03*
X4035Y34449D02*
D03*
X46358Y86713D02*
D03*
X49625Y86629D02*
D03*
X65472Y100508D02*
D03*
X62205Y100098D02*
D03*
X54331Y100098D02*
D03*
X47243Y101574D02*
D03*
X49606Y101870D02*
D03*
X51181Y100197D02*
D03*
X55905Y101586D02*
D03*
X57480Y100098D02*
D03*
X52775Y101689D02*
D03*
X59007Y101634D02*
D03*
X62204Y102362D02*
D03*
X54331Y74016D02*
D03*
X62224Y75999D02*
D03*
X61830Y81708D02*
D03*
X69095Y89075D02*
D03*
X59960Y78164D02*
D03*
X63700Y80330D02*
D03*
X64468Y76083D02*
D03*
X48130Y77559D02*
D03*
X42243Y49724D02*
D03*
X47598Y35669D02*
D03*
X44882Y29921D02*
D03*
X50117Y20787D02*
D03*
X60039Y25433D02*
D03*
X63405Y26291D02*
D03*
X45276Y65236D02*
D03*
X44882Y62126D02*
D03*
X37106Y65354D02*
D03*
X37795Y69685D02*
D03*
X69882Y98425D02*
D03*
X62106Y2854D02*
D03*
X61024Y-787D02*
D03*
X60117Y7795D02*
D03*
X57480Y394D02*
D03*
X63799Y82987D02*
D03*
X65275Y85940D02*
D03*
X69685Y85532D02*
D03*
D91*
X91752Y17894D02*
Y21358D01*
Y12894D02*
Y17894D01*
X86693D02*
X91752D01*
X86693Y22894D02*
X90216D01*
X91752Y21358D01*
X86693Y12894D02*
X91752D01*
X94803Y9843D01*
X98425D01*
X93110Y8150D02*
X94803Y9843D01*
X93110Y-6693D02*
Y8150D01*
X91732Y-8071D02*
X93110Y-6693D01*
X90059Y-8071D02*
X91732D01*
X89646Y-7658D02*
X90059Y-8071D01*
X89646Y-7658D02*
Y-4134D01*
D103*
X65178Y7993D02*
D03*
Y12927D02*
D03*
Y17861D02*
D03*
Y22796D02*
D03*
D104*
X86693D02*
D03*
Y7993D02*
D03*
Y12927D02*
D03*
Y17861D02*
D03*
D105*
X91339Y64173D02*
D03*
Y67323D02*
D03*
Y74803D02*
D03*
Y71653D02*
D03*
D106*
X85039Y74606D02*
D03*
Y64764D02*
D03*
D107*
X43504Y89016D02*
D03*
X66732D02*
D03*
Y98189D02*
D03*
X43504Y98189D02*
D03*
D108*
X63779Y98228D02*
D03*
X62205D02*
D03*
X60630D02*
D03*
X59055D02*
D03*
X57480D02*
D03*
X55905D02*
D03*
X54331D02*
D03*
X52756D02*
D03*
X51181D02*
D03*
X49606D02*
D03*
X57480Y88976D02*
D03*
X55905D02*
D03*
X54331D02*
D03*
X52756D02*
D03*
X51181D02*
D03*
X49606D02*
D03*
X48031D02*
D03*
X46457D02*
D03*
Y98228D02*
D03*
X48031D02*
D03*
X59055Y88976D02*
D03*
X60630D02*
D03*
X62205D02*
D03*
X63779D02*
D03*
D109*
X83465Y-7382D02*
D03*
X79724D02*
D03*
X75984D02*
D03*
X83465Y1476D02*
D03*
X79724D02*
D03*
X75984D02*
D03*
D110*
X89646Y984D02*
D03*
Y-4134D02*
D03*
D111*
X61811Y-5906D02*
D03*
X48425D02*
D03*
D112*
X37500Y19587D02*
D03*
X34941D02*
D03*
X32382D02*
D03*
X29823D02*
D03*
X27264D02*
D03*
X24705D02*
D03*
X22146D02*
D03*
X19587D02*
D03*
X37500Y42028D02*
D03*
X34941D02*
D03*
X32382D02*
D03*
X29823D02*
D03*
X27264D02*
D03*
X24705D02*
D03*
X22146D02*
D03*
X19587D02*
D03*
D113*
X73465Y15394D02*
D03*
M02*
