G04*
G04 #@! TF.GenerationSoftware,Altium Limited,Altium NEXUS,2.0.14 (187)*
G04*
G04 Layer_Color=32896*
%FSLAX25Y25*%
%MOIN*%
G70*
G01*
G75*
%ADD10C,0.00984*%
%ADD11C,0.00591*%
%ADD12C,0.00394*%
%ADD13C,0.00787*%
%ADD14C,0.00000*%
%ADD79C,0.00492*%
%ADD125C,0.02362*%
%ADD126C,0.00591*%
D10*
X91831Y22973D02*
G03*
X91831Y22973I-492J0D01*
G01*
X85532Y78937D02*
G03*
X85532Y78937I-492J0D01*
G01*
X87303Y-7382D02*
G03*
X87303Y-7382I-492J0D01*
G01*
X17126Y42028D02*
G03*
X17126Y42028I-492J0D01*
G01*
D11*
X29752Y57973D02*
G03*
X29752Y57973I-3256J0D01*
G01*
X77370Y30512D02*
G03*
X77370Y30512I-3256J0D01*
G01*
X37862Y62303D02*
G03*
X37862Y62303I-3256J0D01*
G01*
X69201Y30610D02*
G03*
X69201Y30610I-3256J0D01*
G01*
X80125Y67126D02*
X79666D01*
X78748Y68044D01*
X79666Y68963D01*
X80125D01*
X78748Y68044D02*
X77370D01*
Y71718D02*
Y69881D01*
X79207Y71718D01*
X79666D01*
X80125Y71258D01*
Y70340D01*
X79666Y69881D01*
X27001Y10498D02*
X27460Y10039D01*
Y9121D01*
X27001Y8661D01*
X25164D01*
X24705Y9121D01*
Y10039D01*
X25164Y10498D01*
X24705Y13253D02*
Y11416D01*
X26541Y13253D01*
X27001D01*
X27460Y12794D01*
Y11876D01*
X27001Y11416D01*
X27460Y14172D02*
Y16008D01*
X27001D01*
X25164Y14172D01*
X24705D01*
X19225Y54691D02*
X19684Y54232D01*
Y53313D01*
X19225Y52854D01*
X17388D01*
X16929Y53313D01*
Y54232D01*
X17388Y54691D01*
X16929Y57446D02*
Y55609D01*
X18766Y57446D01*
X19225D01*
X19684Y56987D01*
Y56068D01*
X19225Y55609D01*
X19684Y60201D02*
Y58364D01*
X18307D01*
X18766Y59283D01*
Y59742D01*
X18307Y60201D01*
X17388D01*
X16929Y59742D01*
Y58824D01*
X17388Y58364D01*
X31201Y48129D02*
Y45833D01*
X30742Y45374D01*
X29823D01*
X29364Y45833D01*
Y48129D01*
X28446Y45374D02*
X27527D01*
X27987D01*
Y48129D01*
X28446Y47670D01*
X55939Y2394D02*
X56398Y2853D01*
X57316D01*
X57776Y2394D01*
Y1935D01*
X57316Y1476D01*
X56398D01*
X55939Y1017D01*
Y558D01*
X56398Y98D01*
X57316D01*
X57776Y558D01*
X55021Y2853D02*
Y98D01*
X54102Y1017D01*
X53184Y98D01*
Y2853D01*
X52266Y98D02*
X51347D01*
X51806D01*
Y2853D01*
X52266Y2394D01*
X82874Y83694D02*
Y86449D01*
X81497D01*
X81037Y85990D01*
Y85071D01*
X81497Y84612D01*
X82874D01*
X81956D02*
X81037Y83694D01*
X80119Y85990D02*
X79660Y86449D01*
X78742D01*
X78282Y85990D01*
Y85530D01*
X78742Y85071D01*
X79201D01*
X78742D01*
X78282Y84612D01*
Y84153D01*
X78742Y83694D01*
X79660D01*
X80119Y84153D01*
X68898Y81988D02*
Y84743D01*
X67520D01*
X67061Y84284D01*
Y83366D01*
X67520Y82907D01*
X68898D01*
X67979D02*
X67061Y81988D01*
X64306D02*
X66143D01*
X64306Y83825D01*
Y84284D01*
X64765Y84743D01*
X65684D01*
X66143Y84284D01*
X93110Y-9055D02*
X95865D01*
Y-7678D01*
X95406Y-7218D01*
X94488D01*
X94029Y-7678D01*
Y-9055D01*
Y-8137D02*
X93110Y-7218D01*
Y-6300D02*
Y-5382D01*
Y-5841D01*
X95865D01*
X95406Y-6300D01*
X69991Y-3911D02*
X71827D01*
X72286Y-4371D01*
Y-5289D01*
X71827Y-5748D01*
X69991D01*
X69532Y-5289D01*
Y-4371D01*
X70450Y-4830D02*
X69532Y-3911D01*
Y-4371D02*
X69991Y-3911D01*
X69532Y-1156D02*
Y-2993D01*
X71368Y-1156D01*
X71827D01*
X72286Y-1616D01*
Y-2534D01*
X71827Y-2993D01*
X66569Y1542D02*
Y3379D01*
X67028Y3838D01*
X67946D01*
X68405Y3379D01*
Y1542D01*
X67946Y1083D01*
X67028D01*
X67487Y2001D02*
X66569Y1083D01*
X67028D02*
X66569Y1542D01*
X65650Y1083D02*
X64732D01*
X65191D01*
Y3838D01*
X65650Y3379D01*
X13287Y78347D02*
Y81102D01*
X11910D01*
X11451Y80642D01*
Y79724D01*
X11910Y79265D01*
X13287D01*
X8696Y78347D02*
X10532D01*
X8696Y80183D01*
Y80642D01*
X9155Y81102D01*
X10073D01*
X10532Y80642D01*
X99705Y78445D02*
Y81200D01*
X98327D01*
X97868Y80741D01*
Y79822D01*
X98327Y79363D01*
X99705D01*
X96950Y78445D02*
X96031D01*
X96491D01*
Y81200D01*
X96950Y80741D01*
X62435Y36672D02*
X63353D01*
X62894D01*
Y34376D01*
X63353Y33917D01*
X63813D01*
X64272Y34376D01*
X59680Y33917D02*
X61517D01*
X59680Y35754D01*
Y36213D01*
X60139Y36672D01*
X61058D01*
X61517Y36213D01*
X58762Y33917D02*
Y34376D01*
X58302D01*
Y33917D01*
X58762D01*
X56466Y36213D02*
X56007Y36672D01*
X55088D01*
X54629Y36213D01*
Y34376D01*
X55088Y33917D01*
X56007D01*
X56466Y34376D01*
Y36213D01*
X36451Y69783D02*
X37369D01*
X36910D01*
Y67487D01*
X37369Y67028D01*
X37828D01*
X38287Y67487D01*
X35532Y67028D02*
X34614D01*
X35073D01*
Y69783D01*
X35532Y69323D01*
X33237Y67028D02*
Y67487D01*
X32777D01*
Y67028D01*
X33237D01*
X30941Y69323D02*
X30481Y69783D01*
X29563D01*
X29104Y69323D01*
Y67487D01*
X29563Y67028D01*
X30481D01*
X30941Y67487D01*
Y69323D01*
X80511Y28510D02*
Y27592D01*
Y28051D01*
X78215D01*
X77756Y27592D01*
Y27132D01*
X78215Y26673D01*
X77756Y31265D02*
Y29428D01*
X79593Y31265D01*
X80052D01*
X80511Y30806D01*
Y29887D01*
X80052Y29428D01*
X77756Y32183D02*
X78215D01*
Y32642D01*
X77756D01*
Y32183D01*
Y34479D02*
Y35397D01*
Y34938D01*
X80511D01*
X80052Y34479D01*
X27396Y65452D02*
X28314D01*
X27855D01*
Y63156D01*
X28314Y62697D01*
X28773D01*
X29232Y63156D01*
X26477Y62697D02*
X25559D01*
X26018D01*
Y65452D01*
X26477Y64993D01*
X24181Y62697D02*
Y63156D01*
X23722D01*
Y62697D01*
X24181D01*
X21886D02*
X20967D01*
X21426D01*
Y65452D01*
X21886Y64993D01*
X56094Y17585D02*
X56553Y17126D01*
Y16207D01*
X56094Y15748D01*
X54257D01*
X53798Y16207D01*
Y17126D01*
X54257Y17585D01*
X53798Y20340D02*
Y18503D01*
X55635Y20340D01*
X56094D01*
X56553Y19881D01*
Y18962D01*
X56094Y18503D01*
X53798Y21258D02*
Y22176D01*
Y21717D01*
X56553D01*
X56094Y21258D01*
X22473Y55183D02*
X22932Y54724D01*
Y53806D01*
X22473Y53347D01*
X20636D01*
X20177Y53806D01*
Y54724D01*
X20636Y55183D01*
X20177Y56102D02*
Y57020D01*
Y56561D01*
X22932D01*
X22473Y56102D01*
Y58397D02*
X22932Y58856D01*
Y59775D01*
X22473Y60234D01*
X22014D01*
X21555Y59775D01*
X21095Y60234D01*
X20636D01*
X20177Y59775D01*
Y58856D01*
X20636Y58397D01*
X21095D01*
X21555Y58856D01*
X22014Y58397D01*
X22473D01*
X21555Y58856D02*
Y59775D01*
X61961Y67585D02*
X62420Y67125D01*
Y66207D01*
X61961Y65748D01*
X60124D01*
X59665Y66207D01*
Y67125D01*
X60124Y67585D01*
X59665Y68503D02*
Y69421D01*
Y68962D01*
X62420D01*
X61961Y68503D01*
X62420Y70799D02*
Y72636D01*
X61961D01*
X60124Y70799D01*
X59665D01*
X74934Y67782D02*
X75393Y67322D01*
Y66404D01*
X74934Y65945D01*
X73097D01*
X72638Y66404D01*
Y67322D01*
X73097Y67782D01*
X72638Y68700D02*
Y69618D01*
Y69159D01*
X75393D01*
X74934Y68700D01*
X75393Y72832D02*
X74934Y71914D01*
X74015Y70996D01*
X73097D01*
X72638Y71455D01*
Y72373D01*
X73097Y72832D01*
X73556D01*
X74015Y72373D01*
Y70996D01*
X65628Y57447D02*
X66087Y57906D01*
X67006D01*
X67465Y57447D01*
Y55610D01*
X67006Y55151D01*
X66087D01*
X65628Y55610D01*
X64710Y55151D02*
X63792D01*
X64251D01*
Y57906D01*
X64710Y57447D01*
X61036Y55151D02*
Y57906D01*
X62414Y56528D01*
X60577D01*
X76707Y46095D02*
X77166Y46554D01*
X78084D01*
X78543Y46095D01*
Y44258D01*
X78084Y43799D01*
X77166D01*
X76707Y44258D01*
X75788Y43799D02*
X74870D01*
X75329D01*
Y46554D01*
X75788Y46095D01*
X73492D02*
X73033Y46554D01*
X72115D01*
X71656Y46095D01*
Y45636D01*
X72115Y45177D01*
X72574D01*
X72115D01*
X71656Y44718D01*
Y44258D01*
X72115Y43799D01*
X73033D01*
X73492Y44258D01*
X42060Y47309D02*
X42519Y46850D01*
Y45932D01*
X42060Y45472D01*
X40223D01*
X39764Y45932D01*
Y46850D01*
X40223Y47309D01*
X39764Y48228D02*
Y49146D01*
Y48687D01*
X42519D01*
X42060Y48228D01*
X39764Y52360D02*
Y50523D01*
X41600Y52360D01*
X42060D01*
X42519Y51901D01*
Y50982D01*
X42060Y50523D01*
X51804Y39632D02*
X52263Y39173D01*
Y38254D01*
X51804Y37795D01*
X49967D01*
X49508Y38254D01*
Y39173D01*
X49967Y39632D01*
X49508Y40550D02*
Y41469D01*
Y41010D01*
X52263D01*
X51804Y40550D01*
X49508Y42846D02*
Y43764D01*
Y43305D01*
X52263D01*
X51804Y42846D01*
X74343Y37713D02*
X74802Y37253D01*
Y36335D01*
X74343Y35876D01*
X72506D01*
X72047Y36335D01*
Y37253D01*
X72506Y37713D01*
X72047Y38631D02*
Y39549D01*
Y39090D01*
X74802D01*
X74343Y38631D01*
Y40927D02*
X74802Y41386D01*
Y42304D01*
X74343Y42764D01*
X72506D01*
X72047Y42304D01*
Y41386D01*
X72506Y40927D01*
X74343D01*
X46122Y62437D02*
X46581Y61978D01*
Y61060D01*
X46122Y60600D01*
X44285D01*
X43826Y61060D01*
Y61978D01*
X44285Y62437D01*
Y63355D02*
X43826Y63815D01*
Y64733D01*
X44285Y65192D01*
X46122D01*
X46581Y64733D01*
Y63815D01*
X46122Y63355D01*
X45663D01*
X45204Y63815D01*
Y65192D01*
X66567Y38746D02*
X67027Y38287D01*
Y37369D01*
X66567Y36909D01*
X64731D01*
X64272Y37369D01*
Y38287D01*
X64731Y38746D01*
X66567Y39665D02*
X67027Y40124D01*
Y41042D01*
X66567Y41501D01*
X66108D01*
X65649Y41042D01*
X65190Y41501D01*
X64731D01*
X64272Y41042D01*
Y40124D01*
X64731Y39665D01*
X65190D01*
X65649Y40124D01*
X66108Y39665D01*
X66567D01*
X65649Y40124D02*
Y41042D01*
X83793Y53871D02*
X84252Y54330D01*
X85171D01*
X85630Y53871D01*
Y52034D01*
X85171Y51575D01*
X84252D01*
X83793Y52034D01*
X82875Y54330D02*
X81038D01*
Y53871D01*
X82875Y52034D01*
Y51575D01*
X86943Y61252D02*
X87402Y61712D01*
X88320D01*
X88779Y61252D01*
Y59416D01*
X88320Y58957D01*
X87402D01*
X86943Y59416D01*
X84188Y61712D02*
X85106Y61252D01*
X86024Y60334D01*
Y59416D01*
X85565Y58957D01*
X84647D01*
X84188Y59416D01*
Y59875D01*
X84647Y60334D01*
X86024D01*
X71949Y99279D02*
X70112Y101116D01*
X71949D02*
X70112Y99279D01*
X71949Y100197D02*
X70112D01*
X71030Y101116D02*
Y99279D01*
X41705Y73522D02*
X42164Y73063D01*
Y72144D01*
X41705Y71685D01*
X39868D01*
X39409Y72144D01*
Y73063D01*
X39868Y73522D01*
X39409Y76277D02*
Y74440D01*
X41245Y76277D01*
X41705D01*
X42164Y75818D01*
Y74899D01*
X41705Y74440D01*
X42164Y79032D02*
X41705Y78113D01*
X40786Y77195D01*
X39868D01*
X39409Y77654D01*
Y78573D01*
X39868Y79032D01*
X40327D01*
X40786Y78573D01*
Y77195D01*
X59777Y27591D02*
X60237Y28050D01*
X61155D01*
X61614Y27591D01*
Y25754D01*
X61155Y25295D01*
X60237D01*
X59777Y25754D01*
X57023Y25295D02*
X58859D01*
X57023Y27132D01*
Y27591D01*
X57482Y28050D01*
X58400D01*
X58859Y27591D01*
X56104D02*
X55645Y28050D01*
X54727D01*
X54267Y27591D01*
Y27132D01*
X54727Y26673D01*
X54267Y26214D01*
Y25754D01*
X54727Y25295D01*
X55645D01*
X56104Y25754D01*
Y26214D01*
X55645Y26673D01*
X56104Y27132D01*
Y27591D01*
X55645Y26673D02*
X54727D01*
D12*
X65158Y-5906D02*
G03*
X65158Y-5906I-197J0D01*
G01*
D13*
X69862Y5252D02*
X82500D01*
X69862Y25528D02*
X82500D01*
X68898Y94488D02*
Y100197D01*
Y87008D02*
Y92716D01*
X41378Y87008D02*
X68898D01*
X41378D02*
Y100197D01*
X68898D01*
X67815Y93799D02*
X68898Y92716D01*
X67815Y93405D02*
X68898Y94488D01*
X94095Y-2362D02*
X102756D01*
Y-2362D02*
Y77165D01*
X94095Y-2362D02*
Y77165D01*
Y77165D02*
X102756D01*
X7480Y-2362D02*
X16142D01*
Y-2362D02*
Y77165D01*
X7480Y-2362D02*
Y77165D01*
Y77165D02*
X16142D01*
X73819Y-3937D02*
X85630D01*
X73819Y-1969D02*
X85630D01*
Y-3937D02*
Y-1969D01*
X73819Y-3937D02*
Y-1969D01*
X47244Y-984D02*
X62992D01*
X38583Y23524D02*
Y38091D01*
X18504Y23524D02*
Y38091D01*
Y23524D02*
X38583D01*
X18504Y38091D02*
X38583D01*
X22441Y-4233D02*
Y-8169D01*
X20473D01*
X19817Y-7513D01*
Y-6857D01*
X20473Y-6201D01*
X22441D01*
X20473D01*
X19817Y-5545D01*
Y-4890D01*
X20473Y-4233D01*
X22441D01*
X17849Y-8169D02*
X16537D01*
X15881Y-7513D01*
Y-6201D01*
X16537Y-5545D01*
X17849D01*
X18505Y-6201D01*
Y-7513D01*
X17849Y-8169D01*
X13914Y-4890D02*
Y-5545D01*
X14570D01*
X13258D01*
X13914D01*
Y-7513D01*
X13258Y-8169D01*
D14*
X34589Y106299D02*
X75500D01*
X89854Y86614D01*
X98425Y86614D01*
X110236Y74803D01*
Y0D02*
Y74803D01*
X98425Y-11811D02*
X110236Y0D01*
X11811Y-11811D02*
X98425Y-11811D01*
X0Y0D02*
X11811Y-11811D01*
X0Y0D02*
Y74803D01*
X11811Y86614D01*
X20529D01*
X34589Y106299D01*
D79*
X88039Y67685D02*
Y71685D01*
X82039Y67685D02*
Y71685D01*
D125*
X23622Y34154D02*
G03*
X23622Y34154I-1181J0D01*
G01*
D126*
X92512Y78354D02*
X92971Y77895D01*
Y76977D01*
X92512Y76518D01*
X90676D01*
X90216Y76977D01*
Y77895D01*
X90676Y78354D01*
X90216Y81109D02*
Y79273D01*
X92053Y81109D01*
X92512D01*
X92971Y80650D01*
Y79732D01*
X92512Y79273D01*
X90216Y83864D02*
Y82028D01*
X92053Y83864D01*
X92512D01*
X92971Y83405D01*
Y82487D01*
X92512Y82028D01*
X92355Y56558D02*
X92814Y56099D01*
Y55181D01*
X92355Y54721D01*
X90518D01*
X90059Y55181D01*
Y56099D01*
X90518Y56558D01*
X90059Y59313D02*
Y57476D01*
X91896Y59313D01*
X92355D01*
X92814Y58854D01*
Y57936D01*
X92355Y57476D01*
X90518Y60231D02*
X90059Y60690D01*
Y61609D01*
X90518Y62068D01*
X92355D01*
X92814Y61609D01*
Y60690D01*
X92355Y60231D01*
X91896D01*
X91437Y60690D01*
Y62068D01*
M02*
