G04*
G04 #@! TF.GenerationSoftware,Altium Limited,Altium NEXUS,2.0.14 (187)*
G04*
G04 Layer_Color=8421504*
%FSLAX25Y25*%
%MOIN*%
G70*
G01*
G75*
%ADD14C,0.00000*%
%ADD15C,0.00197*%
%ADD16R,0.00591X0.00197*%
%ADD17R,0.00197X0.00591*%
%ADD18R,0.00591X0.00591*%
%ADD19R,0.00197X0.00591*%
%ADD20R,0.00197X0.00591*%
%ADD21R,0.00197X0.00591*%
%ADD22R,0.05035X0.05035*%
%ADD23C,0.00591*%
%ADD24R,0.14173X0.05906*%
%ADD25R,0.00980X0.01181*%
%ADD26R,0.01181X0.00980*%
%ADD27R,0.01181X0.01181*%
G04:AMPARAMS|DCode=28|XSize=66.93mil|YSize=10.83mil|CornerRadius=1.95mil|HoleSize=0mil|Usage=FLASHONLY|Rotation=0.000|XOffset=0mil|YOffset=0mil|HoleType=Round|Shape=RoundedRectangle|*
%AMROUNDEDRECTD28*
21,1,0.06693,0.00693,0,0,0.0*
21,1,0.06303,0.01083,0,0,0.0*
1,1,0.00390,0.03152,-0.00347*
1,1,0.00390,-0.03152,-0.00347*
1,1,0.00390,-0.03152,0.00347*
1,1,0.00390,0.03152,0.00347*
%
%ADD28ROUNDEDRECTD28*%
G04:AMPARAMS|DCode=29|XSize=66.93mil|YSize=10.83mil|CornerRadius=1.95mil|HoleSize=0mil|Usage=FLASHONLY|Rotation=90.000|XOffset=0mil|YOffset=0mil|HoleType=Round|Shape=RoundedRectangle|*
%AMROUNDEDRECTD29*
21,1,0.06693,0.00693,0,0,90.0*
21,1,0.06303,0.01083,0,0,90.0*
1,1,0.00390,0.00347,0.03152*
1,1,0.00390,0.00347,-0.03152*
1,1,0.00390,-0.00347,-0.03152*
1,1,0.00390,-0.00347,0.03152*
%
%ADD29ROUNDEDRECTD29*%
%ADD30R,0.03937X0.04528*%
%ADD31R,0.02441X0.02441*%
%ADD32R,0.02441X0.02441*%
%ADD33R,0.02165X0.02165*%
%ADD34R,0.02165X0.02165*%
D14*
X34589Y106299D02*
X75500D01*
X89854Y86614D01*
X98425Y86614D01*
X110236Y74803D01*
Y0D02*
Y74803D01*
X98425Y-11811D02*
X110236Y0D01*
X11811Y-11811D02*
X98425Y-11811D01*
X0Y0D02*
X11811Y-11811D01*
X0Y0D02*
Y74803D01*
X11811Y86614D01*
X20529D01*
X34589Y106299D01*
D15*
X29882Y10610D02*
G03*
X29882Y10610I-98J0D01*
G01*
X30472Y11201D02*
G03*
X30472Y11201I-98J0D01*
G01*
Y10610D02*
G03*
X30472Y10610I-98J0D01*
G01*
X29882Y11201D02*
G03*
X29882Y11201I-98J0D01*
G01*
X31457D02*
G03*
X31457Y11201I-98J0D01*
G01*
X32047Y10610D02*
G03*
X32047Y10610I-98J0D01*
G01*
Y11201D02*
G03*
X32047Y11201I-98J0D01*
G01*
X31457Y10610D02*
G03*
X31457Y10610I-98J0D01*
G01*
Y9035D02*
G03*
X31457Y9035I-98J0D01*
G01*
X32047Y9626D02*
G03*
X32047Y9626I-98J0D01*
G01*
Y9035D02*
G03*
X32047Y9035I-98J0D01*
G01*
X31457Y9626D02*
G03*
X31457Y9626I-98J0D01*
G01*
X29882D02*
G03*
X29882Y9626I-98J0D01*
G01*
X30472Y9035D02*
G03*
X30472Y9035I-98J0D01*
G01*
Y9626D02*
G03*
X30472Y9626I-98J0D01*
G01*
X29882Y9035D02*
G03*
X29882Y9035I-98J0D01*
G01*
X31457Y7461D02*
G03*
X31457Y7461I-98J0D01*
G01*
X32047Y8051D02*
G03*
X32047Y8051I-98J0D01*
G01*
Y7461D02*
G03*
X32047Y7461I-98J0D01*
G01*
X31457Y8051D02*
G03*
X31457Y8051I-98J0D01*
G01*
X29882D02*
G03*
X29882Y8051I-98J0D01*
G01*
X30472Y7461D02*
G03*
X30472Y7461I-98J0D01*
G01*
Y8051D02*
G03*
X30472Y8051I-98J0D01*
G01*
X29882Y7461D02*
G03*
X29882Y7461I-98J0D01*
G01*
X31457Y5886D02*
G03*
X31457Y5886I-98J0D01*
G01*
X32047Y6476D02*
G03*
X32047Y6476I-98J0D01*
G01*
Y5886D02*
G03*
X32047Y5886I-98J0D01*
G01*
X31457Y6476D02*
G03*
X31457Y6476I-98J0D01*
G01*
X29882D02*
G03*
X29882Y6476I-98J0D01*
G01*
X30472Y5886D02*
G03*
X30472Y5886I-98J0D01*
G01*
Y6476D02*
G03*
X30472Y6476I-98J0D01*
G01*
X29882Y5886D02*
G03*
X29882Y5886I-98J0D01*
G01*
X45489Y-1870D02*
G03*
X45489Y-1870I-98J0D01*
G01*
X44898Y-2461D02*
G03*
X44898Y-2461I-98J0D01*
G01*
Y-1870D02*
G03*
X44898Y-1870I-98J0D01*
G01*
X45489Y-2461D02*
G03*
X45489Y-2461I-98J0D01*
G01*
X43914D02*
G03*
X43914Y-2461I-98J0D01*
G01*
X43323Y-1870D02*
G03*
X43323Y-1870I-98J0D01*
G01*
Y-2461D02*
G03*
X43323Y-2461I-98J0D01*
G01*
X43914Y-1870D02*
G03*
X43914Y-1870I-98J0D01*
G01*
Y-295D02*
G03*
X43914Y-295I-98J0D01*
G01*
X43323Y-886D02*
G03*
X43323Y-886I-98J0D01*
G01*
Y-295D02*
G03*
X43323Y-295I-98J0D01*
G01*
X43914Y-886D02*
G03*
X43914Y-886I-98J0D01*
G01*
X45489D02*
G03*
X45489Y-886I-98J0D01*
G01*
X44898Y-295D02*
G03*
X44898Y-295I-98J0D01*
G01*
Y-886D02*
G03*
X44898Y-886I-98J0D01*
G01*
X45489Y-295D02*
G03*
X45489Y-295I-98J0D01*
G01*
X43914Y1280D02*
G03*
X43914Y1280I-98J0D01*
G01*
X43323Y689D02*
G03*
X43323Y689I-98J0D01*
G01*
Y1280D02*
G03*
X43323Y1280I-98J0D01*
G01*
X43914Y689D02*
G03*
X43914Y689I-98J0D01*
G01*
X45489D02*
G03*
X45489Y689I-98J0D01*
G01*
X44898Y1280D02*
G03*
X44898Y1280I-98J0D01*
G01*
Y689D02*
G03*
X44898Y689I-98J0D01*
G01*
X45489Y1280D02*
G03*
X45489Y1280I-98J0D01*
G01*
X43914Y2854D02*
G03*
X43914Y2854I-98J0D01*
G01*
X43323Y2264D02*
G03*
X43323Y2264I-98J0D01*
G01*
Y2854D02*
G03*
X43323Y2854I-98J0D01*
G01*
X43914Y2264D02*
G03*
X43914Y2264I-98J0D01*
G01*
X45489D02*
G03*
X45489Y2264I-98J0D01*
G01*
X44898Y2854D02*
G03*
X44898Y2854I-98J0D01*
G01*
Y2264D02*
G03*
X44898Y2264I-98J0D01*
G01*
X45489Y2854D02*
G03*
X45489Y2854I-98J0D01*
G01*
D16*
X30079Y11299D02*
D03*
Y10512D02*
D03*
X31653D02*
D03*
Y11299D02*
D03*
Y9724D02*
D03*
Y8937D02*
D03*
X30079D02*
D03*
Y9724D02*
D03*
X31653Y8150D02*
D03*
Y7362D02*
D03*
X30079D02*
D03*
Y8150D02*
D03*
X31653Y6575D02*
D03*
Y5787D02*
D03*
X30079D02*
D03*
Y6575D02*
D03*
X45095Y-2559D02*
D03*
Y-1772D02*
D03*
X43520D02*
D03*
Y-2559D02*
D03*
Y-984D02*
D03*
Y-197D02*
D03*
X45095D02*
D03*
Y-984D02*
D03*
X43520Y591D02*
D03*
Y1378D02*
D03*
X45095D02*
D03*
Y591D02*
D03*
X43520Y2165D02*
D03*
Y2953D02*
D03*
X45095D02*
D03*
Y2165D02*
D03*
D17*
X30472Y10905D02*
D03*
X29685D02*
D03*
Y9331D02*
D03*
X30472D02*
D03*
X45489Y984D02*
D03*
X44701D02*
D03*
X45489Y2559D02*
D03*
X44701D02*
D03*
D18*
X30079Y10905D02*
D03*
X31653D02*
D03*
Y9330D02*
D03*
X30079D02*
D03*
X31653Y7756D02*
D03*
X30079D02*
D03*
X31653Y6181D02*
D03*
X30079D02*
D03*
X45095Y-2165D02*
D03*
X43520D02*
D03*
Y-591D02*
D03*
X45095D02*
D03*
X43520Y984D02*
D03*
X45095D02*
D03*
X43520Y2559D02*
D03*
X45095D02*
D03*
D19*
X31260Y10905D02*
D03*
X32047D02*
D03*
Y9331D02*
D03*
X31260D02*
D03*
X43126Y984D02*
D03*
X43914D02*
D03*
X43126Y2559D02*
D03*
X43914D02*
D03*
D20*
X32047Y7756D02*
D03*
X31260D02*
D03*
X32047Y6181D02*
D03*
X31260D02*
D03*
X43914Y-2165D02*
D03*
X43126D02*
D03*
Y-591D02*
D03*
X43914D02*
D03*
D21*
X29685Y7756D02*
D03*
X30472D02*
D03*
X29685Y6181D02*
D03*
X30472D02*
D03*
X44701Y-2165D02*
D03*
X45489D02*
D03*
Y-591D02*
D03*
X44701D02*
D03*
D22*
X58900Y55274D02*
D03*
X58900Y49451D02*
D03*
X64722D02*
D03*
X64722Y55274D02*
D03*
D23*
X68898Y91535D02*
D03*
Y89567D02*
D03*
D24*
X86214Y73327D02*
D03*
Y61319D02*
D03*
D25*
X62795Y41732D02*
D03*
X60827D02*
D03*
X64764D02*
D03*
X66732Y41732D02*
D03*
X68701D02*
D03*
X70669D02*
D03*
X52953D02*
D03*
X54921D02*
D03*
X56890D02*
D03*
X58858Y41732D02*
D03*
X60827Y62992D02*
D03*
X62795D02*
D03*
X58858D02*
D03*
X56890Y62992D02*
D03*
X54921D02*
D03*
X52953D02*
D03*
X70669D02*
D03*
X68701D02*
D03*
X66732D02*
D03*
X64764Y62992D02*
D03*
X63976Y65158D02*
D03*
X66142Y65158D02*
D03*
X68307Y65158D02*
D03*
X70472D02*
D03*
X72638Y65158D02*
D03*
X61811Y65158D02*
D03*
X59646D02*
D03*
X57480Y65158D02*
D03*
X55315D02*
D03*
X53150Y65158D02*
D03*
X50984D02*
D03*
X72638Y39567D02*
D03*
X70472D02*
D03*
X68307D02*
D03*
X66142Y39567D02*
D03*
X63976Y39567D02*
D03*
X61811D02*
D03*
X50984D02*
D03*
X53150D02*
D03*
X55315D02*
D03*
X57480Y39567D02*
D03*
X59646Y39567D02*
D03*
D26*
X51181Y51378D02*
D03*
Y53347D02*
D03*
Y49409D02*
D03*
X51181Y47441D02*
D03*
Y45472D02*
D03*
Y43504D02*
D03*
Y61221D02*
D03*
Y59252D02*
D03*
Y57284D02*
D03*
X51181Y55315D02*
D03*
X72441Y49409D02*
D03*
X72441Y47441D02*
D03*
Y45472D02*
D03*
Y43504D02*
D03*
Y61221D02*
D03*
Y59252D02*
D03*
Y57284D02*
D03*
X72441Y55315D02*
D03*
Y51378D02*
D03*
Y53347D02*
D03*
X49016Y54527D02*
D03*
Y56693D02*
D03*
Y58858D02*
D03*
Y61024D02*
D03*
Y63189D02*
D03*
Y52362D02*
D03*
Y50197D02*
D03*
Y48031D02*
D03*
Y45866D02*
D03*
Y43701D02*
D03*
Y41535D02*
D03*
X74606Y50197D02*
D03*
X74606Y48031D02*
D03*
X74606Y45866D02*
D03*
X74606Y43701D02*
D03*
Y41535D02*
D03*
Y52362D02*
D03*
X74606Y54527D02*
D03*
X74606Y56693D02*
D03*
Y58858D02*
D03*
Y61024D02*
D03*
X74606Y63189D02*
D03*
D27*
X74606Y65158D02*
D03*
X49016D02*
D03*
Y39567D02*
D03*
X74606D02*
D03*
D28*
X57874Y60187D02*
D03*
X65748D02*
D03*
X57874Y44539D02*
D03*
X65748D02*
D03*
D29*
X53988Y56299D02*
D03*
Y48425D02*
D03*
X69634Y56299D02*
D03*
Y48425D02*
D03*
D30*
X38583Y16043D02*
D03*
Y6791D02*
D03*
X36341Y-7972D02*
D03*
Y1280D02*
D03*
D31*
X72146Y72638D02*
D03*
Y76181D02*
D03*
X75591D02*
D03*
Y72638D02*
D03*
X25157Y8543D02*
D03*
Y5000D02*
D03*
X49721Y197D02*
D03*
Y3740D02*
D03*
X43110Y95768D02*
D03*
Y92224D02*
D03*
X61811Y73228D02*
D03*
Y69685D02*
D03*
X81496Y78937D02*
D03*
Y82480D02*
D03*
X85827D02*
D03*
Y78937D02*
D03*
D32*
X28898Y15433D02*
D03*
X25354D02*
D03*
X46177Y-6890D02*
D03*
X49721D02*
D03*
X51378Y95768D02*
D03*
X47835D02*
D03*
Y91043D02*
D03*
X51378D02*
D03*
X66437Y92126D02*
D03*
X62894D02*
D03*
Y96850D02*
D03*
X66437D02*
D03*
D33*
X71457Y-4232D02*
D03*
Y-689D02*
D03*
D34*
X23504Y25630D02*
D03*
X27047D02*
D03*
M02*
