G04*
G04 #@! TF.GenerationSoftware,Altium Limited,Altium NEXUS,2.0.14 (187)*
G04*
G04 Layer_Color=16711935*
%FSLAX25Y25*%
%MOIN*%
G70*
G01*
G75*
%ADD14C,0.00000*%
%ADD35C,0.02756*%
%ADD46R,0.03032X0.03032*%
%ADD47O,0.04429X0.00886*%
%ADD48O,0.04378X0.00984*%
%ADD49O,0.04476X0.00787*%
%ADD50O,0.04323X0.01083*%
%ADD51O,0.04260X0.01181*%
%ADD52O,0.02992X0.01968*%
%ADD53O,0.04185X0.01280*%
%ADD54O,0.04095X0.01378*%
%ADD55O,0.03988X0.01476*%
%ADD56O,0.03862X0.01575*%
%ADD57O,0.03713X0.01673*%
%ADD58O,0.03532X0.01772*%
%ADD59O,0.03406X0.01831*%
%ADD60O,0.03307X0.01870*%
%ADD61O,0.03150X0.01929*%
%ADD62O,0.02480X0.02047*%
%ADD63O,0.02795X0.02008*%
%ADD64C,0.02067*%
%ADD65R,0.03032X0.03032*%
%ADD67R,0.02756X0.02756*%
%ADD68C,0.02244*%
%ADD69C,0.04528*%
%ADD70R,0.04528X0.04528*%
%ADD71R,0.04134X0.04134*%
%ADD72C,0.04134*%
%ADD73R,0.06102X0.06102*%
%ADD74C,0.06102*%
%ADD75C,0.10433*%
%ADD114R,0.04606X0.03189*%
%ADD115R,0.05591X0.03189*%
%ADD116R,0.02638X0.02638*%
%ADD117R,0.08071X0.04921*%
%ADD118R,0.02769X0.02650*%
%ADD119R,0.01142X0.01968*%
%ADD120R,0.02953X0.04331*%
%ADD121R,0.04331X0.03740*%
%ADD122R,0.03740X0.07284*%
G04:AMPARAMS|DCode=123|XSize=21.65mil|YSize=53.15mil|CornerRadius=4.92mil|HoleSize=0mil|Usage=FLASHONLY|Rotation=180.000|XOffset=0mil|YOffset=0mil|HoleType=Round|Shape=RoundedRectangle|*
%AMROUNDEDRECTD123*
21,1,0.02165,0.04331,0,0,180.0*
21,1,0.01181,0.05315,0,0,180.0*
1,1,0.00984,-0.00591,0.02165*
1,1,0.00984,0.00591,0.02165*
1,1,0.00984,0.00591,-0.02165*
1,1,0.00984,-0.00591,-0.02165*
%
%ADD123ROUNDEDRECTD123*%
%ADD124R,0.15591X0.15984*%
D14*
X34589Y106299D02*
X75500D01*
X89854Y86614D01*
X98425Y86614D01*
X110236Y74803D01*
Y0D02*
Y74803D01*
X98425Y-11811D02*
X110236Y0D01*
X11811Y-11811D02*
X98425Y-11811D01*
X0Y0D02*
X11811Y-11811D01*
X0Y0D02*
Y74803D01*
X11811Y86614D01*
X20529D01*
X34589Y106299D01*
D35*
X27874Y57973D02*
G03*
X27874Y57973I-1378J0D01*
G01*
X75492Y30512D02*
G03*
X75492Y30512I-1378J0D01*
G01*
X35984Y62303D02*
G03*
X35984Y62303I-1378J0D01*
G01*
X67323Y30610D02*
G03*
X67323Y30610I-1378J0D01*
G01*
D46*
X21949Y47244D02*
D03*
Y50787D02*
D03*
X58760Y17224D02*
D03*
Y20768D02*
D03*
X65650Y47441D02*
D03*
Y43898D02*
D03*
X45197Y71339D02*
D03*
Y67795D02*
D03*
X69951Y44390D02*
D03*
Y40846D02*
D03*
X50984Y31890D02*
D03*
Y35433D02*
D03*
X70374Y70374D02*
D03*
Y66831D02*
D03*
X64764Y70571D02*
D03*
Y67028D02*
D03*
X17913Y50886D02*
D03*
Y47343D02*
D03*
X22047Y14370D02*
D03*
Y10827D02*
D03*
X40551Y65945D02*
D03*
Y69488D02*
D03*
D47*
X26496Y57234D02*
D03*
Y58711D02*
D03*
X74114Y29774D02*
D03*
Y31250D02*
D03*
X34606Y61565D02*
D03*
Y63041D02*
D03*
X65945Y29872D02*
D03*
Y31348D02*
D03*
D48*
X26496Y57185D02*
D03*
Y58760D02*
D03*
X74114Y29724D02*
D03*
Y31299D02*
D03*
X34606Y61516D02*
D03*
Y63091D02*
D03*
X65945Y29823D02*
D03*
Y31398D02*
D03*
D49*
X26496Y57284D02*
D03*
Y58661D02*
D03*
X74114Y29823D02*
D03*
Y31201D02*
D03*
X34606Y61614D02*
D03*
Y62992D02*
D03*
X65945Y29921D02*
D03*
Y31299D02*
D03*
D50*
X26496Y57136D02*
D03*
Y58809D02*
D03*
X74114Y29675D02*
D03*
Y31348D02*
D03*
X34606Y61466D02*
D03*
Y63140D02*
D03*
X65945Y29774D02*
D03*
Y31447D02*
D03*
D51*
X26496Y57087D02*
D03*
Y58858D02*
D03*
X74114Y29626D02*
D03*
Y31398D02*
D03*
X34606Y61417D02*
D03*
Y63189D02*
D03*
X65945Y29724D02*
D03*
Y31496D02*
D03*
D52*
X26496Y56693D02*
D03*
Y59252D02*
D03*
X74114Y29232D02*
D03*
Y31791D02*
D03*
X34606Y61024D02*
D03*
Y63583D02*
D03*
X65945Y29331D02*
D03*
Y31890D02*
D03*
D53*
X26496Y57037D02*
D03*
Y58908D02*
D03*
X74114Y29577D02*
D03*
Y31447D02*
D03*
X34606Y61368D02*
D03*
Y63238D02*
D03*
X65945Y29675D02*
D03*
Y31545D02*
D03*
D54*
X26496Y56988D02*
D03*
Y58957D02*
D03*
X74114Y29528D02*
D03*
Y31496D02*
D03*
X34606Y61319D02*
D03*
Y63287D02*
D03*
X65945Y29626D02*
D03*
Y31594D02*
D03*
D55*
X26496Y56939D02*
D03*
Y59006D02*
D03*
X74114Y29478D02*
D03*
Y31545D02*
D03*
X34606Y61270D02*
D03*
Y63337D02*
D03*
X65945Y29577D02*
D03*
Y31644D02*
D03*
D56*
X26496Y56890D02*
D03*
Y59055D02*
D03*
X74114Y29429D02*
D03*
Y31594D02*
D03*
X34606Y61221D02*
D03*
Y63386D02*
D03*
X65945Y29528D02*
D03*
Y31693D02*
D03*
D57*
X26496Y56841D02*
D03*
Y59104D02*
D03*
X74114Y29380D02*
D03*
Y31644D02*
D03*
X34606Y61171D02*
D03*
Y63435D02*
D03*
X65945Y29478D02*
D03*
Y31742D02*
D03*
D58*
X26496Y56791D02*
D03*
Y59153D02*
D03*
X74114Y29331D02*
D03*
Y31693D02*
D03*
X34606Y61122D02*
D03*
Y63484D02*
D03*
X65945Y29429D02*
D03*
Y31791D02*
D03*
D59*
X26496Y56762D02*
D03*
Y59183D02*
D03*
X74114Y29301D02*
D03*
Y31722D02*
D03*
X34606Y61093D02*
D03*
Y63514D02*
D03*
X65945Y29400D02*
D03*
Y31821D02*
D03*
D60*
X26496Y56742D02*
D03*
Y59203D02*
D03*
X74114Y29281D02*
D03*
Y31742D02*
D03*
X34606Y61073D02*
D03*
Y63534D02*
D03*
X65945Y29380D02*
D03*
Y31841D02*
D03*
D61*
X26496Y56713D02*
D03*
Y59232D02*
D03*
X74114Y29252D02*
D03*
Y31772D02*
D03*
X34606Y61043D02*
D03*
Y63563D02*
D03*
X65945Y29350D02*
D03*
Y31870D02*
D03*
D62*
X26496Y56653D02*
D03*
Y59291D02*
D03*
X74114Y29193D02*
D03*
Y31831D02*
D03*
X34606Y60984D02*
D03*
Y63622D02*
D03*
X65945Y29291D02*
D03*
Y31929D02*
D03*
D63*
X26496Y56673D02*
D03*
Y59272D02*
D03*
X74114Y29213D02*
D03*
Y31811D02*
D03*
X34606Y61004D02*
D03*
Y63602D02*
D03*
X65945Y29311D02*
D03*
Y31909D02*
D03*
D64*
X26496Y56644D02*
D03*
Y59301D02*
D03*
X74114Y29183D02*
D03*
Y31841D02*
D03*
X34606Y60974D02*
D03*
Y63632D02*
D03*
X65945Y29281D02*
D03*
Y31939D02*
D03*
D65*
X81693Y60236D02*
D03*
X78150D02*
D03*
X85236Y55905D02*
D03*
X81693D02*
D03*
X44587Y49508D02*
D03*
X48130D02*
D03*
X71653Y48720D02*
D03*
X75197D02*
D03*
X58213Y56726D02*
D03*
X54669D02*
D03*
X56890Y29921D02*
D03*
X60433D02*
D03*
D67*
X66693Y79803D02*
D03*
X70236D02*
D03*
X75984Y85236D02*
D03*
X72441D02*
D03*
D68*
X61811Y60185D02*
D03*
Y56299D02*
D03*
Y44539D02*
D03*
Y48425D02*
D03*
X69634Y52362D02*
D03*
X65748D02*
D03*
X61811D02*
D03*
X57874D02*
D03*
X53988D02*
D03*
D69*
X88189Y49468D02*
D03*
X83189Y44469D02*
D03*
Y39469D02*
D03*
X88189Y44469D02*
D03*
Y39469D02*
D03*
Y34468D02*
D03*
X83189D02*
D03*
Y29469D02*
D03*
X88189D02*
D03*
D70*
X83189Y49468D02*
D03*
D71*
X31496Y74803D02*
D03*
Y81693D02*
D03*
D72*
X36496Y74803D02*
D03*
Y81693D02*
D03*
D73*
X98425Y72835D02*
D03*
X11811D02*
D03*
D74*
X98425Y64961D02*
D03*
Y57087D02*
D03*
Y49213D02*
D03*
Y41339D02*
D03*
Y33465D02*
D03*
Y25591D02*
D03*
Y17717D02*
D03*
Y9843D02*
D03*
Y1969D02*
D03*
X11811Y64961D02*
D03*
Y57087D02*
D03*
Y49213D02*
D03*
Y41339D02*
D03*
Y33465D02*
D03*
Y25591D02*
D03*
Y17717D02*
D03*
Y9843D02*
D03*
Y1969D02*
D03*
D75*
X74803Y92520D02*
D03*
X35433D02*
D03*
D114*
X65178Y7993D02*
D03*
Y12927D02*
D03*
Y17861D02*
D03*
Y22796D02*
D03*
D115*
X86693D02*
D03*
Y7993D02*
D03*
Y12927D02*
D03*
Y17861D02*
D03*
D116*
X91339Y64173D02*
D03*
Y67323D02*
D03*
Y74803D02*
D03*
Y71653D02*
D03*
D117*
X85039Y74606D02*
D03*
Y64764D02*
D03*
D118*
X43504Y89016D02*
D03*
X66732D02*
D03*
Y98189D02*
D03*
X43504Y98189D02*
D03*
D119*
X63779Y98228D02*
D03*
X62205D02*
D03*
X60630D02*
D03*
X59055D02*
D03*
X57480D02*
D03*
X55905D02*
D03*
X54331D02*
D03*
X52756D02*
D03*
X51181D02*
D03*
X49606D02*
D03*
X57480Y88976D02*
D03*
X55905D02*
D03*
X54331D02*
D03*
X52756D02*
D03*
X51181D02*
D03*
X49606D02*
D03*
X48031D02*
D03*
X46457D02*
D03*
Y98228D02*
D03*
X48031D02*
D03*
X59055Y88976D02*
D03*
X60630D02*
D03*
X62205D02*
D03*
X63779D02*
D03*
D120*
X83465Y-7382D02*
D03*
X79724D02*
D03*
X75984D02*
D03*
X83465Y1476D02*
D03*
X79724D02*
D03*
X75984D02*
D03*
D121*
X89646Y984D02*
D03*
Y-4134D02*
D03*
D122*
X61811Y-5906D02*
D03*
X48425D02*
D03*
D123*
X37500Y19587D02*
D03*
X34941D02*
D03*
X32382D02*
D03*
X29823D02*
D03*
X27264D02*
D03*
X24705D02*
D03*
X22146D02*
D03*
X19587D02*
D03*
X37500Y42028D02*
D03*
X34941D02*
D03*
X32382D02*
D03*
X29823D02*
D03*
X27264D02*
D03*
X24705D02*
D03*
X22146D02*
D03*
X19587D02*
D03*
D124*
X73465Y15394D02*
D03*
M02*
