G04*
G04 #@! TF.GenerationSoftware,Altium Limited,Altium NEXUS,2.0.14 (187)*
G04*
G04 Layer_Physical_Order=2*
G04 Layer_Color=32768*
%FSLAX25Y25*%
%MOIN*%
G70*
G01*
G75*
%ADD14C,0.00000*%
%ADD91C,0.01575*%
%ADD92C,0.04000*%
G04:AMPARAMS|DCode=93|XSize=43.307mil|YSize=43.307mil|CornerRadius=0mil|HoleSize=0mil|Usage=FLASHONLY|Rotation=0.000|XOffset=0mil|YOffset=0mil|HoleType=Round|Shape=Relief|Width=11.81mil|Gap=7.87mil|Entries=4|*
%AMTHD93*
7,0,0,0.04331,0.02756,0.01181,45*
%
%ADD93THD93*%
%ADD94C,0.04331*%
G04:AMPARAMS|DCode=95|XSize=62.992mil|YSize=62.992mil|CornerRadius=0mil|HoleSize=0mil|Usage=FLASHONLY|Rotation=0.000|XOffset=0mil|YOffset=0mil|HoleType=Round|Shape=Relief|Width=11.81mil|Gap=7.87mil|Entries=4|*
%AMTHD95*
7,0,0,0.06299,0.04724,0.01181,45*
%
%ADD95THD95*%
%ADD96C,0.03937*%
G04:AMPARAMS|DCode=97|XSize=59.055mil|YSize=59.055mil|CornerRadius=0mil|HoleSize=0mil|Usage=FLASHONLY|Rotation=0.000|XOffset=0mil|YOffset=0mil|HoleType=Round|Shape=Relief|Width=11.81mil|Gap=7.87mil|Entries=4|*
%AMTHD97*
7,0,0,0.05906,0.04331,0.01181,45*
%
%ADD97THD97*%
%ADD98C,0.05079*%
G04:AMPARAMS|DCode=99|XSize=70.472mil|YSize=70.472mil|CornerRadius=0mil|HoleSize=0mil|Usage=FLASHONLY|Rotation=0.000|XOffset=0mil|YOffset=0mil|HoleType=Round|Shape=Relief|Width=11.81mil|Gap=7.87mil|Entries=4|*
%AMTHD99*
7,0,0,0.07047,0.05472,0.01181,45*
%
%ADD99THD99*%
G04:AMPARAMS|DCode=100|XSize=98.425mil|YSize=98.425mil|CornerRadius=0mil|HoleSize=0mil|Usage=FLASHONLY|Rotation=0.000|XOffset=0mil|YOffset=0mil|HoleType=Round|Shape=Relief|Width=11.81mil|Gap=7.87mil|Entries=4|*
%AMTHD100*
7,0,0,0.09843,0.08268,0.01181,45*
%
%ADD100THD100*%
%ADD101C,0.02362*%
D14*
X34589Y106299D02*
X75500D01*
X89854Y86614D01*
X98425Y86614D01*
X110236Y74803D01*
Y0D02*
Y74803D01*
X98425Y-11811D02*
X110236Y0D01*
X11811Y-11811D02*
X98425Y-11811D01*
X0Y0D02*
X11811Y-11811D01*
X0Y0D02*
Y74803D01*
X11811Y86614D01*
X20529D01*
X34589Y106299D01*
D91*
X68110Y94587D02*
Y101772D01*
X63287Y94587D02*
Y101772D01*
Y94488D02*
X67913D01*
X63189Y85138D02*
Y94390D01*
X62598Y84547D02*
X63189Y85138D01*
X45177Y84547D02*
X62598D01*
X43602Y86122D02*
X45177Y84547D01*
X43602Y86122D02*
Y101673D01*
D92*
X20529Y86614D02*
X34589Y106299D01*
X11811Y86614D02*
X20529D01*
X0Y74803D02*
X11811Y86614D01*
X0Y0D02*
Y74803D01*
Y0D02*
X11811Y-11811D01*
X98425Y-11811D01*
X110236Y0D01*
Y74803D01*
X98425Y86614D02*
X110236Y74803D01*
X89854Y86614D02*
X98425Y86614D01*
X75500Y106299D02*
X89854Y86614D01*
X34589Y106299D02*
X75500D01*
D93*
X61811Y60185D02*
D03*
Y56299D02*
D03*
Y44539D02*
D03*
Y48425D02*
D03*
X69634Y52362D02*
D03*
X65748D02*
D03*
X61811D02*
D03*
X57874D02*
D03*
X53988D02*
D03*
D94*
X88189Y49468D02*
D03*
X83189D02*
D03*
X88189Y44469D02*
D03*
Y39469D02*
D03*
Y34468D02*
D03*
X83189D02*
D03*
X88189Y29469D02*
D03*
D95*
X83189Y44469D02*
D03*
Y39469D02*
D03*
Y29469D02*
D03*
D96*
X31496Y74803D02*
D03*
X36496Y74803D02*
D03*
Y81693D02*
D03*
D97*
X31496Y81693D02*
D03*
D98*
X98425Y72835D02*
D03*
Y64961D02*
D03*
Y57087D02*
D03*
Y49213D02*
D03*
Y41339D02*
D03*
Y33465D02*
D03*
Y25591D02*
D03*
Y17717D02*
D03*
Y9843D02*
D03*
Y1969D02*
D03*
X11811Y72835D02*
D03*
Y64961D02*
D03*
Y57087D02*
D03*
Y49213D02*
D03*
Y41339D02*
D03*
Y33465D02*
D03*
Y25591D02*
D03*
Y17717D02*
D03*
Y9843D02*
D03*
D99*
Y1969D02*
D03*
D100*
X74803Y92520D02*
D03*
X35433D02*
D03*
D101*
X74803Y61024D02*
D03*
X72543Y61315D02*
D03*
X40453Y17421D02*
D03*
X69685Y82677D02*
D03*
X75984D02*
D03*
X72638Y59252D02*
D03*
X44299Y42152D02*
D03*
X66732Y37402D02*
D03*
X62992Y41732D02*
D03*
X50984Y53347D02*
D03*
X47401Y37874D02*
D03*
X54921Y41535D02*
D03*
X52953D02*
D03*
X50984Y61221D02*
D03*
Y55315D02*
D03*
X45235Y58188D02*
D03*
X45393Y54606D02*
D03*
X47126Y51968D02*
D03*
X41417Y55000D02*
D03*
X41634Y60728D02*
D03*
X77756Y50197D02*
D03*
X77165Y55512D02*
D03*
X72638Y45472D02*
D03*
X79567Y44016D02*
D03*
X64764Y63189D02*
D03*
X56890D02*
D03*
X50984Y59252D02*
D03*
X32834Y52677D02*
D03*
X72638Y57284D02*
D03*
X72874Y69313D02*
D03*
X72638Y53347D02*
D03*
X60827Y41535D02*
D03*
X56298Y35984D02*
D03*
X61338Y35741D02*
D03*
X62795Y63189D02*
D03*
X66732D02*
D03*
X61811Y67126D02*
D03*
X52953Y63189D02*
D03*
X54921D02*
D03*
X56693Y32677D02*
D03*
X59665Y34166D02*
D03*
X50984Y49409D02*
D03*
X60827Y63189D02*
D03*
X58858Y41535D02*
D03*
Y63189D02*
D03*
X57480Y39370D02*
D03*
X50984Y45472D02*
D03*
Y43504D02*
D03*
Y47441D02*
D03*
X45551Y46496D02*
D03*
X44850Y34047D02*
D03*
X72638Y55315D02*
D03*
X72641Y51282D02*
D03*
X57480Y69685D02*
D03*
X53150Y70079D02*
D03*
X90158Y84301D02*
D03*
X91338Y55059D02*
D03*
X78150Y47539D02*
D03*
X76772Y24803D02*
D03*
X24508Y23031D02*
D03*
X16732Y20276D02*
D03*
X4626Y9843D02*
D03*
X6791Y9941D02*
D03*
X41734Y-4429D02*
D03*
X41945Y984D02*
D03*
X30118Y37716D02*
D03*
X60117Y12322D02*
D03*
X18602Y36220D02*
D03*
X37913Y45944D02*
D03*
X39212Y48425D02*
D03*
X33861Y31774D02*
D03*
X35531Y33444D02*
D03*
X39370Y26378D02*
D03*
X40354Y22402D02*
D03*
X51889Y25504D02*
D03*
X51062Y37637D02*
D03*
X49508Y84449D02*
D03*
X60117Y10157D02*
D03*
X65236Y-5748D02*
D03*
X91731Y27952D02*
D03*
X45591Y14291D02*
D03*
X48346Y12952D02*
D03*
X48425Y16024D02*
D03*
X49212Y18346D02*
D03*
X30118Y25669D02*
D03*
X32834Y56614D02*
D03*
X25039Y61653D02*
D03*
X5669Y40748D02*
D03*
X4055Y43740D02*
D03*
X56180Y25511D02*
D03*
X55937Y21268D02*
D03*
X45511Y36692D02*
D03*
X73661Y24567D02*
D03*
X50984Y57284D02*
D03*
X33130Y7756D02*
D03*
X30177Y12776D02*
D03*
X43602Y-8465D02*
D03*
X34154Y-8661D02*
D03*
X39075D02*
D03*
X50886Y7382D02*
D03*
X18898Y-984D02*
D03*
X23917Y-1181D02*
D03*
X21457Y1575D02*
D03*
X18602Y5512D02*
D03*
X55137Y8968D02*
D03*
X22163Y23240D02*
D03*
X72441Y2461D02*
D03*
X28976Y52716D02*
D03*
X24821Y48930D02*
D03*
X43661Y44724D02*
D03*
X28463Y49226D02*
D03*
X14410Y53504D02*
D03*
X22000Y56614D02*
D03*
X23185Y34799D02*
D03*
X16060Y32394D02*
D03*
X43818Y101197D02*
D03*
X49685Y23858D02*
D03*
X3543Y29823D02*
D03*
X4035Y34449D02*
D03*
X65472Y100508D02*
D03*
X62205Y100098D02*
D03*
X54331Y100098D02*
D03*
X47243Y101574D02*
D03*
X51181Y100197D02*
D03*
X55905Y101586D02*
D03*
X57480Y100098D02*
D03*
X52775Y101689D02*
D03*
X59007Y101634D02*
D03*
X54331Y74016D02*
D03*
X61830Y81708D02*
D03*
X59960Y78164D02*
D03*
X63700Y80330D02*
D03*
X64468Y76083D02*
D03*
X48130Y77559D02*
D03*
X47598Y35669D02*
D03*
X44882Y29921D02*
D03*
X50117Y20787D02*
D03*
X60039Y25433D02*
D03*
X63405Y26291D02*
D03*
X45276Y65236D02*
D03*
X44882Y62126D02*
D03*
X37106Y65354D02*
D03*
X62106Y2854D02*
D03*
X61024Y-787D02*
D03*
X60117Y7795D02*
D03*
X57480Y394D02*
D03*
X63799Y82987D02*
D03*
X65275Y85940D02*
D03*
X69685Y85532D02*
D03*
M02*
